<?xml version="1.0" standalone="no"?>
<!DOCTYPE svg PUBLIC "-//W3C//DTD SVG 1.1//EN" "http://www.w3.org/Graphics/SVG/1.1/DTD/svg11.dtd">
<svg version="1.1" xmlns="http://www.w3.org/2000/svg" xmlns:xlink="http://www.w3.org/1999/xlink"><metadata>This SVG WebFont was generated by YouWorkForThem.
</metadata><defs><font horiz-adv-x="0" id="ywftsvg"><font-face ascent="800" bbox="-183 -335 1157 1067" cap-height="630" descent="-200" font-family="" font-stretch="normal" font-weight="600" panose-1="0 0 0 0 0 0 0 0 0 0" underline-position="0" underline-thickness="0" unicode-range="U+0020-FB02" units-per-em="1000" x-height="440"/><missing-glyph d="M402 800v-980h-311v980h311zM164 -112h162v32h-100l69 46h31v32h-162v-32h68l-68 -46v-32zM164 21h162v111h-162v-111zM164 190h162v111h-98v-55h34v23h32v-46h-98v78h-32v-111zM164 323h162v98h-32v-65h-130v-33zM164 379h98v68h64v33h-162v-33h64v-36h-64v-32zM164 506 h162v33h-64v69h-98v-102zM164 633h162v33h-64v36h64v32h-161v-32h63v-36h-64v-33zM196 53v46h98v-46h-98zM196 539v36h32v-36h-32z" horiz-adv-x="490"/><glyph d="M15 26q21 3 31 5.5t22 8.5t17 16t5 26v306h-75v26l75 15v12q0 114 88.5 185.5t223.5 71.5q64 0 103 -13l5 -105q-19 5 -56 15t-54.5 14.5t-42.5 10t-42 8t-30 2.5q-34 0 -52.5 -20.5t-18.5 -72.5v-106l96 10q-4 -23 -4 -53h-92v-306q0 -16 6.5 -26t22.5 -16t29 -8.5 t41 -5.5v-26h-298v26zM358 0v26q20 4 29 6t19.5 8t14 16t3.5 26v229q0 30 -12.5 44t-53.5 19v24q104 18 165 58l21 -19v-355q0 -16 3.5 -26t14 -16t19.5 -8t29 -6v-26h-252z" glyph-name="uniFB01" horiz-adv-x="630" unicode="fi"/><glyph d="M15 26q21 3 31 5.5t22 8.5t17 16t5 26v317h-75v26l75 15q1 122 75 186t193 64t187 -35v-573q0 -21 10 -32.5t22 -15t41 -8.5v-26h-266v26q29 5 41 8.5t22 15t10 32.5v466q0 40 -28.5 68t-84.5 28q-98 0 -98 -125v-78l113 11q-5 -24 -5 -53h-108v-317q0 -30 23.5 -40 t80.5 -16v-26h-303v26z" glyph-name="uniFB02" horiz-adv-x="638" unicode="fl"/><glyph d="M15 26q21 3 31 5.5t22 8.5t17 16t5 26v306h-75v26l75 15v7q0 111 79.5 184t185.5 73q48 0 80 -13v-103q-130 47 -172 47q-26 0 -37.5 -18.5t-11.5 -68.5v-112l231 8v8q0 111 82.5 184t192.5 73q48 0 80 -13v-103q-130 47 -182 47q-26 0 -37.5 -18.5t-11.5 -68.5v-105 l116 4q-4 -23 -4 -53h-112v-306q0 -30 23.5 -40t80.5 -16v-26h-303v26q21 3 31 5.5t22 8.5t17 16t5 26v306h-231v-306q0 -30 23.5 -40t80.5 -16v-26h-303v26z" glyph-name="f_f.liga" horiz-adv-x="730" unicode="ff"/><glyph d="M390 26q21 3 31 5.5t22 8.5t17 16t5 26v306h-251v-306q0 -30 23.5 -40t80.5 -16v-26h-303v26q21 3 31 5.5t22 8.5t17 16t5 26v306h-75v26l75 15v7q0 111 79.5 184t185.5 73q48 0 80 -13v-103q-130 47 -172 47q-26 0 -37.5 -18.5t-11.5 -68.5v-112l251 8v8 q0 114 88.5 185.5t223.5 71.5q64 0 103 -13l5 -105q-19 5 -56 15t-54.5 14.5t-42.5 10t-42 8t-30 2.5q-34 0 -52.5 -20.5t-18.5 -72.5v-99l96 3q-4 -23 -4 -53h-92v-306q0 -16 6.5 -26t22.5 -16t29 -8.5t41 -5.5v-26h-298v26zM733 0v26q20 4 29 6t19.5 8t14 16t3.5 26v229 q0 30 -12.5 44t-53.5 19v24q104 18 165 58l21 -19v-355q0 -16 3.5 -26t14 -16t19.5 -8t29 -6v-26h-252z" glyph-name="f_f_i.liga" horiz-adv-x="1005" unicode="ffi"/><glyph d="M402 800v-980h-311v980h311zM164 -112h162v32h-100l69 46h31v32h-162v-32h68l-68 -46v-32zM164 21h162v111h-162v-111zM164 190h162v111h-98v-55h34v23h32v-46h-98v78h-32v-111zM164 323h162v98h-32v-65h-130v-33zM164 379h98v68h64v33h-162v-33h64v-36h-64v-32zM164 506 h162v33h-64v69h-98v-102zM164 633h162v33h-64v36h64v32h-161v-32h63v-36h-64v-33zM196 53v46h98v-46h-98zM196 539v36h32v-36h-32z" glyph-name=".notdef" horiz-adv-x="490"/><glyph glyph-name="glyph1"/><glyph glyph-name="glyph2" horiz-adv-x="333"/><glyph glyph-name="space" horiz-adv-x="204" unicode=" "/><glyph glyph-name="space" horiz-adv-x="204" unicode=" "/><glyph d="M49 576q-5 36 13.5 56.5t51.5 20.5t51.5 -20.5t13.5 -56.5l-56 -384h-18zM42 63q0 29 21.5 50t51.5 21q29 0 50.5 -21t21.5 -50q0 -31 -21.5 -52t-50.5 -21q-30 0 -51.5 21t-21.5 52z" glyph-name="exclam" horiz-adv-x="229" unicode="!"/><glyph d="M176 569q-6 27 7.5 44t40.5 17q26 0 39 -17t7 -44l-38 -181h-18zM34 569q-6 27 7.5 44t40.5 17q26 0 39 -17t7 -44l-38 -181h-18z" glyph-name="quotedbl" horiz-adv-x="304" unicode="&quot;"/><glyph d="M261 -30l48 207h-119l-47 -207h-59l48 207h-100l13 52h99l42 185h-100l13 52h99l48 206h58l-47 -206h118l48 206h58l-47 -206h100l-13 -52h-99l-43 -185h101l-13 -52h-100l-47 -207h-59zM202 229h119l42 185h-118z" glyph-name="numbersign" horiz-adv-x="566" unicode="#"/><glyph d="M252 -62v80q-117 1 -204 57l-8 119h29q20 -65 67.5 -103.5t113.5 -38.5h2v219l-14 6q-40 17 -68 31.5t-58 37t-45.5 52.5t-15.5 66q0 66 52.5 107t148.5 45v81h33v-81q19 -1 37 -3t34 -6.5t27 -8t24.5 -10t18.5 -9t18 -9.5l12 -7l3 -120h-27q-40 134 -147 140v-192 q2 0 6 -2q36 -15 54 -23t52.5 -28.5t52.5 -39t33 -47.5t15 -62q0 -72 -59.5 -118t-153.5 -52v-81h-33zM170 499q0 -28 18.5 -49.5t63.5 -43.5v176q-40 -6 -61 -29t-21 -54zM285 55q40 9 63 35t23 62q0 59 -86 104v-201z" glyph-name="dollar" horiz-adv-x="533" unicode="$"/><glyph d="M96 0l394 549q-78 -47 -177 -3q2 -16 2 -26q0 -77 -47.5 -137.5t-117.5 -60.5q-49 0 -78.5 32.5t-29.5 85.5q0 75 51 134t122 59q41 0 67 -23q36 -21 60 -32.5t52 -18.5t49.5 -1.5t45 23t46.5 49.5h65l-447 -630h-57zM122 433q0 -35 13 -56t37 -21q42 0 74.5 53t32.5 110 q0 37 -16.5 59t-42.5 22q-43 0 -70.5 -55.5t-27.5 -111.5zM382 116q0 75 51 134t122 59q48 0 74 -30t26 -83q0 -77 -47.5 -137.5t-117.5 -60.5q-49 0 -78.5 32.5t-29.5 85.5zM462 109q0 -35 13 -56t37 -21q42 0 74.5 53t32.5 110q0 37 -16.5 59t-42.5 22q-43 0 -70.5 -55.5 t-27.5 -111.5z" glyph-name="percent" horiz-adv-x="697" unicode="%"/><glyph d="M534 -10q-48 0 -96 52q-84 -52 -177 -52q-57 0 -107.5 16.5t-88.5 59t-38 104.5q0 69 41.5 111t113.5 73q-38 60 -38 104q0 68 59 111t135 43q55 0 96 -24.5t41 -75.5q0 -85 -154 -174l8 -9l146 -172q35 54 35 97q0 45 -85 45v32h282v-32q-46 -2 -70.5 -14t-38.5 -48 q-28 -72 -81 -130l31 -36q17 -20 71.5 -9t102.5 45v-31q-38 -38 -92.5 -62.5t-95.5 -23.5zM152 188q0 -72 43.5 -116t97.5 -44q57 0 115 50l-178 213q-10 11 -21 26q-57 -47 -57 -129zM247 497q0 -59 54 -133q71 59 71 133q0 34 -17 56.5t-46 22.5q-27 0 -44.5 -20.5 t-17.5 -58.5z" glyph-name="ampersand" horiz-adv-x="744" unicode="&amp;"/><glyph d="M34 569q-6 27 7.5 44t40.5 17q26 0 39 -17t7 -44l-38 -181h-18z" glyph-name="quotesingle" horiz-adv-x="162" unicode="'"/><glyph d="M274 -159q-116 73 -175 189.5t-59 265.5t59 265.5t175 189.5l29 -6q-149 -174 -146 -449q3 -276 141 -444z" glyph-name="parenleft" horiz-adv-x="318" unicode="("/><glyph d="M35 -148q138 168 141 444q3 275 -146 449l29 6q116 -73 175 -189.5t59 -265.5t-59 -265.5t-175 -189.5z" glyph-name="parenright" horiz-adv-x="333" unicode=")"/><glyph d="M149 580q-11 27 1 42t32 15t32 -15t1 -42l-24 -60q-3 -8 -9 -8t-9 8zM48 405q-12 14 -4.5 33t36.5 24l63 11q8 1 11.5 -4.5t-1.5 -11.5l-39 -51q-21 -23 -38 -21t-28 20zM48 559q11 18 28 20t38 -21l39 -51q5 -6 1.5 -11.5t-11.5 -4.5l-63 11q-29 5 -36.5 24t4.5 33z M149 384l24 60q3 8 9 8t9 -8l24 -60q11 -27 -1 -42t-32 -15t-32 15t-1 42zM211 457q-5 6 -1.5 11.5t11.5 4.5l63 -11q29 -5 36.5 -24t-4.5 -33q-11 -18 -28 -20t-38 21zM211 507l39 51q21 23 38 21t28 -20q12 -14 4.5 -33t-36.5 -24l-63 -11q-8 -1 -11.5 4.5t1.5 11.5z" glyph-name="asterisk" horiz-adv-x="364" unicode="*"/><glyph d="M208 65v147h-146v79h146v145h79v-145h145v-79h-145v-147h-79z" glyph-name="plus" horiz-adv-x="494" unicode="+"/><glyph d="M30 -127q77 27 92 83q6 28 -19 43q-42 24 -42 65q0 29 21 49.5t52 20.5q32 0 54 -24.5t22 -67.5q0 -63 -46 -120.5t-125 -74.5z" glyph-name="comma" horiz-adv-x="240" unicode=","/><glyph d="M52 228v59h320v-59h-320z" glyph-name="hyphen" horiz-adv-x="424" unicode="-"/><glyph d="M113 -10q-30 0 -51.5 21t-21.5 52q0 29 21.5 50t51.5 21q29 0 50.5 -21t21.5 -50q0 -31 -21.5 -52t-50.5 -21z" glyph-name="period" horiz-adv-x="225" unicode="."/><glyph d="M91 -92l-69 30l313 816l69 -30z" glyph-name="slash" horiz-adv-x="396" unicode="/"/><glyph d="M264 -9q-100 0 -167 61.5t-67 164.5q0 106 71.5 169t173.5 63q100 0 167 -61.5t67 -164.5q0 -106 -71.5 -169t-173.5 -63zM157 241q0 -86 31.5 -150t89.5 -64q46 0 75 44.5t29 127.5q0 86 -31.5 150t-89.5 64q-46 0 -75 -44.5t-29 -127.5z" glyph-name="zero" horiz-adv-x="539" unicode="0"/><glyph d="M37 26q57 7 76 16t19 40v276q0 31 -19 40t-76 16v26h310v-26q-57 -7 -76 -16t-19 -40v-276q0 -31 19 -40t76 -16v-26h-310v26z" glyph-name="one" horiz-adv-x="384" unicode="1"/><glyph d="M344 -11l-2 11h-301l-9 21q45 37 58 48t51 44.5t52.5 51t36.5 45.5t30 52t8 48q0 75 -80 75q-73 0 -116 -69l-24 14q24 57 74 88t111 31q67 0 111.5 -35.5t44.5 -89.5q0 -17 -5.5 -35t-13.5 -33t-22 -32t-25.5 -29t-31.5 -27.5t-31.5 -24t-32.5 -21.5t-29 -18t-27 -15.5 t-20 -11.5h118q48 0 73.5 11t42.5 52h26l-41 -151h-26z" glyph-name="two" horiz-adv-x="443" unicode="2"/><glyph d="M186 -190q-36 0 -69.5 7t-59 25t-25.5 44q0 18 11.5 28.5t27.5 10.5t31.5 -12.5t26 -27t29.5 -27t42 -12.5q46 0 85.5 39.5t39.5 106.5q0 66 -38.5 99.5t-99.5 33.5q-39 0 -83 -17l-10 30l70 32q73 34 102 59t29 67q0 38 -23.5 60.5t-64.5 22.5q-79 0 -134 -70l-22 20 q35 59 86.5 89.5t111.5 30.5q67 0 112 -35t45 -92q0 -49 -35 -83t-101 -64q45 -3 83.5 -18t68.5 -50.5t30 -86.5q0 -88 -82 -149t-184 -61z" glyph-name="three" horiz-adv-x="484" unicode="3"/><glyph d="M217 -149q23 4 33 6t22 8t16 16t4 26v88h-254l-16 23l350 437h45v-411h95l-10 -49h-85v-88q0 -16 4 -26t16 -16t22 -8t33 -6v-26h-275v26zM86 44h206v258z" glyph-name="four" horiz-adv-x="544" unicode="4"/><glyph d="M197 -190q-59 0 -112 19t-53 57q0 18 12.5 28.5t30.5 10.5t33 -12.5t25.5 -27t30 -27t44.5 -12.5q50 0 86 40.5t36 102.5q0 35 -13 67t-42 59t-76.5 34.5t-115.5 -6.5l-18 19l98 278h168q55 0 79.5 4.5t40.5 25.5h23l-42 -125h-259l-46 -129q93 13 156 1.5t101.5 -45.5 t55 -71.5t16.5 -77.5q0 -87 -74 -150t-185 -63z" glyph-name="five" horiz-adv-x="504" unicode="5"/><glyph d="M283 -12q-120 0 -182 77.5t-61 198.5q1 163 109.5 264.5t264.5 108.5l17 -32q-122 -9 -193.5 -94.5t-71.5 -248.5q0 -107 32.5 -173t95.5 -66q55 0 83 49.5t28 121.5q0 90 -44 136.5t-132 27.5v29q38 19 80 23t81 -8t70.5 -36t50.5 -64t19 -89q0 -96 -68.5 -160.5 t-178.5 -64.5z" glyph-name="six" horiz-adv-x="560" unicode="6"/><glyph d="M105 -190q84 253 297 535h-216q-55 0 -80.5 -12t-48.5 -62h-25l57 186h25l2 -17h365l11 -15q-192 -300 -262 -615h-125z" glyph-name="seven" horiz-adv-x="509" unicode="7"/><glyph d="M273 -14q-97 0 -164 48t-67 128q0 101 109 161q-67 58 -67 138q0 72 57 120.5t142 48.5q79 0 130.5 -45t51.5 -106q0 -76 -80 -133q131 -60 131 -171q0 -83 -70 -136t-173 -53zM124 170q0 -65 43.5 -107t111.5 -42q56 0 86.5 31.5t30.5 85.5q0 45 -23 71t-82 48l-68 25 q-18 6 -33 15q-66 -49 -66 -127zM189 498q0 -37 23 -67.5t70 -46.5l56 -20q50 46 50 112q0 46 -26.5 82.5t-78.5 36.5q-45 0 -69.5 -29t-24.5 -68z" glyph-name="eight" horiz-adv-x="558" unicode="8"/><glyph d="M277 449q120 0 182 -77.5t61 -198.5q-1 -163 -109.5 -264.5t-264.5 -108.5l-17 32q122 9 193.5 94.5t71.5 248.5q0 107 -32.5 173t-95.5 66q-55 0 -83 -49.5t-28 -121.5q0 -90 44 -136.5t132 -27.5v-29q-38 -19 -80 -23t-81 8t-70.5 36t-50.5 64t-19 89q0 96 68.5 160.5 t178.5 64.5z" glyph-name="nine" horiz-adv-x="560" unicode="9"/><glyph d="M113 310q-30 0 -51.5 21t-21.5 52q0 29 21.5 50t51.5 21q29 0 50.5 -21t21.5 -50q0 -31 -21.5 -52t-50.5 -21zM41 63q0 29 21.5 50t51.5 21q29 0 50.5 -21t21.5 -50q0 -31 -21 -52t-51 -21t-51.5 21t-21.5 52z" glyph-name="colon" horiz-adv-x="226" unicode=":"/><glyph d="M30 -127q77 27 92 83q6 28 -19 43q-42 24 -42 65q0 29 21 49.5t52 20.5q32 0 54 -24.5t22 -67.5q0 -63 -46 -120.5t-125 -74.5zM67 382q0 29 21.5 50t51.5 21q29 0 50.5 -21t21.5 -50q0 -30 -21 -51.5t-51 -21.5t-51.5 21t-21.5 52z" glyph-name="semicolon" horiz-adv-x="242" unicode=";"/><glyph d="M437 40q-170 93 -375 171v79q205 78 375 171v-93q-139 -72 -282 -117q86 -28 144.5 -52.5t137.5 -65.5v-93z" glyph-name="less" horiz-adv-x="499" unicode="&lt;"/><glyph d="M62 122v79h370v-79h-370zM62 302v79h370v-79h-370z" glyph-name="equal" horiz-adv-x="494" unicode="="/><glyph d="M62 133q79 41 137.5 65.5t144.5 52.5q-143 45 -282 117v93q170 -93 375 -171v-79q-205 -78 -375 -171v93z" glyph-name="greater" horiz-adv-x="499" unicode=">"/><glyph d="M215 197q-14 39 -10 63t21 54t35.5 54t33.5 61.5t15 77.5q0 58 -30.5 84.5t-92.5 26.5q-27 0 -38 -27q-21 -54 -38.5 -75.5t-40.5 -21.5q-20 0 -32.5 12.5t-12.5 31.5q0 34 41.5 63t96.5 43t105 14q82 0 131 -42.5t49 -115.5q0 -39 -16 -72t-39.5 -54t-51 -42.5 t-50.5 -39t-37 -42.5t-12 -53h-27zM153 63q0 29 21.5 50t51.5 21q29 0 50.5 -21t21.5 -50q0 -31 -21 -52t-51 -21t-51.5 21t-21.5 52z" glyph-name="question" horiz-adv-x="478" unicode="?"/><glyph d="M402 -68q-151 0 -255.5 101t-104.5 247q0 148 107 251.5t266 103.5q148 0 237.5 -93.5t89.5 -229.5q0 -93 -48 -151t-115 -58q-13 0 -26 2t-30.5 8.5t-29.5 22t-13 37.5q-50 -67 -128 -67q-55 0 -91 34t-36 103q0 91 60 150t133 59q75 0 100 -71l11 58h74l-48 -236 q-15 -72 36 -72q45 0 80.5 50.5t35.5 130.5q0 129 -80 210t-207 81q-135 0 -216 -93t-81 -230q0 -131 81 -223t213 -92q90 0 184 56l22 -15q-96 -74 -221 -74zM310 240q0 -101 66 -101q41 0 73.5 37t45.5 92l4 21q3 18 3 37q0 96 -74 96q-54 0 -86 -56.5t-32 -125.5z" glyph-name="at" horiz-adv-x="784" unicode="@"/><glyph d="M0 26q41 7 55 16.5t28 41.5l238 553h43l241 -554q14 -32 28 -41t55 -16v-26h-288v26q50 10 60 19q13 13 2 38l-45 104h-244l-44 -104q-15 -18 -3 -30.5t20.5 -16t34.5 -8.5q6 -1 9 -2v-26h-190v26zM189 225h211l-107 247z" glyph-name="A" horiz-adv-x="688" unicode="A"/><glyph d="M20 26q51 10 64 20q19 16 19 59v420q0 23 -3.5 37t-17.5 22.5t-20.5 10.5t-33.5 7q-5 1 -8 2v26h299q122 0 195.5 -37t73.5 -113q0 -55 -37.5 -92.5t-102.5 -56.5q172 -40 172 -162q0 -85 -80.5 -127t-220.5 -42h-299v26zM235 116q0 -39 22.5 -57.5t80.5 -18.5 q76 0 105 33.5t29 91.5q0 64 -37.5 104.5t-139.5 40.5h-60v-194zM235 347h79q78 0 106.5 32t28.5 90q0 55 -28 88t-109 33q-45 0 -61 -11.5t-16 -37.5v-194z" glyph-name="B" horiz-adv-x="660" unicode="B"/><glyph d="M382 -12q-153 0 -247.5 92.5t-94.5 234.5q0 144 98.5 237.5t255.5 93.5q119 0 196 -46q0 -64 7 -135h-41q-32 141 -173 141q-99 0 -150 -69t-51 -183q0 -137 72 -224.5t187 -87.5q101 0 153 53l23 -24q-32 -35 -94.5 -59t-140.5 -24z" glyph-name="C" horiz-adv-x="657" unicode="C"/><glyph d="M20 26q51 10 64 20q19 16 19 59v420q0 23 -3.5 37t-17.5 22.5t-20.5 10.5t-33.5 7q-5 1 -8 2v26h284q70 0 133.5 -18t117 -53.5t85 -97.5t31.5 -142q0 -82 -31 -145.5t-84 -100t-116.5 -55t-135.5 -18.5h-284v26zM235 135q0 -53 20.5 -74.5t76.5 -21.5q97 0 147 71 t50 199q0 130 -57.5 206t-177.5 76h-59v-456z" glyph-name="D" horiz-adv-x="711" unicode="D"/><glyph d="M20 26q51 10 64 20q19 16 19 59v420q0 23 -3.5 37t-17.5 22.5t-20.5 10.5t-33.5 7q-5 1 -8 2v26h508l9 -146h-31q-7 57 -27 81.5t-71 24.5h-79q-59 0 -76.5 -13t-17.5 -63v-177h67q86 0 110 17t29 67h25v-206h-25q-5 50 -29 67t-110 17h-67v-183q0 -50 17.5 -63t76.5 -13 h58q59 0 92 24.5t61 89.5h31l-41 -154h-510v26z" glyph-name="E" horiz-adv-x="596" unicode="E"/><glyph d="M20 26q51 10 64 20q19 16 19 59v420q0 23 -3.5 37t-17.5 22.5t-20.5 10.5t-33.5 7q-5 1 -8 2v26h508l9 -146h-31q-7 57 -27 81.5t-71 24.5h-79q-59 0 -76.5 -13t-17.5 -63v-177h67q86 0 110 17t29 67h25v-206h-25q-5 50 -29 67t-110 17h-67v-194q0 -23 3.5 -37 t17.5 -22.5t20.5 -10.5t33.5 -7q5 -1 8 -2v-26h-298v26z" glyph-name="F" horiz-adv-x="562" unicode="F"/><glyph d="M396 -12q-165 0 -260.5 91.5t-95.5 233.5q0 144 99 238.5t256 94.5q124 0 201 -46q4 -91 7 -135h-41q-32 141 -181 141q-99 0 -149 -67.5t-50 -191.5q0 -143 57 -231t156 -88q57 0 80.5 24.5t23.5 82.5v34q0 64 -21 84.5t-84 25.5v30h281v-30q-32 -5 -47 -20t-15 -50v-34 q0 -88 16 -132q-32 -23 -95 -39t-138 -16z" glyph-name="G" horiz-adv-x="710" unicode="G"/><glyph d="M20 26q51 10 64 20q19 16 19 59v420q0 23 -3.5 37t-17.5 22.5t-20.5 10.5t-33.5 7q-5 1 -8 2v26h298v-26q-51 -10 -64 -20q-19 -16 -19 -59v-192h260v192q0 23 -3.5 37t-17.5 22.5t-20.5 10.5t-33.5 7q-5 1 -8 2v26h298v-26q-51 -10 -64 -20q-19 -16 -19 -59v-420 q0 -23 3.5 -37t17.5 -22.5t20.5 -10.5t33.5 -7q5 -1 8 -2v-26h-298v26q51 10 64 20q19 16 19 59v190h-260v-190q0 -23 3.5 -37t17.5 -22.5t20.5 -10.5t33.5 -7q5 -1 8 -2v-26h-298v26z" glyph-name="H" horiz-adv-x="730" unicode="H"/><glyph d="M20 26q51 10 64 20q19 16 19 59v420q0 23 -3.5 37t-17.5 22.5t-20.5 10.5t-33.5 7q-5 1 -8 2v26h298v-26q-51 -10 -64 -20q-19 -16 -19 -59v-420q0 -23 3.5 -37t17.5 -22.5t20.5 -10.5t33.5 -7q5 -1 8 -2v-26h-298v26z" glyph-name="I" horiz-adv-x="338" unicode="I"/><glyph d="M0 -185q-11 16 0 32q68 24 86.5 56.5t18.5 109.5v512q0 23 -3.5 37t-17.5 22.5t-20.5 10.5t-33.5 7q-5 1 -8 2v26h298v-26q-51 -10 -64 -20q-19 -16 -19 -59v-522q0 -46 -20 -80.5t-57 -55t-73.5 -32t-86.5 -20.5z" glyph-name="J" horiz-adv-x="340" unicode="J"/><glyph d="M20 26q51 10 64 20q19 16 19 59v420q0 23 -3.5 37t-17.5 22.5t-20.5 10.5t-33.5 7q-5 1 -8 2v26h298v-26q-51 -10 -64 -20q-19 -16 -19 -59v-208l244 240q22 22 11 34.5t-52 12.5v26h221v-26q-46 0 -70 -11t-50 -36l-163 -160l238 -343q13 -18 29 -23t57 -5v-26h-216 q0 23 -32 70l-163 240l-54 -53v-152q0 -23 3.5 -37t17.5 -22.5t20.5 -10.5t33.5 -7q5 -1 8 -2v-26h-298v26z" glyph-name="K" horiz-adv-x="705" unicode="K"/><glyph d="M20 26q51 10 64 20q19 16 19 59v420q0 23 -3.5 37t-17.5 22.5t-20.5 10.5t-33.5 7q-5 1 -8 2v26h298v-26q-51 -10 -64 -20q-19 -16 -19 -59v-408q0 -50 17.5 -63t76.5 -13h61q60 0 93 25t60 94h32l-41 -160h-514v26z" glyph-name="L" horiz-adv-x="595" unicode="L"/><glyph d="M388 0l-219 508l-18 -403q-1 -30 10 -46.5t23 -20.5t47 -10q6 -1 9 -2v-26h-220v26q51 10 64 20q20 16 22 59l19 420q1 23 -3 37t-16.5 22t-22 11t-32.5 7q-7 1 -10 2v26h215q2 -13 31 -77l160 -372l144 372q25 66 27 77h228v-26q-52 -10 -65 -20q-19 -17 -17 -59 l19 -420q2 -44 18.5 -57t57.5 -21q5 -1 8 -1v-26h-298v26q52 10 65 20q19 17 17 59l-17 444l-216 -549h-30z" glyph-name="M" horiz-adv-x="887" unicode="M"/><glyph d="M536 0l-387 534v-429q0 -23 4 -37t19 -22.5t22 -10.5t36 -7q6 -1 9 -2v-26h-219v26q52 10 65 20q20 16 20 59v420q0 23 -4 37t-17.5 22.5t-21.5 10.5t-33 7q-6 1 -9 2v26h211l316 -438v333q0 23 -4 37t-19 22.5t-22 10.5t-36 7q-6 1 -9 2v26h219v-26q-52 -10 -65 -20 q-20 -16 -20 -59v-525h-55z" glyph-name="N" horiz-adv-x="696" unicode="N"/><glyph d="M361 -12q-139 0 -230 92t-91 233q0 144 92 238.5t233 94.5q139 0 230 -92.5t91 -235.5q0 -142 -92 -236t-233 -94zM180 343q0 -141 54 -228t144 -87q79 0 123.5 68.5t44.5 191.5q0 143 -54 230.5t-144 87.5q-79 0 -123.5 -69t-44.5 -194z" glyph-name="O" horiz-adv-x="726" unicode="O"/><glyph d="M20 26q51 10 64 20q19 16 19 59v420q0 23 -3.5 37t-17.5 22.5t-20.5 10.5t-33.5 7q-5 1 -8 2v26h278q302 0 302 -185q0 -99 -85.5 -150.5t-234.5 -51.5q-12 0 -12 19.5t12 19.5q100 0 140 42t40 115q0 151 -152 151q-43 0 -58 -11t-15 -35v-439q0 -23 3.5 -37t17.5 -22.5 t20.5 -10.5t33.5 -7q5 -1 8 -2v-26h-298v26z" glyph-name="P" horiz-adv-x="635" unicode="P"/><glyph d="M651 -175q-71 0 -137 40l-172 105q-22 14 -62 27q-108 26 -174 111.5t-66 204.5q0 144 92 238.5t233 94.5q139 0 230 -92.5t91 -235.5q0 -114 -62 -200t-164 -116q39 -5 75 -27l62 -37q81 -48 127 -48q43 0 84 30q18 -4 18 -24q-77 -71 -175 -71zM180 343q0 -141 54 -228 t144 -87q79 0 123.5 68.5t44.5 191.5q0 143 -54 230.5t-144 87.5q-79 0 -123.5 -69t-44.5 -194z" glyph-name="Q" horiz-adv-x="741" unicode="Q"/><glyph d="M20 26q51 10 64 20q19 16 19 59v420q0 23 -3.5 37t-17.5 22.5t-20.5 10.5t-33.5 7q-5 1 -8 2v26h281q286 0 286 -175q0 -145 -195 -175q65 -13 104 -78l53 -88q26 -44 61.5 -71t74.5 -16v-27q-34 -16 -84 -16q-66 0 -107.5 23.5t-71.5 73.5l-64 106q-29 48 -55.5 66 t-67.5 20v-168q0 -23 3.5 -37t17.5 -22.5t20.5 -10.5t33.5 -7q5 -1 8 -2v-26h-298v26zM235 311h52q91 0 126 37t35 99q0 143 -144 143q-40 0 -54.5 -11t-14.5 -35v-233z" glyph-name="R" horiz-adv-x="695" unicode="R"/><glyph d="M257 -12q-121 0 -209 63l-8 130h29q20 -71 67.5 -113.5t113.5 -42.5q55 0 88 31t33 79q0 44 -32 75.5t-101 62.5q-40 18 -68 34t-58 41t-45.5 58t-15.5 73q0 76 57 121.5t161 45.5q19 0 37 -2t32 -4.5t29 -7.5t24 -8.5t21 -10t17 -9.5t15 -9.5t12 -7.5l3 -132h-27 q-42 154 -157 154q-52 0 -78.5 -26.5t-26.5 -65.5q0 -36 27 -63t94 -58q30 -13 44.5 -20.5t44 -24t46 -32t35.5 -37.5t28 -48.5t9 -57.5q0 -84 -68 -136t-173 -52z" glyph-name="S" horiz-adv-x="533" unicode="S"/><glyph d="M144 26q31 5 41 7.5t26 10.5t20.5 22.5t4.5 38.5v488h-41q-78 0 -108.5 -31t-41.5 -101h-25l8 179l55 -10h437l55 10l8 -179h-25q-11 70 -41 101t-106 31h-43v-488q0 -24 4.5 -38.5t20.5 -22.5t26 -10.5t41 -7.5v-26h-316v26z" glyph-name="T" horiz-adv-x="603" unicode="T"/><glyph d="M360 -12q-49 0 -90 10.5t-81 37.5t-63 82t-23 134v273q0 23 -3.5 37t-17.5 22.5t-20.5 10.5t-33.5 7q-5 1 -8 2v26h299v-26q-51 -10 -64 -20q-19 -16 -19 -59v-288q0 -204 159 -204q29 0 55 7t53.5 26t44 59.5t16.5 98.5v301q0 23 -4 37t-17.5 22.5t-21.5 10.5t-33 7 q-6 1 -9 2v26h220v-26q-56 -10 -69 -20q-21 -16 -21 -59v-281q0 -256 -249 -256z" glyph-name="U" horiz-adv-x="719" unicode="U"/><glyph d="M83 548q-14 32 -27 40t-56 16v26h288v-26l-17.5 -3.5t-17 -4l-13.5 -4.5t-11.5 -6.5t-5.5 -8.5t-2 -12.5t5 -16.5l169 -390l164 390q4 9 5 16.5t-2 12.5t-5.5 8.5t-11 6.5t-13 4.5t-17 4l-17.5 3.5v26h190v-26q-42 -8 -55.5 -16t-27.5 -41l-238 -554h-43z" glyph-name="V" horiz-adv-x="688" unicode="V"/><glyph d="M83 551q-12 32 -25.5 40.5t-57.5 16.5v22h288v-22q-51 -10 -59 -19q-11 -11 -1 -38l137 -385l105 298q20 51 2 92t-74 52v22h203q0 -41 35 -137l117 -326l120 340q9 24 9.5 41t-3.5 27t-18 16.5t-27.5 9.5t-39.5 7v22h222v-22q-32 -6 -42.5 -9.5t-21.5 -14t-19 -33.5 l-202 -558h-49l-173 461l-166 -462h-49z" glyph-name="W" horiz-adv-x="1016" unicode="W"/><glyph d="M404 26q4 1 11 2q28 5 37.5 9t10 16t-15.5 35l-122 179l-134 -176q-6 -8 -10.5 -15t-7.5 -12.5t-2.5 -9.5t0.5 -7t4 -5.5t6 -4t10 -3.5t11.5 -2.5t13.5 -2.5l15 -3v-26h-221v26q65 9 83 19q21 11 47 45l162 210l-160 235q-27 39 -48.5 50t-75.5 19v26h313v-26 q-25 -5 -34.5 -7.5t-18 -9.5t-3.5 -19t19 -33l103 -151l119 153q19 25 18.5 38.5t-12 17.5t-41.5 10q-4 1 -6 1v26h215v-26q-53 -8 -74 -18t-51 -49l-145 -186l179 -262q25 -36 46 -45t80 -18v-26h-321v26z" glyph-name="X" horiz-adv-x="735" unicode="X"/><glyph d="M92 542q-24 37 -36 45.5t-51 16.5v26h293v-26q-6 -1 -18 -3.5t-17.5 -4t-14 -4.5t-11 -7t-4.5 -9.5t1 -14t10 -19.5l140 -224l138 224q10 17 11.5 27.5t-9 16.5t-19 8.5t-31.5 6.5q-11 2 -16 3v26h201v-26q-39 -8 -51.5 -16.5t-36.5 -45.5l-167 -266v-175q0 -25 4.5 -39 t20.5 -22t26 -10.5t42 -7.5v-22h-318v22q59 10 73 21q20 15 20 58v160z" glyph-name="Y" horiz-adv-x="664" unicode="Y"/><glyph d="M31 0l-11 15l386 585l-191 -4q-72 -1 -100.5 -31t-33.5 -101h-29v172l63 -6h461l-395 -600l229 4q69 1 97 32t43 102h30q-19 -102 -19 -168h-530z" glyph-name="Z" horiz-adv-x="605" unicode="Z"/><glyph d="M287 -166l-227 14v897l227 14v-24l-107 -25v-827l107 -25v-24z" glyph-name="bracketleft" horiz-adv-x="312" unicode="["/><glyph d="M305 -92l-313 816l69 30l313 -816z" glyph-name="backslash" horiz-adv-x="396" unicode="\"/><glyph d="M30 -166v24l107 25v827l-107 25v24l227 -14v-897z" glyph-name="bracketright" horiz-adv-x="317" unicode="]"/><glyph d="M57 365l-15 17l181 264l181 -265l-15 -16l-166 188z" glyph-name="asciicircum" horiz-adv-x="446" unicode="^"/><glyph d="M42 -67v47h550v-47h-550z" glyph-name="underscore" horiz-adv-x="634" unicode="_"/><glyph d="M132 505q-61 65 -124 107q8 24 34.5 43.5t50.5 19.5q47 -66 69 -151z" glyph-name="grave" horiz-adv-x="165" unicode="`"/><glyph d="M405 -7q-33 0 -58 24.5t-27 55.5q-78 -80 -171 -80q-53 0 -88.5 27.5t-35.5 78.5q0 26 11 46t25 33t45 26.5t52.5 20t66.5 19.5q4 1 15.5 4t15.5 4.5t13.5 4.5t13.5 4.5t11 5t11 7t8 8t7 9.5v17q0 58 -24.5 79t-79.5 21q-24 0 -35 -27q-20 -54 -37.5 -75t-41.5 -21 q-21 0 -33.5 12t-12.5 31q0 50 81.5 85.5t158.5 35.5q144 0 144 -153v-201q0 -24 22 -28.5t53 13.5v-26q-53 -45 -110 -61zM148 125q0 -32 19 -51.5t49 -19.5q56 0 104 61v120l-86 -24q-86 -25 -86 -86z" glyph-name="a" horiz-adv-x="525" unicode="a"/><glyph d="M273 -9q-101 0 -153 41t-52 115v396q0 30 -13.5 44t-59.5 19v24q99 14 173 57l20 -19v-317q24 42 65 70t91 28q74 0 129.5 -58t55.5 -156q0 -112 -73 -178t-183 -66zM188 135q0 -43 22 -74.5t67 -31.5q55 0 90.5 49.5t35.5 131.5q0 75 -30 123t-82 48q-65 0 -103 -70 v-176z" glyph-name="b" horiz-adv-x="559" unicode="b"/><glyph d="M269 -9q-105 0 -172 61.5t-67 164.5q0 107 70 169.5t177 62.5q79 0 126 -33t47 -77q0 -23 -14 -36.5t-37 -13.5q-26 0 -41.5 18t-26.5 58q-7 27 -20 38t-35 11q-52 0 -87 -41.5t-35 -116.5q0 -84 45.5 -138t120.5 -54q34 0 65.5 11.5t47.5 33.5l19 -14q-18 -50 -66.5 -77 t-116.5 -27z" glyph-name="c" horiz-adv-x="482" unicode="c"/><glyph d="M218 -9q-75 0 -131.5 56.5t-56.5 155.5q0 112 73.5 179t172.5 67q59 0 99 -25v119q0 29 -16 43.5t-59 19.5v24q101 14 175 57l20 -19v-576q0 -30 12.5 -44.5t53.5 -21.5v-26h-177l8 91l-15 5q-24 -45 -64.5 -75t-94.5 -30zM154 239q0 -79 36 -128.5t89 -49.5 q48 0 72 38.5t24 76.5v162q0 30 -23 52t-64 22q-57 0 -95.5 -45t-38.5 -128z" glyph-name="d" horiz-adv-x="581" unicode="d"/><glyph d="M265 -7q-102 0 -168.5 61.5t-66.5 163.5q0 104 67.5 167.5t165.5 63.5q107 0 160 -70.5t23 -143.5h-294q8 -78 53 -125t115 -47q79 0 113 48l19 -14q-19 -49 -69 -76.5t-118 -27.5zM151 272h183q9 54 -12.5 97t-69.5 43q-42 0 -70.5 -36t-30.5 -104z" glyph-name="e" horiz-adv-x="491" unicode="e"/><glyph d="M15 26q21 3 31 5.5t22 8.5t17 16t5 26v306h-75v26l75 15v12q0 111 82.5 184t192.5 73q48 0 80 -13v-103q-130 47 -182 47q-26 0 -37.5 -18.5t-11.5 -68.5v-112l116 11q-4 -23 -4 -53h-112v-306q0 -30 23.5 -40t80.5 -16v-26h-303v26z" glyph-name="f" horiz-adv-x="375" unicode="f"/><glyph d="M205 -190q-95 0 -142.5 32.5t-47.5 76.5q0 20 28 46.5t66 43.5q-57 25 -57 71q0 19 33.5 50.5t69.5 43.5q-49 17 -75 52t-26 79q0 61 48.5 102.5t133.5 41.5q39 0 74 -10q33 -8 179 -8v-69l-92 15q21 -32 21 -72q0 -61 -48.5 -102t-133.5 -41h-29q-47 0 -47 -33 q0 -28 44 -32l102 -9q101 -9 136 -28.5t35 -66.5q0 -83 -76 -133t-196 -50zM108 -70q0 -77 130 -77q70 0 109.5 25.5t39.5 62.5q0 23 -19 31t-68 12l-115 9q-37 3 -57 -15.5t-20 -47.5zM161 305q0 -44 17 -78.5t58 -34.5t58 34.5t17 78.5t-17 79t-58 35t-58 -35t-17 -79z " glyph-name="g" horiz-adv-x="519" unicode="g"/><glyph d="M327 26q18 4 25 6t17 8t13.5 16t3.5 26v203q0 92 -69 92q-56 0 -104 -57v-238q0 -16 3.5 -26t13.5 -16t17 -8t25 -6v-26h-252v26q29 5 41 8.5t22 15t10 32.5v461q0 30 -13.5 44t-59.5 19v24q99 14 173 57l20 -19v-309q38 43 76 66.5t90 23.5q127 0 127 -154v-213 q0 -16 3.5 -26t14 -16t19.5 -8t29 -6v-26h-245v26z" glyph-name="h" horiz-adv-x="587" unicode="h"/><glyph d="M20 26q20 4 29 6t19.5 8t14 16t3.5 26v229q0 30 -12.5 44t-53.5 19v24q104 18 165 58l21 -19v-355q0 -16 3.5 -26t14 -16t19.5 -8t29 -6v-26h-252v26zM68 599q0 29 21.5 49.5t51.5 20.5t51.5 -20.5t21.5 -49.5t-22 -50t-51 -21t-51 21t-22 50z" glyph-name="i" horiz-adv-x="292" unicode="i"/><glyph d="M-6 -185q-8 15 0 30q47 16 66.5 50t19.5 101v315q0 30 -12.5 44t-53.5 19v24q104 18 165 58l21 -19v-454q0 -42 -21 -74.5t-55 -51t-65.5 -28.5t-64.5 -14zM62 599q0 29 21.5 49.5t51.5 20.5t51.5 -20.5t21.5 -49.5t-22 -50t-51 -21t-51 21t-22 50z" glyph-name="j" horiz-adv-x="273" unicode="j"/><glyph d="M392 0q0 30 -19 57l-107 157l-53 -51v-81q0 -21 10 -32.5t22 -15t41 -8.5v-26h-266v26q29 5 41 8.5t22 15t10 32.5v461q0 30 -13.5 44t-59.5 19v24q99 14 173 57l20 -19v-449l149 142q47 44 -35 52v27h209v-27q-43 -3 -68.5 -16.5t-54.5 -40.5l-70 -67l159 -227 q12 -18 28 -24.5t50 -10.5v-27h-188z" glyph-name="k" horiz-adv-x="585" unicode="k"/><glyph d="M20 26q29 5 41 8.5t22 15t10 32.5v461q0 30 -13.5 44t-59.5 19v24q99 14 173 57l20 -19v-586q0 -21 10 -32.5t22 -15t41 -8.5v-26h-266v26z" glyph-name="l" horiz-adv-x="306" unicode="l"/><glyph d="M15 26q20 4 29 6t19.5 8t14 16t3.5 26v239q0 30 -12.5 42.5t-53.5 10.5v24q101 15 170 58l20 -19l-31 -84h22q35 46 72 71t90 25q100 0 123 -96h6q65 96 159 96q130 0 130 -154v-213q0 -16 3.5 -26t14.5 -16t19 -8t28 -6v-26h-248v26q19 4 27 6t18.5 8t14 16t3.5 26v204 q0 91 -68 91q-53 0 -100 -57v-238q0 -16 3.5 -26t14 -16t18.5 -8t27 -6v-26h-248v26q20 4 28 6t19 8t14.5 16t3.5 26v204q0 91 -67 91q-55 0 -100 -58v-237q0 -16 3.5 -26t13.5 -16t17 -8t25 -6v-26h-245v26z" glyph-name="m" horiz-adv-x="856" unicode="m"/><glyph d="M15 26q20 4 29 6t19.5 8t14 16t3.5 26v229q0 30 -12.5 44t-53.5 19v24q101 15 170 58l20 -19l-31 -84h22q39 46 78.5 71t92.5 25q127 0 127 -154v-213q0 -16 3.5 -26t14 -16t19.5 -8t29 -6v-26h-245v26q18 4 25 6t17 8t13.5 16t3.5 26v203q0 92 -68 92q-59 0 -105 -58 v-237q0 -16 3.5 -26t13.5 -16t17 -8t25 -6v-26h-245v26z" glyph-name="n" horiz-adv-x="575" unicode="n"/><glyph d="M264 -9q-100 0 -167 61.5t-67 164.5q0 106 71.5 169t173.5 63q100 0 167 -61.5t67 -164.5q0 -106 -71.5 -169t-173.5 -63zM157 241q0 -86 31.5 -150t89.5 -64q46 0 75 44.5t29 127.5q0 86 -31.5 150t-89.5 64q-46 0 -75 -44.5t-29 -127.5z" glyph-name="o" horiz-adv-x="539" unicode="o"/><glyph d="M304 -9q-50 0 -98 19v-102q0 -17 4 -27t17.5 -16t22.5 -8t36 -6v-26h-271v26q30 5 41 8t20.5 14.5t9.5 34.5v403q0 30 -13.5 44t-57.5 19v24q102 14 180 58l20 -19l-45 -113h22q24 50 69.5 87.5t103.5 37.5q73 0 127 -58t54 -156q0 -112 -71 -178t-171 -66zM206 157 q0 -54 23.5 -91t72.5 -37q53 0 85.5 46.5t32.5 128.5q0 78 -29.5 127.5t-80.5 49.5q-46 0 -75 -39t-29 -71v-114z" glyph-name="p" horiz-adv-x="576" unicode="p"/><glyph d="M218 -9q-74 0 -131 56.5t-57 155.5q0 114 79.5 180t202.5 66q65 0 123 -21l60 12v-533q0 -21 9 -32.5t20 -15t37 -8.5v-26h-272v26q52 7 69 16t17 40v182q-59 -98 -157 -98zM154 240q0 -80 36 -129t89 -49q49 0 72.5 38.5t23.5 76.5v162q0 31 -25 52.5t-63 21.5 q-56 0 -94.5 -45t-38.5 -128z" glyph-name="q" horiz-adv-x="578" unicode="q"/><glyph d="M15 26q22 4 31.5 6t21 8t15 16t3.5 26v230q0 30 -13.5 44t-57.5 18v24q104 16 180 58l20 -19l-23 -121h27q30 71 61.5 105.5t76.5 34.5q21 0 40 -8v-113q-31 14 -65 14q-61 0 -93.5 -40.5t-32.5 -99.5v-127q0 -16 4 -26t15 -16t21.5 -8t33.5 -6v-26h-265v26z" glyph-name="r" horiz-adv-x="417" unicode="r"/><glyph d="M182 -9q-87 0 -150 40l-2 94h39q34 -99 124 -99q40 0 60 17t20 45q0 31 -23 47.5t-76 35.5q-62 22 -102.5 55t-40.5 92q0 61 47.5 96t126.5 35q70 0 134 -38v-93h-38q-28 96 -106 96q-32 0 -50.5 -15t-18.5 -40t21 -43.5t66 -34.5q35 -12 55.5 -21.5t49 -27.5t42.5 -44 t14 -59q0 -65 -53.5 -101.5t-138.5 -36.5z" glyph-name="s" horiz-adv-x="404" unicode="s"/><glyph d="M185 -10q-38 0 -66 27t-28 58v312h-76v35q96 36 163 111h33v-102l121 12q-3 -28 -3 -56h-118v-272q0 -29 10.5 -40.5t32.5 -11.5q40 0 86 16v-33q-66 -29 -155 -56z" glyph-name="t" horiz-adv-x="360" unicode="t"/><glyph d="M208 -7q-132 0 -132 152v224q0 18 -8.5 27.5t-19 12.5t-33.5 7v24q115 -6 181 6v-296q0 -87 73 -87q51 0 100 50v256q0 18 -8.5 27.5t-19 12.5t-33.5 7v24q115 -6 181 6v-354q0 -30 12.5 -44.5t53.5 -21.5v-26h-171l6 79h-15q-38 -41 -76.5 -63.5t-90.5 -22.5z" glyph-name="u" horiz-adv-x="570" unicode="u"/><glyph d="M70 366q-13 29 -24.5 36.5t-45.5 11.5v26h246v-26q-45 -7 -53 -17.5t0 -30.5l97 -235l90 214q7 17 7.5 29.5t-2.5 19t-12.5 11t-16 6t-20.5 3.5v26h164v-26q-35 -4 -48 -11.5t-25 -36.5l-158 -372h-40z" glyph-name="v" horiz-adv-x="500" unicode="v"/><glyph d="M69 371q-11 26 -23 33t-46 10v26h247v-26q-46 -6 -54 -18q-6 -9 0 -25l89 -240l81 200q16 40 4 61q-7 12 -17 15.5t-33 6.5v26h174q0 -38 18 -86l86 -224l76 191q12 30 13.5 48.5t-10 27.5t-25 12t-40.5 5v26h188v-26q-34 -3 -46 -10t-23 -33l-153 -377h-43l-134 331 l-136 -331h-43z" glyph-name="w" horiz-adv-x="797" unicode="w"/><glyph d="M275 26q16 2 24 4t16.5 7t7.5 13t-10 20l-81 110l-90 -110q-10 -13 -11.5 -21t9 -13t16.5 -6t25 -4v-26h-171v26q37 4 52 11t37 33l114 137l-118 161q-18 25 -34.5 33.5t-49.5 12.5v26h250v-26q-15 -2 -23.5 -4.5t-15.5 -7.5t-6 -13.5t10 -20.5l68 -93l77 93 q10 13 11.5 21.5t-8 13.5t-17.5 6.5t-25 4.5v26h166v-26q-32 -4 -47 -12t-37 -34l-100 -119l131 -179q18 -24 35 -32t54 -12v-26h-259v26z" glyph-name="x" horiz-adv-x="544" unicode="x"/><glyph d="M124 -183q-34 0 -68 23v73q69 -12 112.5 -1t63.5 56l6 15l-167 384q-13 28 -25 35.5t-46 11.5v26h248v-26q-45 -7 -53 -18q-7 -10 1 -29l103 -243l105 244q4 9 4.5 15.5t-3 11t-7 7.5t-12.5 5.5t-13.5 3t-16.5 2.5q-5 1 -7 1v26h166v-26q-34 -4 -46 -11t-24 -35 l-172 -400q-64 -151 -149 -151z" glyph-name="y" horiz-adv-x="515" unicode="y"/><glyph d="M31 0l-11 15l273 392l-120 -3q-84 -1 -94 -103h-30v145l59 -6h339l-283 -407l128 3q61 1 87.5 27t41.5 78h31q-19 -76 -19 -141h-402z" glyph-name="z" horiz-adv-x="472" unicode="z"/><glyph d="M287 -161q-55 13 -90 33.5t-51.5 49t-21.5 55.5t-5 66v155q0 56 -84 87v21q84 31 84 87v155q0 39 5 66t21.5 55.5t51.5 49t90 33.5l8 -22q-38 -16 -47 -55t-9 -127v-130q0 -48 -30 -78t-74 -40v-9q44 -10 74 -40t30 -78v-130q0 -46 1 -67.5t6 -49t17 -42t32 -23.5z" glyph-name="braceleft" horiz-adv-x="320" unicode="{"/><glyph d="M72 -175v821h50v-821h-50z" glyph-name="bar" horiz-adv-x="194" unicode="|"/><glyph d="M30 -139q38 16 47 55t9 127v130q0 48 30 78t74 40v9q-44 10 -74 40t-30 78v130q0 46 -1 67.5t-6 49t-17 42t-32 23.5l8 22q55 -13 90 -33.5t51.5 -49t21.5 -55.5t5 -66v-155q0 -56 84 -87v-21q-84 -31 -84 -87v-155q0 -39 -5 -66t-21.5 -55.5t-51.5 -49t-90 -33.5z" glyph-name="braceright" horiz-adv-x="315" unicode="}"/><glyph d="M311 176q-45 0 -95 36.5t-87 36.5q-27 0 -45 -16t-18 -32h-22q-9 52 25.5 85.5t88.5 33.5q45 0 95.5 -36.5t86.5 -36.5q28 0 46 16t18 32h22q9 -52 -25.5 -85.5t-89.5 -33.5z" glyph-name="asciitilde" horiz-adv-x="470" unicode="~"/><glyph d="M49 -131l56 384h18l56 -384q5 -36 -13.5 -56.5t-51.5 -20.5t-51.5 20.5t-13.5 56.5zM42 382q0 31 21.5 52t51.5 21q29 0 50.5 -21.5t21.5 -51.5q0 -29 -21.5 -50t-50.5 -21q-30 0 -51.5 21t-21.5 50z" glyph-name="exclamdown" horiz-adv-x="229" unicode="¡"/><glyph d="M150 -61l19 69q-64 25 -101.5 79t-37.5 130q0 107 70 169.5t177 62.5h12l19 70h35l-20 -73q59 -9 93 -39.5t34 -67.5q0 -23 -14 -36.5t-37 -13.5q-26 0 -41.5 18t-26.5 58q-7 27 -20 38l-84 -310q38 -29 93 -29q34 0 65.5 11.5t47.5 33.5l19 -14q-18 -50 -66.5 -77 t-116.5 -27q-33 0 -68 8l-16 -60h-35zM154 256q0 -84 45 -137l80 295h-3q-52 0 -87 -41.5t-35 -116.5z" glyph-name="cent" horiz-adv-x="482" unicode="¢"/><glyph d="M389 -26q-35 0 -68 13.5t-54.5 30t-48 30t-50.5 13.5q-52 0 -101 -66l-35 37q61 58 85 107t24 140v5h-94l9 39h85v59q0 122 72 188.5t178 66.5q105 0 130 -64q0 -26 -26 -45.5t-60 -23.5q-6 19 -11.5 31t-15.5 26.5t-25 21.5t-35 7q-83 0 -83 -124v-143h167l-9 -39h-158 v-5q0 -91 -88 -168q36 17 65 17q30 0 60 -16t50 -35.5t44.5 -35.5t45.5 -16q37 0 37 41q0 31 -20 59l82 61q36 -22 36 -73q0 -65 -60.5 -102t-127.5 -37z" glyph-name="sterling" horiz-adv-x="609" unicode="£"/><glyph d="M289 19q-66 0 -120 38l-70 -69l-46 46l70 69q-41 55 -41 125q0 68 40 122l-69 68l46 47l69 -69q54 40 121 40q69 0 123 -41l70 70l46 -47l-70 -69q40 -54 40 -121q0 -69 -41 -124l71 -70l-46 -46l-71 70q-57 -39 -122 -39zM150 228q0 -59 40.5 -102.5t99.5 -43.5 q58 0 100 43.5t42 102.5t-42 101.5t-100 42.5q-59 0 -99.5 -42.5t-40.5 -101.5z" glyph-name="currency" horiz-adv-x="581" unicode="¤"/><glyph d="M117 269v38h125l-150 235q-24 37 -36 45.5t-51 16.5v26h293v-26q-6 -1 -18 -3.5t-17.5 -4t-14 -4.5t-11 -7t-4.5 -9.5t1 -14t10 -19.5l140 -224l138 224q10 17 11.5 27.5t-9 16.5t-19 8.5t-31.5 6.5q-11 2 -16 3v26h201v-26q-39 -8 -51.5 -16.5t-36.5 -45.5l-148 -235 h124v-38h-143v-40h143v-38h-143v-90q0 -25 4.5 -39t20.5 -22t26 -10.5t42 -7.5v-22h-318v22q59 10 73 21q20 15 20 58v90h-155v38h155v32l-5 8h-150z" glyph-name="yen" horiz-adv-x="664" unicode="¥"/><glyph d="M72 315v331h50v-331h-50zM72 -175v331h50v-331h-50z" glyph-name="brokenbar" horiz-adv-x="194" unicode="¦"/><glyph d="M256 -180q-14 0 -27 1t-25 3.5t-21.5 5t-20 7t-16.5 6.5t-16 7.5t-13 7t-12 7.5l-9 6l-3 102h25q15 -51 49 -85.5t85 -34.5q42 0 64.5 22.5t22.5 55.5q0 30 -24.5 52t-85.5 49q-37 16 -62.5 30t-58.5 38.5t-50.5 57.5t-17.5 73q0 97 98 139q-74 53 -74 131q0 65 50 105 t138 40q35 0 69 -11t46.5 -18.5t35.5 -22.5l3 -102h-25q-15 50 -48 85t-77 35q-40 0 -62 -22.5t-22 -54.5q0 -31 23 -53t84 -49q37 -16 62 -29.5t58.5 -38t51 -57.5t17.5 -73q0 -98 -98 -140q77 -54 77 -130q0 -65 -50.5 -105t-140.5 -40zM156 263q0 -40 28.5 -65.5 t92.5 -53.5l39 -18q36 26 36 76q0 41 -28.5 66.5t-92.5 52.5l-40 18q-35 -26 -35 -76z" glyph-name="section" horiz-adv-x="503" unicode="§"/><glyph d="M282 540q-26 0 -43.5 18t-17.5 43t18 42.5t43 17.5t42.5 -17.5t17.5 -42.5t-17.5 -43t-42.5 -18zM10 601q0 25 18 42.5t43 17.5t42.5 -17.5t17.5 -42.5t-17.5 -43t-42.5 -18t-43 18t-18 43z" glyph-name="dieresis" horiz-adv-x="352" unicode="¨"/><glyph d="M332 25q-121 0 -206.5 85.5t-85.5 206.5q0 120 85.5 205.5t206.5 85.5q120 0 205.5 -85.5t85.5 -205.5q0 -121 -85.5 -206.5t-205.5 -85.5zM75 317q0 -107 75 -184t182 -77q106 0 181.5 77t75.5 184q0 106 -75.5 183t-181.5 77q-107 0 -182 -77t-75 -183zM168 314 q0 74 50.5 122.5t130.5 48.5q65 0 103 -24l4 -69h-21q-17 69 -93 69q-49 0 -75 -35.5t-26 -92.5q0 -67 37.5 -110t97.5 -43q53 0 77 25l11 -13q-37 -43 -120 -43q-79 0 -127.5 47t-48.5 118z" glyph-name="copyright" horiz-adv-x="663" unicode="©"/><glyph d="M264 341q-22 0 -38 16t-17 36q-52 -52 -110 -52q-34 0 -57 17.5t-23 50.5q0 17 7 30t16 21.5t28.5 17t34.5 13t43 12.5q3 1 15 4.5t15.5 4.5t11.5 4.5t12 7t7 8.5v12q0 37 -15.5 51t-51.5 14q-17 0 -23 -18q-12 -35 -23.5 -48.5t-28.5 -13.5q-12 0 -20 8t-8 20 q0 33 52.5 55.5t102.5 22.5q93 0 93 -99v-129q0 -15 14 -18.5t34 8.5v-17q-34 -29 -71 -39zM52 210v60h249v-60h-249zM98 426q0 -21 12 -33.5t32 -12.5q37 0 67 39v78l-55 -16q-56 -16 -56 -55z" glyph-name="ordfeminine" horiz-adv-x="354" unicode="ª"/><glyph d="M42 222l150 141l16 -14l-85 -127l85 -127l-15 -14zM201 222l150 141l16 -14l-85 -127l85 -127l-15 -14z" glyph-name="guillemotleft" horiz-adv-x="409" unicode="«"/><glyph d="M422 143v159h-360v79h439v-238h-79z" glyph-name="logicalnot" horiz-adv-x="563" unicode="¬"/><glyph d="M52 228v59h320v-59h-320z" glyph-name="uni00AD" horiz-adv-x="424" unicode="­"/><glyph d="M332 25q-121 0 -206.5 85.5t-85.5 206.5q0 120 85.5 205.5t206.5 85.5q120 0 205.5 -85.5t85.5 -205.5q0 -121 -85.5 -206.5t-205.5 -85.5zM75 317q0 -107 75 -184t182 -77q106 0 181.5 77t75.5 184q0 106 -75.5 183t-181.5 77q-107 0 -182 -77t-75 -183zM190 163v13 q17 3 22.5 5t11.5 10t6 24v200q0 15 -5.5 23.5t-12 10.5t-22.5 5v13h136q141 0 141 -85q0 -35 -26 -56t-64 -28q24 -6 56 -60l12 -20q25 -40 44 -43v-13q-9 -3 -21 -3q-58 0 -84 43l-31 51q-21 35 -37 42v17q85 0 85 67q0 66 -72 66q-21 0 -28 -5t-7 -17v-208q0 -16 6 -24 t11.5 -10t22.5 -5v-13h-144z" glyph-name="registered" horiz-adv-x="663" unicode="®"/><glyph d="M-3 552l15 45h280l-15 -45h-280z" glyph-name="macron" horiz-adv-x="289" unicode="¯"/><glyph d="M177 375q-57 0 -96 35.5t-39 95.5q0 61 41 97.5t101 36.5q57 0 96 -35.5t39 -95.5q0 -61 -41 -97.5t-101 -36.5zM111 520q0 -49 19 -85.5t55 -36.5q30 0 47.5 25t17.5 72q0 50 -19 86t-55 36q-29 0 -47 -25t-18 -72z" glyph-name="degree" horiz-adv-x="361" unicode="°"/><glyph d="M208 166v147h-146v79h146v145h79v-145h145v-79h-145v-147h-79zM62 -9v79h370v-79h-370z" glyph-name="plusminus" horiz-adv-x="494" unicode="±"/><glyph d="M32 404q5 4 20 17t21 18t19 17t19.5 19t16.5 18t15 19t10.5 17.5t8 18.5t2.5 18q0 20 -12 34t-35 14q-41 0 -66 -42l-11 7q12 31 38.5 48.5t58.5 17.5q35 0 58 -20t23 -50q0 -23 -17 -48t-35 -40t-45.5 -35.5t-32.5 -24.5h66q27 0 40.5 6.5t22.5 29.5h13l-19 -70h-176z " glyph-name="uni00B2" horiz-adv-x="262" unicode="²"/><glyph d="M101 384q-27 0 -48 7.5t-21 22.5t17 15q9 0 25.5 -15.5t33.5 -15.5q23 0 42 16.5t19 44.5q0 27 -18 40.5t-45 13.5q-17 0 -36 -7l-5 12l31 12q32 12 45.5 22.5t13.5 28.5q0 32 -41 32t-64 -27l-10 8q32 47 92 47q29 0 47.5 -14t18.5 -37q0 -33 -56 -58q31 -2 53 -17 t22 -45q0 -37 -34 -61.5t-82 -24.5z" glyph-name="uni00B3" horiz-adv-x="249" unicode="³"/><glyph d="M3 524q22 85 69 151q24 0 50.5 -19.5t34.5 -43.5q-63 -42 -124 -107z" glyph-name="acute" horiz-adv-x="165" unicode="´"/><glyph d="M342 544q0 24 -11.5 35t-41.5 11q-68 0 -100 -46.5t-32 -114.5t31.5 -112.5t103.5 -44.5q12 0 12 -19.5t-12 -19.5q-119 0 -194.5 52.5t-75.5 149.5q0 96 76 145.5t201 49.5h375v-26q-51 -10 -64 -20q-19 -16 -19 -59v-539q0 -79 -48.5 -120t-133.5 -41h-67v719z M393 -139q45 0 61.5 29.5t16.5 93.5v560q0 29 -9 40.5t-30 11.5q-20 0 -29.5 -11.5t-9.5 -40.5v-683z" glyph-name="paragraph" horiz-adv-x="694" unicode="¶"/><glyph d="M123 226q-30 0 -51.5 21t-21.5 52q0 29 21.5 50t51.5 21q29 0 50.5 -21t21.5 -50q0 -31 -21.5 -52t-50.5 -21z" glyph-name="periodcentered" horiz-adv-x="229" unicode="·"/><glyph d="M76 -186q46 0 67.5 13t21.5 32q0 43 -112 43l50 98h48l-22 -44q43 0 76.5 -22t33.5 -60q0 -86 -168 -86z" glyph-name="cedilla" horiz-adv-x="241" unicode="¸"/><glyph d="M37 408q22 2 30 6t8 16v165q0 11 -4 14.5t-12 1.5l-20 -5v11l77 33l8 -6v-214q0 -12 8 -16t30 -6v-10h-125v10z" glyph-name="uni00B9" horiz-adv-x="199" unicode="¹"/><glyph d="M172 340q-64 0 -107 39.5t-43 105.5q0 69 45.5 109.5t111.5 40.5q64 0 107 -40t43 -106q0 -69 -45.5 -109t-111.5 -40zM52 210v60h248v-60h-248zM104 501q0 -56 20 -97t57 -41q30 0 48 28.5t18 81.5q0 57 -20 98t-57 41q-29 0 -47.5 -29t-18.5 -82z" glyph-name="ordmasculine" horiz-adv-x="351" unicode="º"/><glyph d="M377 222l-151 -141l-15 14l85 127l-85 127l16 14zM52 95l85 127l-85 127l16 14l150 -141l-151 -141z" glyph-name="guillemotright" horiz-adv-x="409" unicode="»"/><glyph d="M37 408q22 2 30 6t8 16v165q0 11 -4 14.5t-12 1.5l-20 -5v11l77 33l8 -6v-214q0 -12 8 -16t30 -6v-10h-125v10zM16 -5l432 641h28l-432 -641h-28zM315 86l116 160h46v-160h37l-4 -20h-33v-34q0 -12 7.5 -16t29.5 -6v-10h-124v10q22 2 29.5 6t7.5 16v34h-108zM335 86h92 v127z" glyph-name="onequarter" horiz-adv-x="546" unicode="¼"/><glyph d="M37 408q22 2 30 6t8 16v165q0 11 -4 14.5t-12 1.5l-20 -5v11l77 33l8 -6v-214q0 -12 8 -16t30 -6v-10h-125v10zM16 -5l432 641h28l-432 -641h-28zM325 11q5 4 20 17t21 18t19 17t19.5 19t16.5 18t15 19t10.5 17.5t8 18.5t2.5 18q0 20 -12 34t-35 14q-41 0 -66 -42l-11 7 q12 31 38.5 48.5t58.5 17.5q35 0 58 -20t23 -50q0 -23 -17 -48t-35 -40t-45.5 -35.5t-32.5 -24.5h66q27 0 40.5 6.5t22.5 29.5h13l-19 -70h-176z" glyph-name="onehalf" horiz-adv-x="555" unicode="½"/><glyph d="M101 384q-27 0 -48 7.5t-21 22.5t17 15q9 0 25.5 -15.5t33.5 -15.5q23 0 42 16.5t19 44.5q0 27 -18 40.5t-45 13.5q-17 0 -36 -7l-5 12l31 12q32 12 45.5 22.5t13.5 28.5q0 32 -41 32t-64 -27l-10 8q32 47 92 47q29 0 47.5 -14t18.5 -37q0 -33 -56 -58q31 -2 53 -17 t22 -45q0 -37 -34 -61.5t-82 -24.5zM97 -5l432 641h28l-432 -641h-28zM462 86l116 160h46v-160h37l-4 -20h-33v-34q0 -12 7.5 -16t29.5 -6v-10h-124v10q22 2 29.5 6t7.5 16v34h-108zM482 86h92v127z" glyph-name="threequarters" horiz-adv-x="693" unicode="¾"/><glyph d="M272 248q14 -39 10 -63t-21 -54t-35.5 -54t-33.5 -61.5t-15 -77.5q0 -58 30.5 -84.5t92.5 -26.5q28 0 38 27q21 54 38.5 75.5t40.5 21.5q20 0 32.5 -12.5t12.5 -31.5q0 -34 -41.5 -63t-96.5 -43t-105 -14q-82 0 -131 42.5t-49 115.5q0 39 16 72t39.5 54t51 42.5t50.5 39 t37 42.5t12 53h27zM189 382q0 30 21.5 51.5t50.5 21.5q30 0 51.5 -21t21.5 -52q0 -29 -21.5 -50t-51.5 -21q-29 0 -50.5 21t-21.5 50z" glyph-name="questiondown" horiz-adv-x="487" unicode="¿"/><glyph d="M0 26q41 7 55 16.5t28 41.5l238 553h43l241 -554q14 -32 28 -41t55 -16v-26h-288v26q50 10 60 19q13 13 2 38l-45 104h-244l-44 -104q-15 -18 -3 -30.5t20.5 -16t34.5 -8.5q6 -1 9 -2v-26h-190v26zM189 225h211l-107 247zM229 802q8 24 34.5 43.5t50.5 19.5 q47 -66 69 -151l-30 -19q-61 65 -124 107z" glyph-name="Agrave" horiz-adv-x="688" unicode="À"/><glyph d="M0 26q41 7 55 16.5t28 41.5l238 553h43l241 -554q14 -32 28 -41t55 -16v-26h-288v26q50 10 60 19q13 13 2 38l-45 104h-244l-44 -104q-15 -18 -3 -30.5t20.5 -16t34.5 -8.5q6 -1 9 -2v-26h-190v26zM189 225h211l-107 247zM306 714q22 85 69 151q24 0 50.5 -19.5 t34.5 -43.5q-63 -42 -124 -107z" glyph-name="Aacute" horiz-adv-x="688" unicode="Á"/><glyph d="M0 26q41 7 55 16.5t28 41.5l238 553h43l241 -554q14 -32 28 -41t55 -16v-26h-288v26q50 10 60 19q13 13 2 38l-45 104h-244l-44 -104q-15 -18 -3 -30.5t20.5 -16t34.5 -8.5q6 -1 9 -2v-26h-190v26zM189 225h211l-107 247zM197 728l141 150l141 -151l-14 -15l-127 85 l-127 -85z" glyph-name="Acircumflex" horiz-adv-x="688" unicode="Â"/><glyph d="M0 26q41 7 55 16.5t28 41.5l238 553h43l241 -554q14 -32 28 -41t55 -16v-26h-288v26q50 10 60 19q13 13 2 38l-45 104h-244l-44 -104q-15 -18 -3 -30.5t20.5 -16t34.5 -8.5q6 -1 9 -2v-26h-190v26zM177 718q-8 47 22.5 77t74.5 30q37 0 78 -33t71 -33q22 0 36.5 14.5 t14.5 28.5h23q8 -46 -22.5 -76.5t-75.5 -30.5q-37 0 -77.5 33t-70.5 33q-22 0 -36.5 -14.5t-14.5 -28.5h-23zM189 225h211l-107 247z" glyph-name="Atilde" horiz-adv-x="688" unicode="Ã"/><glyph d="M0 26q41 7 55 16.5t28 41.5l238 553h43l241 -554q14 -32 28 -41t55 -16v-26h-288v26q50 10 60 19q13 13 2 38l-45 104h-244l-44 -104q-15 -18 -3 -30.5t20.5 -16t34.5 -8.5q6 -1 9 -2v-26h-190v26zM176 791q0 25 18 42.5t43 17.5t42.5 -17.5t17.5 -42.5t-17.5 -43 t-42.5 -18t-43 18t-18 43zM189 225h211l-107 247zM387 791q0 25 18 42.5t43 17.5t42.5 -17.5t17.5 -42.5t-17.5 -43t-42.5 -18q-26 0 -43.5 18t-17.5 43z" glyph-name="Adieresis" horiz-adv-x="688" unicode="Ä"/><glyph d="M0 26q41 7 55 16.5t28 41.5l238 553h43l241 -554q14 -32 28 -41t55 -16v-26h-288v26q50 10 60 19q13 13 2 38l-45 104h-244l-44 -104q-15 -18 -3 -30.5t20.5 -16t34.5 -8.5q6 -1 9 -2v-26h-190v26zM189 225h211l-107 247zM247 801q0 39 27.5 66t67.5 27t67.5 -27 t27.5 -66t-27.5 -66t-67.5 -27t-67.5 27t-27.5 66zM299 801q0 -18 12 -30t31 -12t31 12t12 30t-12 30t-31 12t-31 -12t-12 -30z" glyph-name="Aring" horiz-adv-x="688" unicode="Å"/><glyph d="M0 26q39 8 53 17.5t35 46.5l250 431q11 19 12 33t-5.5 22t-20 13.5t-27 8t-30.5 5.5q-5 1 -8 1v26h571l9 -146h-31q-7 57 -27 81.5t-71 24.5h-79q-59 0 -76.5 -13t-17.5 -63v-177h67q86 0 110 17t29 67h25v-206h-25q-5 50 -29 67t-110 17h-67v-183q0 -50 17.5 -63 t76.5 -13h58q59 0 92 24.5t61 89.5h31l-41 -154h-510v26q51 10 64 20q19 16 19 59v107h-201l-69 -121q-4 -8 -6.5 -14t-3.5 -11t1 -9.5t3.5 -7.5t7 -6t8 -4.5t10.5 -3.5t11 -3t13 -3t13 -3v-26h-192v26zM226 250h179v275q0 19 -3 31z" glyph-name="AE" horiz-adv-x="898" unicode="Æ"/><glyph d="M382 -12h-9l-16 -32q43 0 76.5 -22t33.5 -60q0 -86 -168 -86l5 26q46 0 67.5 13t21.5 32q0 43 -112 43l46 90q-131 16 -209 105.5t-78 217.5q0 144 98.5 237.5t255.5 93.5q119 0 196 -46q0 -64 7 -135h-41q-32 141 -173 141q-99 0 -150 -69t-51 -183q0 -137 72 -224.5 t187 -87.5q101 0 153 53l23 -24q-32 -35 -94.5 -59t-140.5 -24z" glyph-name="Ccedilla" horiz-adv-x="657" unicode="Ç"/><glyph d="M20 26q51 10 64 20q19 16 19 59v420q0 23 -3.5 37t-17.5 22.5t-20.5 10.5t-33.5 7q-5 1 -8 2v26h508l9 -146h-31q-7 57 -27 81.5t-71 24.5h-79q-59 0 -76.5 -13t-17.5 -63v-177h67q86 0 110 17t29 67h25v-206h-25q-5 50 -29 67t-110 17h-67v-183q0 -50 17.5 -63t76.5 -13 h58q59 0 92 24.5t61 89.5h31l-41 -154h-510v26zM185 802q8 24 34.5 43.5t50.5 19.5q47 -66 69 -151l-30 -19q-61 65 -124 107z" glyph-name="Egrave" horiz-adv-x="596" unicode="È"/><glyph d="M20 26q51 10 64 20q19 16 19 59v420q0 23 -3.5 37t-17.5 22.5t-20.5 10.5t-33.5 7q-5 1 -8 2v26h508l9 -146h-31q-7 57 -27 81.5t-71 24.5h-79q-59 0 -76.5 -13t-17.5 -63v-177h67q86 0 110 17t29 67h25v-206h-25q-5 50 -29 67t-110 17h-67v-183q0 -50 17.5 -63t76.5 -13 h58q59 0 92 24.5t61 89.5h31l-41 -154h-510v26zM262 714q22 85 69 151q24 0 50.5 -19.5t34.5 -43.5q-63 -42 -124 -107z" glyph-name="Eacute" horiz-adv-x="596" unicode="É"/><glyph d="M20 26q51 10 64 20q19 16 19 59v420q0 23 -3.5 37t-17.5 22.5t-20.5 10.5t-33.5 7q-5 1 -8 2v26h508l9 -146h-31q-7 57 -27 81.5t-71 24.5h-79q-59 0 -76.5 -13t-17.5 -63v-177h67q86 0 110 17t29 67h25v-206h-25q-5 50 -29 67t-110 17h-67v-183q0 -50 17.5 -63t76.5 -13 h58q59 0 92 24.5t61 89.5h31l-41 -154h-510v26zM153 728l141 150l141 -151l-14 -15l-127 85l-127 -85z" glyph-name="Ecircumflex" horiz-adv-x="596" unicode="Ê"/><glyph d="M20 26q51 10 64 20q19 16 19 59v420q0 23 -3.5 37t-17.5 22.5t-20.5 10.5t-33.5 7q-5 1 -8 2v26h508l9 -146h-31q-7 57 -27 81.5t-71 24.5h-79q-59 0 -76.5 -13t-17.5 -63v-177h67q86 0 110 17t29 67h25v-206h-25q-5 50 -29 67t-110 17h-67v-183q0 -50 17.5 -63t76.5 -13 h58q59 0 92 24.5t61 89.5h31l-41 -154h-510v26zM132 791q0 25 18 42.5t43 17.5t42.5 -17.5t17.5 -42.5t-17.5 -43t-42.5 -18t-43 18t-18 43zM343 791q0 25 18 42.5t43 17.5t42.5 -17.5t17.5 -42.5t-17.5 -43t-42.5 -18q-26 0 -43.5 18t-17.5 43z" glyph-name="Edieresis" horiz-adv-x="596" unicode="Ë"/><glyph d="M20 26q51 10 64 20q19 16 19 59v420q0 23 -3.5 37t-17.5 22.5t-20.5 10.5t-33.5 7q-5 1 -8 2v26h298v-26q-51 -10 -64 -20q-19 -16 -19 -59v-420q0 -23 3.5 -37t17.5 -22.5t20.5 -10.5t33.5 -7q5 -1 8 -2v-26h-298v26zM56 802q8 24 34.5 43.5t50.5 19.5q47 -66 69 -151 l-30 -19q-61 65 -124 107z" glyph-name="Igrave" horiz-adv-x="338" unicode="Ì"/><glyph d="M20 26q51 10 64 20q19 16 19 59v420q0 23 -3.5 37t-17.5 22.5t-20.5 10.5t-33.5 7q-5 1 -8 2v26h298v-26q-51 -10 -64 -20q-19 -16 -19 -59v-420q0 -23 3.5 -37t17.5 -22.5t20.5 -10.5t33.5 -7q5 -1 8 -2v-26h-298v26zM133 714q22 85 69 151q24 0 50.5 -19.5t34.5 -43.5 q-63 -42 -124 -107z" glyph-name="Iacute" horiz-adv-x="338" unicode="Í"/><glyph d="M20 26q51 10 64 20q19 16 19 59v420q0 23 -3.5 37t-17.5 22.5t-20.5 10.5t-33.5 7q-5 1 -8 2v26h298v-26q-51 -10 -64 -20q-19 -16 -19 -59v-420q0 -23 3.5 -37t17.5 -22.5t20.5 -10.5t33.5 -7q5 -1 8 -2v-26h-298v26zM24 728l141 150l141 -151l-14 -15l-127 85l-127 -85 z" glyph-name="Icircumflex" horiz-adv-x="338" unicode="Î"/><glyph d="M20 26q51 10 64 20q19 16 19 59v420q0 23 -3.5 37t-17.5 22.5t-20.5 10.5t-33.5 7q-5 1 -8 2v26h298v-26q-51 -10 -64 -20q-19 -16 -19 -59v-420q0 -23 3.5 -37t17.5 -22.5t20.5 -10.5t33.5 -7q5 -1 8 -2v-26h-298v26zM3 791q0 25 18 42.5t43 17.5t42.5 -17.5t17.5 -42.5 t-17.5 -43t-42.5 -18q-26 0 -43.5 18t-17.5 43zM214 791q0 25 18 42.5t43 17.5t42.5 -17.5t17.5 -42.5t-17.5 -43t-42.5 -18t-43 18t-18 43z" glyph-name="Idieresis" horiz-adv-x="338" unicode="Ï"/><glyph d="M32 331q12 -1 35.5 -1t35.5 -1v196q0 23 -3.5 37t-17.5 22.5t-20.5 10.5t-33.5 7q-5 1 -8 2v26h284q70 0 133.5 -18t117 -53.5t85 -97.5t31.5 -142q0 -82 -31 -145.5t-84 -100t-116.5 -55t-135.5 -18.5h-284v26q51 10 64 20q19 16 19 59v188q-27 0 -81 -2zM235 135 q0 -53 20.5 -74.5t76.5 -21.5q97 0 147 71t50 199q0 130 -57.5 206t-177.5 76h-59v-263q71 0 142 3l-10 -40q-20 1 -42 1.5t-48.5 1t-41.5 0.5v-159z" glyph-name="Eth" horiz-adv-x="711" unicode="Ð"/><glyph d="M536 0l-387 534v-429q0 -23 4 -37t19 -22.5t22 -10.5t36 -7q6 -1 9 -2v-26h-219v26q52 10 65 20q20 16 20 59v420q0 23 -4 37t-17.5 22.5t-21.5 10.5t-33 7q-6 1 -9 2v26h211l316 -438v333q0 23 -4 37t-19 22.5t-22 10.5t-36 7q-6 1 -9 2v26h219v-26q-52 -10 -65 -20 q-20 -16 -20 -59v-525h-55zM183 718q-8 47 22.5 77t74.5 30q37 0 78 -33t71 -33q22 0 36.5 14.5t14.5 28.5h23q8 -46 -22.5 -76.5t-75.5 -30.5q-37 0 -77.5 33t-70.5 33q-22 0 -36.5 -14.5t-14.5 -28.5h-23z" glyph-name="Ntilde" horiz-adv-x="696" unicode="Ñ"/><glyph d="M361 -12q-139 0 -230 92t-91 233q0 144 92 238.5t233 94.5q139 0 230 -92.5t91 -235.5q0 -142 -92 -236t-233 -94zM180 343q0 -141 54 -228t144 -87q79 0 123.5 68.5t44.5 191.5q0 143 -54 230.5t-144 87.5q-79 0 -123.5 -69t-44.5 -194zM250 802q8 24 34.5 43.5 t50.5 19.5q47 -66 69 -151l-30 -19q-61 65 -124 107z" glyph-name="Ograve" horiz-adv-x="726" unicode="Ò"/><glyph d="M361 -12q-139 0 -230 92t-91 233q0 144 92 238.5t233 94.5q139 0 230 -92.5t91 -235.5q0 -142 -92 -236t-233 -94zM180 343q0 -141 54 -228t144 -87q79 0 123.5 68.5t44.5 191.5q0 143 -54 230.5t-144 87.5q-79 0 -123.5 -69t-44.5 -194zM327 714q22 85 69 151 q24 0 50.5 -19.5t34.5 -43.5q-63 -42 -124 -107z" glyph-name="Oacute" horiz-adv-x="726" unicode="Ó"/><glyph d="M361 -12q-139 0 -230 92t-91 233q0 144 92 238.5t233 94.5q139 0 230 -92.5t91 -235.5q0 -142 -92 -236t-233 -94zM180 343q0 -141 54 -228t144 -87q79 0 123.5 68.5t44.5 191.5q0 143 -54 230.5t-144 87.5q-79 0 -123.5 -69t-44.5 -194zM218 728l141 150l141 -151 l-14 -15l-127 85l-127 -85z" glyph-name="Ocircumflex" horiz-adv-x="726" unicode="Ô"/><glyph d="M361 -12q-139 0 -230 92t-91 233q0 144 92 238.5t233 94.5q139 0 230 -92.5t91 -235.5q0 -142 -92 -236t-233 -94zM180 343q0 -141 54 -228t144 -87q79 0 123.5 68.5t44.5 191.5q0 143 -54 230.5t-144 87.5q-79 0 -123.5 -69t-44.5 -194zM198 718q-8 47 22 77t75 30 q37 0 78 -33t71 -33q22 0 36.5 14.5t14.5 28.5h23q8 -46 -22.5 -76.5t-75.5 -30.5q-37 0 -77.5 33t-70.5 33q-22 0 -36.5 -14.5t-14.5 -28.5h-23z" glyph-name="Otilde" horiz-adv-x="726" unicode="Õ"/><glyph d="M361 -12q-139 0 -230 92t-91 233q0 144 92 238.5t233 94.5q139 0 230 -92.5t91 -235.5q0 -142 -92 -236t-233 -94zM180 343q0 -141 54 -228t144 -87q79 0 123.5 68.5t44.5 191.5q0 143 -54 230.5t-144 87.5q-79 0 -123.5 -69t-44.5 -194zM197 791q0 25 18 42.5t43 17.5 t42.5 -17.5t17.5 -42.5t-17.5 -43t-42.5 -18q-26 0 -43.5 18t-17.5 43zM408 791q0 25 18 42.5t43 17.5t42.5 -17.5t17.5 -42.5t-17.5 -43t-42.5 -18t-43 18t-18 43z" glyph-name="Odieresis" horiz-adv-x="726" unicode="Ö"/><glyph d="M118 89l-56 56l106 106l-106 107l56 56l106 -107l106 107l56 -56l-106 -107l106 -106l-56 -56l-106 106z" glyph-name="multiply" horiz-adv-x="448" unicode="×"/><glyph d="M145 -49l-20 13l50 79q-63 43 -99 113.5t-36 156.5q0 144 92 238.5t233 94.5q90 0 161 -40l56 89l20 -13l-55 -88q65 -44 102 -115.5t37 -160.5q0 -142 -92 -236t-233 -94q-92 0 -166 43zM180 343q0 -130 47 -216l254 407q-52 72 -133 72q-79 0 -123.5 -69t-44.5 -194z M241 105q53 -77 137 -77q79 0 123.5 68.5t44.5 191.5q0 138 -50 224z" glyph-name="Oslash" horiz-adv-x="726" unicode="Ø"/><glyph d="M360 -12q-49 0 -90 10.5t-81 37.5t-63 82t-23 134v273q0 23 -3.5 37t-17.5 22.5t-20.5 10.5t-33.5 7q-5 1 -8 2v26h299v-26q-51 -10 -64 -20q-19 -16 -19 -59v-288q0 -204 159 -204q29 0 55 7t53.5 26t44 59.5t16.5 98.5v301q0 23 -4 37t-17.5 22.5t-21.5 10.5t-33 7 q-6 1 -9 2v26h220v-26q-56 -10 -69 -20q-21 -16 -21 -59v-281q0 -256 -249 -256zM246 802q8 24 34.5 43.5t50.5 19.5q47 -66 69 -151l-30 -19q-61 65 -124 107z" glyph-name="Ugrave" horiz-adv-x="719" unicode="Ù"/><glyph d="M360 -12q-49 0 -90 10.5t-81 37.5t-63 82t-23 134v273q0 23 -3.5 37t-17.5 22.5t-20.5 10.5t-33.5 7q-5 1 -8 2v26h299v-26q-51 -10 -64 -20q-19 -16 -19 -59v-288q0 -204 159 -204q29 0 55 7t53.5 26t44 59.5t16.5 98.5v301q0 23 -4 37t-17.5 22.5t-21.5 10.5t-33 7 q-6 1 -9 2v26h220v-26q-56 -10 -69 -20q-21 -16 -21 -59v-281q0 -256 -249 -256zM323 714q22 85 69 151q24 0 50.5 -19.5t34.5 -43.5q-63 -42 -124 -107z" glyph-name="Uacute" horiz-adv-x="719" unicode="Ú"/><glyph d="M360 -12q-49 0 -90 10.5t-81 37.5t-63 82t-23 134v273q0 23 -3.5 37t-17.5 22.5t-20.5 10.5t-33.5 7q-5 1 -8 2v26h299v-26q-51 -10 -64 -20q-19 -16 -19 -59v-288q0 -204 159 -204q29 0 55 7t53.5 26t44 59.5t16.5 98.5v301q0 23 -4 37t-17.5 22.5t-21.5 10.5t-33 7 q-6 1 -9 2v26h220v-26q-56 -10 -69 -20q-21 -16 -21 -59v-281q0 -256 -249 -256zM214 728l141 150l141 -151l-14 -15l-127 85l-127 -85z" glyph-name="Ucircumflex" horiz-adv-x="719" unicode="Û"/><glyph d="M360 -12q-49 0 -90 10.5t-81 37.5t-63 82t-23 134v273q0 23 -3.5 37t-17.5 22.5t-20.5 10.5t-33.5 7q-5 1 -8 2v26h299v-26q-51 -10 -64 -20q-19 -16 -19 -59v-288q0 -204 159 -204q29 0 55 7t53.5 26t44 59.5t16.5 98.5v301q0 23 -4 37t-17.5 22.5t-21.5 10.5t-33 7 q-6 1 -9 2v26h220v-26q-56 -10 -69 -20q-21 -16 -21 -59v-281q0 -256 -249 -256zM193 791q0 25 18 42.5t43 17.5t42.5 -17.5t17.5 -42.5t-17.5 -43t-42.5 -18q-26 0 -43.5 18t-17.5 43zM404 791q0 25 18 42.5t43 17.5t42.5 -17.5t17.5 -42.5t-17.5 -43t-42.5 -18t-43 18 t-18 43z" glyph-name="Udieresis" horiz-adv-x="719" unicode="Ü"/><glyph d="M92 542q-24 37 -36 45.5t-51 16.5v26h293v-26q-6 -1 -18 -3.5t-17.5 -4t-14 -4.5t-11 -7t-4.5 -9.5t1 -14t10 -19.5l140 -224l138 224q10 17 11.5 27.5t-9 16.5t-19 8.5t-31.5 6.5q-11 2 -16 3v26h201v-26q-39 -8 -51.5 -16.5t-36.5 -45.5l-167 -266v-175q0 -25 4.5 -39 t20.5 -22t26 -10.5t42 -7.5v-22h-318v22q59 10 73 21q20 15 20 58v160zM296 714q22 85 69 151q24 0 50.5 -19.5t34.5 -43.5q-63 -42 -124 -107z" glyph-name="Yacute" horiz-adv-x="664" unicode="Ý"/><glyph d="M20 26q51 10 64 20q19 16 19 59v420q0 23 -3.5 37t-17.5 22.5t-20.5 10.5t-33.5 7q-5 1 -8 2v26h298v-26q-51 -10 -64 -20q-19 -16 -19 -59v-15q56 -1 100.5 -6t89.5 -18.5t75 -34.5t48.5 -56t18.5 -81t-18.5 -81t-48.5 -56t-75 -34.5t-89.5 -18.5t-100.5 -6v-13 q0 -23 3.5 -37t17.5 -22.5t20.5 -10.5t33.5 -7q5 -1 8 -2v-26h-298v26zM235 158q104 4 147 41.5t43 114.5t-43 114.5t-147 41.5v-312z" glyph-name="Thorn" horiz-adv-x="602" unicode="Þ"/><glyph d="M324 -13q-35 0 -59 15t-24 40q0 21 15 32.5t34 11.5q20 0 58.5 -28t52.5 -28q18 0 35 23t17 49q0 35 -53 88l-110 110q46 50 69 90.5t23 92.5q0 49 -21.5 82.5t-65.5 33.5q-82 0 -82 -143v-456h-193v26q22 4 31.5 6.5t21.5 8.5t16 16t4 26v371q0 87 56.5 135t150.5 48 q90 0 141.5 -40.5t50.5 -103.5q-1 -72 -86 -138l92 -92q66 -66 66 -121q0 -44 -44.5 -81t-99 -55.5t-96.5 -18.5z" glyph-name="germandbls" horiz-adv-x="589" unicode="ß"/><glyph d="M405 -7q-33 0 -58 24.5t-27 55.5q-78 -80 -171 -80q-53 0 -88.5 27.5t-35.5 78.5q0 26 11 46t25 33t45 26.5t52.5 20t66.5 19.5q4 1 15.5 4t15.5 4.5t13.5 4.5t13.5 4.5t11 5t11 7t8 8t7 9.5v17q0 58 -24.5 79t-79.5 21q-24 0 -35 -27q-20 -54 -37.5 -75t-41.5 -21 q-21 0 -33.5 12t-12.5 31q0 50 81.5 85.5t158.5 35.5q144 0 144 -153v-201q0 -24 22 -28.5t53 13.5v-26q-53 -45 -110 -61zM142 612q8 24 34.5 43.5t50.5 19.5q47 -66 69 -151l-30 -19q-61 65 -124 107zM148 125q0 -32 19 -51.5t49 -19.5q56 0 104 61v120l-86 -24 q-86 -25 -86 -86z" glyph-name="agrave" horiz-adv-x="525" unicode="à"/><glyph d="M405 -7q-33 0 -58 24.5t-27 55.5q-78 -80 -171 -80q-53 0 -88.5 27.5t-35.5 78.5q0 26 11 46t25 33t45 26.5t52.5 20t66.5 19.5q4 1 15.5 4t15.5 4.5t13.5 4.5t13.5 4.5t11 5t11 7t8 8t7 9.5v17q0 58 -24.5 79t-79.5 21q-24 0 -35 -27q-20 -54 -37.5 -75t-41.5 -21 q-21 0 -33.5 12t-12.5 31q0 50 81.5 85.5t158.5 35.5q144 0 144 -153v-201q0 -24 22 -28.5t53 13.5v-26q-53 -45 -110 -61zM148 125q0 -32 19 -51.5t49 -19.5q56 0 104 61v120l-86 -24q-86 -25 -86 -86zM219 524q22 85 69 151q24 0 50.5 -19.5t34.5 -43.5q-63 -42 -124 -107 z" glyph-name="aacute" horiz-adv-x="525" unicode="á"/><glyph d="M405 -7q-33 0 -58 24.5t-27 55.5q-78 -80 -171 -80q-53 0 -88.5 27.5t-35.5 78.5q0 26 11 46t25 33t45 26.5t52.5 20t66.5 19.5q4 1 15.5 4t15.5 4.5t13.5 4.5t13.5 4.5t11 5t11 7t8 8t7 9.5v17q0 58 -24.5 79t-79.5 21q-24 0 -35 -27q-20 -54 -37.5 -75t-41.5 -21 q-21 0 -33.5 12t-12.5 31q0 50 81.5 85.5t158.5 35.5q144 0 144 -153v-201q0 -24 22 -28.5t53 13.5v-26q-53 -45 -110 -61zM110 538l141 150l141 -151l-14 -15l-127 85l-127 -85zM148 125q0 -32 19 -51.5t49 -19.5q56 0 104 61v120l-86 -24q-86 -25 -86 -86z" glyph-name="acircumflex" horiz-adv-x="525" unicode="â"/><glyph d="M405 -7q-33 0 -58 24.5t-27 55.5q-78 -80 -171 -80q-53 0 -88.5 27.5t-35.5 78.5q0 26 11 46t25 33t45 26.5t52.5 20t66.5 19.5q4 1 15.5 4t15.5 4.5t13.5 4.5t13.5 4.5t11 5t11 7t8 8t7 9.5v17q0 58 -24.5 79t-79.5 21q-24 0 -35 -27q-20 -54 -37.5 -75t-41.5 -21 q-21 0 -33.5 12t-12.5 31q0 50 81.5 85.5t158.5 35.5q144 0 144 -153v-201q0 -24 22 -28.5t53 13.5v-26q-53 -45 -110 -61zM90 528q-8 47 22 77t75 30q37 0 78 -33t71 -33q22 0 36.5 14.5t14.5 28.5h23q8 -46 -22.5 -76.5t-75.5 -30.5q-37 0 -77.5 33t-70.5 33 q-22 0 -36.5 -14.5t-14.5 -28.5h-23zM148 125q0 -32 19 -51.5t49 -19.5q56 0 104 61v120l-86 -24q-86 -25 -86 -86z" glyph-name="atilde" horiz-adv-x="525" unicode="ã"/><glyph d="M405 -7q-33 0 -58 24.5t-27 55.5q-78 -80 -171 -80q-53 0 -88.5 27.5t-35.5 78.5q0 26 11 46t25 33t45 26.5t52.5 20t66.5 19.5q4 1 15.5 4t15.5 4.5t13.5 4.5t13.5 4.5t11 5t11 7t8 8t7 9.5v17q0 58 -24.5 79t-79.5 21q-24 0 -35 -27q-20 -54 -37.5 -75t-41.5 -21 q-21 0 -33.5 12t-12.5 31q0 50 81.5 85.5t158.5 35.5q144 0 144 -153v-201q0 -24 22 -28.5t53 13.5v-26q-53 -45 -110 -61zM89 601q0 25 18 42.5t43 17.5t42.5 -17.5t17.5 -42.5t-17.5 -43t-42.5 -18q-26 0 -43.5 18t-17.5 43zM148 125q0 -32 19 -51.5t49 -19.5q56 0 104 61 v120l-86 -24q-86 -25 -86 -86zM300 601q0 25 18 42.5t43 17.5t42.5 -17.5t17.5 -42.5t-17.5 -43t-42.5 -18t-43 18t-18 43z" glyph-name="adieresis" horiz-adv-x="525" unicode="ä"/><glyph d="M405 -7q-33 0 -58 24.5t-27 55.5q-78 -80 -171 -80q-53 0 -88.5 27.5t-35.5 78.5q0 26 11 46t25 33t45 26.5t52.5 20t66.5 19.5q4 1 15.5 4t15.5 4.5t13.5 4.5t13.5 4.5t11 5t11 7t8 8t7 9.5v17q0 58 -24.5 79t-79.5 21q-24 0 -35 -27q-20 -54 -37.5 -75t-41.5 -21 q-21 0 -33.5 12t-12.5 31q0 50 81.5 85.5t158.5 35.5q144 0 144 -153v-201q0 -24 22 -28.5t53 13.5v-26q-53 -45 -110 -61zM148 125q0 -32 19 -51.5t49 -19.5q56 0 104 61v120l-86 -24q-86 -25 -86 -86zM160 611q0 39 27.5 66t67.5 27t67.5 -27t27.5 -66t-27.5 -66 t-67.5 -27t-67.5 27t-27.5 66zM212 611q0 -18 12 -30t31 -12t31 12t12 30t-12 30t-31 12t-31 -12t-12 -30z" glyph-name="aring" horiz-adv-x="525" unicode="å"/><glyph d="M149 -7q-53 0 -88.5 27.5t-35.5 78.5q0 26 11 46t25 33t45 26.5t52.5 20t66.5 19.5q31 9 46.5 14.5t32 19t16.5 30.5q0 58 -24.5 79t-79.5 21q-26 0 -36 -27q-21 -55 -38 -76t-42 -21q-19 0 -31.5 12.5t-12.5 31.5q0 50 81.5 85.5t158.5 35.5q76 0 111 -46q61 46 144 46 q107 0 160 -70.5t23 -143.5h-294q8 -78 53 -125t115 -47q79 0 113 48l19 -14q-19 -49 -69 -76.5t-118 -27.5t-122.5 29t-83.5 81q-94 -110 -198 -110zM148 125q0 -32 19 -51.5t49 -19.5q33 0 64 22.5t52 56.5q-14 40 -14 85q0 12 1 18l-85 -25q-86 -25 -86 -86zM439 272h183 q9 54 -12.5 97t-69.5 43q-42 0 -70.5 -36t-30.5 -104z" glyph-name="ae" horiz-adv-x="779" unicode="æ"/><glyph d="M269 -9h-3l-18 -35q43 0 76.5 -22t33.5 -60q0 -86 -168 -86l5 26q46 0 67.5 13t21.5 32q0 43 -112 43l47 93q-85 14 -137 73t-52 149q0 107 70 169.5t177 62.5q79 0 126 -33t47 -77q0 -23 -14 -36.5t-37 -13.5q-26 0 -41.5 18t-26.5 58q-7 27 -20 38t-35 11 q-52 0 -87 -41.5t-35 -116.5q0 -84 45.5 -138t120.5 -54q34 0 65.5 11.5t47.5 33.5l19 -14q-18 -50 -66.5 -77t-116.5 -27z" glyph-name="ccedilla" horiz-adv-x="482" unicode="ç"/><glyph d="M265 -7q-102 0 -168.5 61.5t-66.5 163.5q0 104 67.5 167.5t165.5 63.5q107 0 160 -70.5t23 -143.5h-294q8 -78 53 -125t115 -47q79 0 113 48l19 -14q-19 -49 -69 -76.5t-118 -27.5zM132 612q8 24 34.5 43.5t50.5 19.5q47 -66 69 -151l-30 -19q-61 65 -124 107zM151 272 h183q9 54 -12.5 97t-69.5 43q-42 0 -70.5 -36t-30.5 -104z" glyph-name="egrave" horiz-adv-x="491" unicode="è"/><glyph d="M265 -7q-102 0 -168.5 61.5t-66.5 163.5q0 104 67.5 167.5t165.5 63.5q107 0 160 -70.5t23 -143.5h-294q8 -78 53 -125t115 -47q79 0 113 48l19 -14q-19 -49 -69 -76.5t-118 -27.5zM151 272h183q9 54 -12.5 97t-69.5 43q-42 0 -70.5 -36t-30.5 -104zM209 524 q22 85 69 151q24 0 50.5 -19.5t34.5 -43.5q-63 -42 -124 -107z" glyph-name="eacute" horiz-adv-x="491" unicode="é"/><glyph d="M265 -7q-102 0 -168.5 61.5t-66.5 163.5q0 104 67.5 167.5t165.5 63.5q107 0 160 -70.5t23 -143.5h-294q8 -78 53 -125t115 -47q79 0 113 48l19 -14q-19 -49 -69 -76.5t-118 -27.5zM100 538l141 150l141 -151l-14 -15l-127 85l-127 -85zM151 272h183q9 54 -12.5 97 t-69.5 43q-42 0 -70.5 -36t-30.5 -104z" glyph-name="ecircumflex" horiz-adv-x="491" unicode="ê"/><glyph d="M265 -7q-102 0 -168.5 61.5t-66.5 163.5q0 104 67.5 167.5t165.5 63.5q107 0 160 -70.5t23 -143.5h-294q8 -78 53 -125t115 -47q79 0 113 48l19 -14q-19 -49 -69 -76.5t-118 -27.5zM79 601q0 25 18 42.5t43 17.5t42.5 -17.5t17.5 -42.5t-17.5 -43t-42.5 -18 q-26 0 -43.5 18t-17.5 43zM151 272h183q9 54 -12.5 97t-69.5 43q-42 0 -70.5 -36t-30.5 -104zM290 601q0 25 18 42.5t43 17.5t42.5 -17.5t17.5 -42.5t-17.5 -43t-42.5 -18t-43 18t-18 43z" glyph-name="edieresis" horiz-adv-x="491" unicode="ë"/><glyph d="M20 26q20 4 29 6t19.5 8t14 16t3.5 26v229q0 30 -12.5 44t-53.5 19v24q104 18 165 58l21 -19v-355q0 -16 3.5 -26t14 -16t19.5 -8t29 -6v-26h-252v26zM28 612q8 24 34.5 43.5t50.5 19.5q47 -66 69 -151l-30 -19q-61 65 -124 107z" glyph-name="igrave" horiz-adv-x="292" unicode="ì"/><glyph d="M20 26q20 4 29 6t19.5 8t14 16t3.5 26v229q0 30 -12.5 44t-53.5 19v24q104 18 165 58l21 -19v-355q0 -16 3.5 -26t14 -16t19.5 -8t29 -6v-26h-252v26zM105 524q22 85 69 151q24 0 50.5 -19.5t34.5 -43.5q-63 -42 -124 -107z" glyph-name="iacute" horiz-adv-x="292" unicode="í"/><glyph d="M20 26q20 4 29 6t19.5 8t14 16t3.5 26v229q0 30 -12.5 44t-53.5 19v24q104 18 165 58l21 -19v-355q0 -16 3.5 -26t14 -16t19.5 -8t29 -6v-26h-252v26zM-4 538l141 150l141 -151l-14 -15l-127 85l-127 -85z" glyph-name="icircumflex" horiz-adv-x="292" unicode="î"/><glyph d="M20 26q20 4 29 6t19.5 8t14 16t3.5 26v229q0 30 -12.5 44t-53.5 19v24q104 18 165 58l21 -19v-355q0 -16 3.5 -26t14 -16t19.5 -8t29 -6v-26h-252v26zM-25 601q0 25 18 42.5t43 17.5t42.5 -17.5t17.5 -42.5t-17.5 -43t-42.5 -18q-26 0 -43.5 18t-17.5 43zM186 601 q0 25 18 42.5t43 17.5t42.5 -17.5t17.5 -42.5t-17.5 -43t-42.5 -18t-43 18t-18 43z" glyph-name="idieresis" horiz-adv-x="292" unicode="ï"/><glyph d="M262 -9q-100 0 -166 61.5t-66 164.5q0 106 70.5 169t172.5 63q34 0 62 -7q-21 40 -54 75q-89 -30 -166 -61v49q82 24 134 41q-65 51 -147 59l17 32q104 -6 201 -68q101 36 167 62v-49q-65 -18 -129 -39q67 -53 107 -126.5t40 -159.5q0 -131 -61.5 -198.5t-181.5 -67.5z M157 241q0 -55 12 -102t40 -79.5t67 -32.5q46 0 74 44t28 127q0 88 -30.5 151.5t-88.5 63.5q-45 0 -73.5 -44.5t-28.5 -127.5z" glyph-name="eth" horiz-adv-x="545" unicode="ð"/><glyph d="M15 26q20 4 29 6t19.5 8t14 16t3.5 26v229q0 30 -12.5 44t-53.5 19v24q101 15 170 58l20 -19l-31 -84h22q39 46 78.5 71t92.5 25q127 0 127 -154v-213q0 -16 3.5 -26t14 -16t19.5 -8t29 -6v-26h-245v26q18 4 25 6t17 8t13.5 16t3.5 26v203q0 92 -68 92q-59 0 -105 -58 v-237q0 -16 3.5 -26t13.5 -16t17 -8t25 -6v-26h-245v26zM120 528q-8 47 22 77t75 30q37 0 78 -33t71 -33q22 0 36.5 14.5t14.5 28.5h23q8 -46 -22.5 -76.5t-75.5 -30.5q-37 0 -77.5 33t-70.5 33q-22 0 -36.5 -14.5t-14.5 -28.5h-23z" glyph-name="ntilde" horiz-adv-x="575" unicode="ñ"/><glyph d="M264 -9q-100 0 -167 61.5t-67 164.5q0 106 71.5 169t173.5 63q100 0 167 -61.5t67 -164.5q0 -106 -71.5 -169t-173.5 -63zM157 241q0 -86 31.5 -150t89.5 -64q46 0 75 44.5t29 127.5q0 86 -31.5 150t-89.5 64q-46 0 -75 -44.5t-29 -127.5zM157 612q8 24 34.5 43.5 t50.5 19.5q47 -66 69 -151l-30 -19q-61 65 -124 107z" glyph-name="ograve" horiz-adv-x="539" unicode="ò"/><glyph d="M264 -9q-100 0 -167 61.5t-67 164.5q0 106 71.5 169t173.5 63q100 0 167 -61.5t67 -164.5q0 -106 -71.5 -169t-173.5 -63zM157 241q0 -86 31.5 -150t89.5 -64q46 0 75 44.5t29 127.5q0 86 -31.5 150t-89.5 64q-46 0 -75 -44.5t-29 -127.5zM234 524q22 85 69 151 q24 0 50.5 -19.5t34.5 -43.5q-63 -42 -124 -107z" glyph-name="oacute" horiz-adv-x="539" unicode="ó"/><glyph d="M264 -9q-100 0 -167 61.5t-67 164.5q0 106 71.5 169t173.5 63q100 0 167 -61.5t67 -164.5q0 -106 -71.5 -169t-173.5 -63zM125 538l141 150l141 -151l-14 -15l-127 85l-127 -85zM157 241q0 -86 31.5 -150t89.5 -64q46 0 75 44.5t29 127.5q0 86 -31.5 150t-89.5 64 q-46 0 -75 -44.5t-29 -127.5z" glyph-name="ocircumflex" horiz-adv-x="539" unicode="ô"/><glyph d="M264 -9q-100 0 -167 61.5t-67 164.5q0 106 71.5 169t173.5 63q100 0 167 -61.5t67 -164.5q0 -106 -71.5 -169t-173.5 -63zM105 528q-8 47 22.5 77t74.5 30q37 0 78 -33t71 -33q22 0 36.5 14.5t14.5 28.5h23q8 -46 -22.5 -76.5t-75.5 -30.5q-37 0 -77.5 33t-70.5 33 q-22 0 -36.5 -14.5t-14.5 -28.5h-23zM157 241q0 -86 31.5 -150t89.5 -64q46 0 75 44.5t29 127.5q0 86 -31.5 150t-89.5 64q-46 0 -75 -44.5t-29 -127.5z" glyph-name="otilde" horiz-adv-x="539" unicode="õ"/><glyph d="M264 -9q-100 0 -167 61.5t-67 164.5q0 106 71.5 169t173.5 63q100 0 167 -61.5t67 -164.5q0 -106 -71.5 -169t-173.5 -63zM104 601q0 25 18 42.5t43 17.5t42.5 -17.5t17.5 -42.5t-17.5 -43t-42.5 -18t-43 18t-18 43zM157 241q0 -86 31.5 -150t89.5 -64q46 0 75 44.5 t29 127.5q0 86 -31.5 150t-89.5 64q-46 0 -75 -44.5t-29 -127.5zM315 601q0 25 18 42.5t43 17.5t42.5 -17.5t17.5 -42.5t-17.5 -43t-42.5 -18q-26 0 -43.5 18t-17.5 43z" glyph-name="odieresis" horiz-adv-x="539" unicode="ö"/><glyph d="M249 347q-24 0 -41 17t-17 41q0 23 17 40t41 17q23 0 40 -17t17 -40q0 -24 -17 -41t-40 -17zM62 212v79h370v-79h-370zM191 99q0 23 17 40t41 17q23 0 40 -17t17 -40q0 -24 -17 -41t-40 -17q-24 0 -41 17t-17 41z" glyph-name="divide" horiz-adv-x="494" unicode="÷"/><glyph d="M117 -49l-20 13l38 60q-105 63 -105 193q0 106 71.5 169t173.5 63q61 0 111 -24l40 65l20 -13l-39 -63q102 -62 102 -191q0 -106 -71.5 -169t-173.5 -63q-58 0 -108 22zM157 241q0 -79 26 -139l161 258q-31 53 -83 53q-46 0 -75 -44.5t-29 -127.5zM196 78q33 -51 82 -51 q46 0 75 44.5t29 127.5q0 79 -25 136z" glyph-name="oslash" horiz-adv-x="539" unicode="ø"/><glyph d="M208 -7q-132 0 -132 152v224q0 18 -8.5 27.5t-19 12.5t-33.5 7v24q115 -6 181 6v-296q0 -87 73 -87q51 0 100 50v256q0 18 -8.5 27.5t-19 12.5t-33.5 7v24q115 -6 181 6v-354q0 -30 12.5 -44.5t53.5 -21.5v-26h-171l6 79h-15q-38 -41 -76.5 -63.5t-90.5 -22.5zM172 612 q8 24 34.5 43.5t50.5 19.5q47 -66 69 -151l-30 -19q-61 65 -124 107z" glyph-name="ugrave" horiz-adv-x="570" unicode="ù"/><glyph d="M208 -7q-132 0 -132 152v224q0 18 -8.5 27.5t-19 12.5t-33.5 7v24q115 -6 181 6v-296q0 -87 73 -87q51 0 100 50v256q0 18 -8.5 27.5t-19 12.5t-33.5 7v24q115 -6 181 6v-354q0 -30 12.5 -44.5t53.5 -21.5v-26h-171l6 79h-15q-38 -41 -76.5 -63.5t-90.5 -22.5zM249 524 q22 85 69 151q24 0 50.5 -19.5t34.5 -43.5q-63 -42 -124 -107z" glyph-name="uacute" horiz-adv-x="570" unicode="ú"/><glyph d="M208 -7q-132 0 -132 152v224q0 18 -8.5 27.5t-19 12.5t-33.5 7v24q115 -6 181 6v-296q0 -87 73 -87q51 0 100 50v256q0 18 -8.5 27.5t-19 12.5t-33.5 7v24q115 -6 181 6v-354q0 -30 12.5 -44.5t53.5 -21.5v-26h-171l6 79h-15q-38 -41 -76.5 -63.5t-90.5 -22.5zM140 538 l141 150l141 -151l-14 -15l-127 85l-127 -85z" glyph-name="ucircumflex" horiz-adv-x="570" unicode="û"/><glyph d="M208 -7q-132 0 -132 152v224q0 18 -8.5 27.5t-19 12.5t-33.5 7v24q115 -6 181 6v-296q0 -87 73 -87q51 0 100 50v256q0 18 -8.5 27.5t-19 12.5t-33.5 7v24q115 -6 181 6v-354q0 -30 12.5 -44.5t53.5 -21.5v-26h-171l6 79h-15q-38 -41 -76.5 -63.5t-90.5 -22.5zM119 601 q0 25 18 42.5t43 17.5t42.5 -17.5t17.5 -42.5t-17.5 -43t-42.5 -18q-26 0 -43.5 18t-17.5 43zM330 601q0 25 18 42.5t43 17.5t42.5 -17.5t17.5 -42.5t-17.5 -43t-42.5 -18t-43 18t-18 43z" glyph-name="udieresis" horiz-adv-x="570" unicode="ü"/><glyph d="M124 -183q-34 0 -68 23v73q69 -12 112.5 -1t63.5 56l6 15l-167 384q-13 28 -25 35.5t-46 11.5v26h248v-26q-45 -7 -53 -18q-7 -10 1 -29l103 -243l105 244q4 9 4.5 15.5t-3 11t-7 7.5t-12.5 5.5t-13.5 3t-16.5 2.5q-5 1 -7 1v26h166v-26q-34 -4 -46 -11t-24 -35 l-172 -400q-64 -151 -149 -151zM224 524q22 85 69 151q24 0 50.5 -19.5t34.5 -43.5q-63 -42 -124 -107z" glyph-name="yacute" horiz-adv-x="515" unicode="ý"/><glyph d="M274 -9q-46 0 -85 11v-94q0 -17 4 -27t17.5 -16t22.5 -8t36 -6v-26h-267v26q19 4 23.5 5t17 5t15.5 9t6.5 14.5t3.5 23.5v622q0 30 -13.5 44t-59.5 19v24q100 14 174 57l20 -19v-304q24 42 65 70t91 28q74 0 128.5 -58.5t54.5 -157.5q0 -112 -72.5 -177t-181.5 -65z M189 147q0 -46 23 -82.5t73 -36.5q54 0 85.5 46t31.5 128q0 78 -30 128.5t-82 50.5q-63 0 -101 -70v-164z" glyph-name="thorn" horiz-adv-x="558" unicode="þ"/><glyph d="M124 -183q-34 0 -68 23v73q69 -12 112.5 -1t63.5 56l6 15l-167 384q-13 28 -25 35.5t-46 11.5v26h248v-26q-45 -7 -53 -18q-7 -10 1 -29l103 -243l105 244q4 9 4.5 15.5t-3 11t-7 7.5t-12.5 5.5t-13.5 3t-16.5 2.5q-5 1 -7 1v26h166v-26q-34 -4 -46 -11t-24 -35 l-172 -400q-64 -151 -149 -151zM94 601q0 25 18 42.5t43 17.5t42.5 -17.5t17.5 -42.5t-17.5 -43t-42.5 -18t-43 18t-18 43zM305 601q0 25 18 42.5t43 17.5t42.5 -17.5t17.5 -42.5t-17.5 -43t-42.5 -18q-26 0 -43.5 18t-17.5 43z" glyph-name="ydieresis" horiz-adv-x="515" unicode="ÿ"/><glyph d="M0 26q41 7 55 16.5t28 41.5l238 553h43l241 -554q14 -32 28 -41t55 -16v-26h-288v26q50 10 60 19q13 13 2 38l-45 104h-244l-44 -104q-15 -18 -3 -30.5t20.5 -16t34.5 -8.5q6 -1 9 -2v-26h-190v26zM189 225h211l-107 247zM195 742l15 45h280l-15 -45h-280z" glyph-name="Amacron" horiz-adv-x="688" unicode="Ā"/><glyph d="M405 -7q-33 0 -58 24.5t-27 55.5q-78 -80 -171 -80q-53 0 -88.5 27.5t-35.5 78.5q0 26 11 46t25 33t45 26.5t52.5 20t66.5 19.5q4 1 15.5 4t15.5 4.5t13.5 4.5t13.5 4.5t11 5t11 7t8 8t7 9.5v17q0 58 -24.5 79t-79.5 21q-24 0 -35 -27q-20 -54 -37.5 -75t-41.5 -21 q-21 0 -33.5 12t-12.5 31q0 50 81.5 85.5t158.5 35.5q144 0 144 -153v-201q0 -24 22 -28.5t53 13.5v-26q-53 -45 -110 -61zM108 552l15 45h280l-15 -45h-280zM148 125q0 -32 19 -51.5t49 -19.5q56 0 104 61v120l-86 -24q-86 -25 -86 -86z" glyph-name="amacron" horiz-adv-x="525" unicode="ā"/><glyph d="M0 26q41 7 55 16.5t28 41.5l238 553h43l241 -554q14 -32 28 -41t55 -16v-26h-288v26q50 10 60 19q13 13 2 38l-45 104h-244l-44 -104q-15 -18 -3 -30.5t20.5 -16t34.5 -8.5q6 -1 9 -2v-26h-190v26zM189 225h211l-107 247zM193 869h28q15 -67 121 -67t121 67h28 q0 -65 -40.5 -102.5t-108.5 -37.5t-108.5 37.5t-40.5 102.5z" glyph-name="Abreve" horiz-adv-x="688" unicode="Ă"/><glyph d="M405 -7q-33 0 -58 24.5t-27 55.5q-78 -80 -171 -80q-53 0 -88.5 27.5t-35.5 78.5q0 26 11 46t25 33t45 26.5t52.5 20t66.5 19.5q4 1 15.5 4t15.5 4.5t13.5 4.5t13.5 4.5t11 5t11 7t8 8t7 9.5v17q0 58 -24.5 79t-79.5 21q-24 0 -35 -27q-20 -54 -37.5 -75t-41.5 -21 q-21 0 -33.5 12t-12.5 31q0 50 81.5 85.5t158.5 35.5q144 0 144 -153v-201q0 -24 22 -28.5t53 13.5v-26q-53 -45 -110 -61zM106 679h28q15 -67 121 -67t121 67h28q0 -65 -40.5 -102.5t-108.5 -37.5t-108.5 37.5t-40.5 102.5zM148 125q0 -32 19 -51.5t49 -19.5q56 0 104 61 v120l-86 -24q-86 -25 -86 -86z" glyph-name="abreve" horiz-adv-x="525" unicode="ă"/><glyph d="M0 26q41 7 55 16.5t28 41.5l238 553h43l241 -554q14 -32 28 -41t55 -16v-26h-143q-43 -25 -61.5 -46.5t-18.5 -48.5q0 -26 14.5 -42t39.5 -16q17 0 38 8v-20q-36 -34 -89 -34q-42 0 -69.5 20.5t-27.5 64.5q0 33 20 59l82 55h-73v26q50 10 60 19q13 13 2 38l-45 104h-244 l-44 -104q-15 -18 -3 -30.5t20.5 -16t34.5 -8.5q6 -1 9 -2v-26h-190v26zM189 225h211l-107 247z" glyph-name="Aogonek" horiz-adv-x="688" unicode="Ą"/><glyph d="M387 -183q-42 0 -69.5 20.5t-27.5 64.5q0 33 20 59l60 40q-21 11 -35 30.5t-15 41.5q-78 -80 -171 -80q-53 0 -88.5 27.5t-35.5 78.5q0 26 11 46t25 33t45 26.5t52.5 20t66.5 19.5q4 1 15.5 4t15.5 4.5t13.5 4.5t13.5 4.5t11 5t11 7t8 8t7 9.5v17q0 58 -24.5 79t-79.5 21 q-24 0 -35 -27q-20 -54 -37.5 -75t-41.5 -21q-21 0 -33.5 12t-12.5 31q0 50 81.5 85.5t158.5 35.5q144 0 144 -153v-201q0 -24 22 -28.5t53 13.5v-26q-27 -23 -51 -37v-1q-43 -25 -61.5 -46.5t-18.5 -48.5q0 -26 14.5 -42t39.5 -16q17 0 38 8v-20q-36 -34 -89 -34zM148 125 q0 -32 19 -51.5t49 -19.5q56 0 104 61v120l-86 -24q-86 -25 -86 -86z" glyph-name="aogonek" horiz-adv-x="525" unicode="ą"/><glyph d="M382 -12q-153 0 -247.5 92.5t-94.5 234.5q0 144 98.5 237.5t255.5 93.5q119 0 196 -46q0 -64 7 -135h-41q-32 141 -173 141q-99 0 -150 -69t-51 -183q0 -137 72 -224.5t187 -87.5q101 0 153 53l23 -24q-32 -35 -94.5 -59t-140.5 -24zM330 714q22 85 69 151 q24 0 50.5 -19.5t34.5 -43.5q-63 -42 -124 -107z" glyph-name="Cacute" horiz-adv-x="657" unicode="Ć"/><glyph d="M269 -9q-105 0 -172 61.5t-67 164.5q0 107 70 169.5t177 62.5q79 0 126 -33t47 -77q0 -23 -14 -36.5t-37 -13.5q-26 0 -41.5 18t-26.5 58q-7 27 -20 38t-35 11q-52 0 -87 -41.5t-35 -116.5q0 -84 45.5 -138t120.5 -54q34 0 65.5 11.5t47.5 33.5l19 -14q-18 -50 -66.5 -77 t-116.5 -27zM218 524q22 85 69 151q24 0 50.5 -19.5t34.5 -43.5q-63 -42 -124 -107z" glyph-name="cacute" horiz-adv-x="482" unicode="ć"/><glyph d="M382 -12q-153 0 -247.5 92.5t-94.5 234.5q0 144 98.5 237.5t255.5 93.5q119 0 196 -46q0 -64 7 -135h-41q-32 141 -173 141q-99 0 -150 -69t-51 -183q0 -137 72 -224.5t187 -87.5q101 0 153 53l23 -24q-32 -35 -94.5 -59t-140.5 -24zM225 728l141 150l141 -151l-14 -15 l-127 85l-127 -85z" glyph-name="Ccircumflex" horiz-adv-x="657" unicode="Ĉ"/><glyph d="M269 -9q-105 0 -172 61.5t-67 164.5q0 107 70 169.5t177 62.5q79 0 126 -33t47 -77q0 -23 -14 -36.5t-37 -13.5q-26 0 -41.5 18t-26.5 58q-7 27 -20 38t-35 11q-52 0 -87 -41.5t-35 -116.5q0 -84 45.5 -138t120.5 -54q34 0 65.5 11.5t47.5 33.5l19 -14q-18 -50 -66.5 -77 t-116.5 -27zM113 538l141 150l141 -151l-14 -15l-127 85l-127 -85z" glyph-name="ccircumflex" horiz-adv-x="482" unicode="ĉ"/><glyph d="M382 -12q-153 0 -247.5 92.5t-94.5 234.5q0 144 98.5 237.5t255.5 93.5q119 0 196 -46q0 -64 7 -135h-41q-32 141 -173 141q-99 0 -150 -69t-51 -183q0 -137 72 -224.5t187 -87.5q101 0 153 53l23 -24q-32 -35 -94.5 -59t-140.5 -24zM293 781q0 29 21.5 49.5t51.5 20.5 t51.5 -20.5t21.5 -49.5t-22 -50t-51 -21t-51 21t-22 50z" glyph-name="Cdotaccent" horiz-adv-x="657" unicode="Ċ"/><glyph d="M269 -9q-105 0 -172 61.5t-67 164.5q0 107 70 169.5t177 62.5q79 0 126 -33t47 -77q0 -23 -14 -36.5t-37 -13.5q-26 0 -41.5 18t-26.5 58q-7 27 -20 38t-35 11q-52 0 -87 -41.5t-35 -116.5q0 -84 45.5 -138t120.5 -54q34 0 65.5 11.5t47.5 33.5l19 -14q-18 -50 -66.5 -77 t-116.5 -27zM181 591q0 29 21.5 49.5t51.5 20.5t51.5 -20.5t21.5 -49.5t-22 -50t-51 -21t-51 21t-22 50z" glyph-name="cdotaccent" horiz-adv-x="482" unicode="ċ"/><glyph d="M382 -12q-153 0 -247.5 92.5t-94.5 234.5q0 144 98.5 237.5t255.5 93.5q119 0 196 -46q0 -64 7 -135h-41q-32 141 -173 141q-99 0 -150 -69t-51 -183q0 -137 72 -224.5t187 -87.5q101 0 153 53l23 -24q-32 -35 -94.5 -59t-140.5 -24zM223 861l14 16l127 -85l127 85 l14 -15l-141 -151z" glyph-name="Ccaron" horiz-adv-x="657" unicode="Č"/><glyph d="M269 -9q-105 0 -172 61.5t-67 164.5q0 107 70 169.5t177 62.5q79 0 126 -33t47 -77q0 -23 -14 -36.5t-37 -13.5q-26 0 -41.5 18t-26.5 58q-7 27 -20 38t-35 11q-52 0 -87 -41.5t-35 -116.5q0 -84 45.5 -138t120.5 -54q34 0 65.5 11.5t47.5 33.5l19 -14q-18 -50 -66.5 -77 t-116.5 -27zM111 671l14 16l127 -85l127 85l14 -15l-141 -151z" glyph-name="ccaron" horiz-adv-x="482" unicode="č"/><glyph d="M20 26q51 10 64 20q19 16 19 59v420q0 23 -3.5 37t-17.5 22.5t-20.5 10.5t-33.5 7q-5 1 -8 2v26h284q70 0 133.5 -18t117 -53.5t85 -97.5t31.5 -142q0 -82 -31 -145.5t-84 -100t-116.5 -55t-135.5 -18.5h-284v26zM213 861l14 16l127 -85l127 85l14 -15l-141 -151z M235 135q0 -53 20.5 -74.5t76.5 -21.5q97 0 147 71t50 199q0 130 -57.5 206t-177.5 76h-59v-456z" glyph-name="Dcaron" horiz-adv-x="711" unicode="Ď"/><glyph d="M571 495q-11 90 -38 160q21 14 53 14.5t53 -13.5q0 -81 -33 -163zM30 203q0 112 73.5 179t172.5 67q59 0 99 -25v119q0 29 -16 43.5t-59 19.5v24q101 14 175 57l20 -19v-576q0 -30 12.5 -44.5t53.5 -21.5v-26h-177l8 91l-15 5q-24 -45 -64.5 -75t-94.5 -30 q-75 0 -131.5 56.5t-56.5 155.5zM154 239q0 -79 36 -128.5t89 -49.5q48 0 72 38.5t24 76.5v162q0 30 -23 52t-64 22q-57 0 -95.5 -45t-38.5 -128z" glyph-name="dcaron" horiz-adv-x="609" unicode="ď"/><glyph d="M32 331q12 -1 35.5 -1t35.5 -1v196q0 23 -3.5 37t-17.5 22.5t-20.5 10.5t-33.5 7q-5 1 -8 2v26h284q70 0 133.5 -18t117 -53.5t85 -97.5t31.5 -142q0 -82 -31 -145.5t-84 -100t-116.5 -55t-135.5 -18.5h-284v26q51 10 64 20q19 16 19 59v188q-27 0 -81 -2zM235 135 q0 -53 20.5 -74.5t76.5 -21.5q97 0 147 71t50 199q0 130 -57.5 206t-177.5 76h-59v-263q71 0 142 3l-10 -40q-20 1 -42 1.5t-48.5 1t-41.5 0.5v-159z" glyph-name="Dcroat" horiz-adv-x="711" unicode="Đ"/><glyph d="M219 527q78 -3 156 -3v19q0 29 -16 43.5t-59 19.5v24q101 14 175 57l20 -19v-143q11 1 34 1t35 1l-10 -40q-10 1 -29.5 1t-29.5 1v-397q0 -30 12.5 -44.5t53.5 -21.5v-26h-177l8 91l-15 5q-24 -45 -64.5 -75t-94.5 -30q-75 0 -131.5 56.5t-56.5 155.5q0 112 73.5 179 t172.5 67q59 0 99 -25v66q-83 0 -166 -3zM154 239q0 -79 36 -128.5t89 -49.5q48 0 72 38.5t24 76.5v162q0 30 -23 52t-64 22q-57 0 -95.5 -45t-38.5 -128z" glyph-name="dcroat" horiz-adv-x="584" unicode="đ"/><glyph d="M20 26q51 10 64 20q19 16 19 59v420q0 23 -3.5 37t-17.5 22.5t-20.5 10.5t-33.5 7q-5 1 -8 2v26h508l9 -146h-31q-7 57 -27 81.5t-71 24.5h-79q-59 0 -76.5 -13t-17.5 -63v-177h67q86 0 110 17t29 67h25v-206h-25q-5 50 -29 67t-110 17h-67v-183q0 -50 17.5 -63t76.5 -13 h58q59 0 92 24.5t61 89.5h31l-41 -154h-510v26zM151 742l15 45h280l-15 -45h-280z" glyph-name="Emacron" horiz-adv-x="596" unicode="Ē"/><glyph d="M265 -7q-102 0 -168.5 61.5t-66.5 163.5q0 104 67.5 167.5t165.5 63.5q107 0 160 -70.5t23 -143.5h-294q8 -78 53 -125t115 -47q79 0 113 48l19 -14q-19 -49 -69 -76.5t-118 -27.5zM98 552l15 45h280l-15 -45h-280zM151 272h183q9 54 -12.5 97t-69.5 43q-42 0 -70.5 -36 t-30.5 -104z" glyph-name="emacron" horiz-adv-x="491" unicode="ē"/><glyph d="M20 26q51 10 64 20q19 16 19 59v420q0 23 -3.5 37t-17.5 22.5t-20.5 10.5t-33.5 7q-5 1 -8 2v26h508l9 -146h-31q-7 57 -27 81.5t-71 24.5h-79q-59 0 -76.5 -13t-17.5 -63v-177h67q86 0 110 17t29 67h25v-206h-25q-5 50 -29 67t-110 17h-67v-183q0 -50 17.5 -63t76.5 -13 h58q59 0 92 24.5t61 89.5h31l-41 -154h-510v26zM225 781q0 29 21.5 49.5t51.5 20.5t51.5 -20.5t21.5 -49.5t-22 -50t-51 -21t-51 21t-22 50z" glyph-name="Edotaccent" horiz-adv-x="596" unicode="Ė"/><glyph d="M265 -7q-102 0 -168.5 61.5t-66.5 163.5q0 104 67.5 167.5t165.5 63.5q107 0 160 -70.5t23 -143.5h-294q8 -78 53 -125t115 -47q79 0 113 48l19 -14q-19 -49 -69 -76.5t-118 -27.5zM151 272h183q9 54 -12.5 97t-69.5 43q-42 0 -70.5 -36t-30.5 -104zM172 591 q0 29 21.5 49.5t51.5 20.5t51.5 -20.5t21.5 -49.5t-22 -50t-51 -21t-51 21t-22 50z" glyph-name="edotaccent" horiz-adv-x="491" unicode="ė"/><glyph d="M20 26q51 10 64 20q19 16 19 59v420q0 23 -3.5 37t-17.5 22.5t-20.5 10.5t-33.5 7q-5 1 -8 2v26h508l9 -146h-31q-7 57 -27 81.5t-71 24.5h-79q-59 0 -76.5 -13t-17.5 -63v-177h67q86 0 110 17t29 67h25v-206h-25q-5 50 -29 67t-110 17h-67v-183q0 -50 17.5 -63t76.5 -13 h58q59 0 92 24.5t61 89.5h31l-41 -154h-45q-43 -25 -61.5 -46.5t-18.5 -48.5q0 -26 14.5 -42t39.5 -16q17 0 38 8v-20q-36 -34 -89 -34q-42 0 -69.5 20.5t-27.5 64.5q0 33 20 59l82 55h-393v26z" glyph-name="Eogonek" horiz-adv-x="596" unicode="Ę"/><glyph d="M262 -199q-42 0 -69.5 20.5t-27.5 64.5q0 33 20 59l72 48q-99 3 -163 64t-64 161q0 104 67.5 167.5t165.5 63.5q107 0 160 -70.5t23 -143.5h-294q8 -78 53 -125t115 -47q79 0 113 48l19 -14q-27 -70 -113 -94v-3q-43 -25 -61.5 -46.5t-18.5 -48.5q0 -26 14.5 -42 t39.5 -16q17 0 38 8v-20q-36 -34 -89 -34zM151 272h183q9 54 -12.5 97t-69.5 43q-42 0 -70.5 -36t-30.5 -104z" glyph-name="eogonek" horiz-adv-x="491" unicode="ę"/><glyph d="M20 26q51 10 64 20q19 16 19 59v420q0 23 -3.5 37t-17.5 22.5t-20.5 10.5t-33.5 7q-5 1 -8 2v26h508l9 -146h-31q-7 57 -27 81.5t-71 24.5h-79q-59 0 -76.5 -13t-17.5 -63v-177h67q86 0 110 17t29 67h25v-206h-25q-5 50 -29 67t-110 17h-67v-183q0 -50 17.5 -63t76.5 -13 h58q59 0 92 24.5t61 89.5h31l-41 -154h-510v26zM155 861l14 16l127 -85l127 85l14 -15l-141 -151z" glyph-name="Ecaron" horiz-adv-x="596" unicode="Ě"/><glyph d="M265 -7q-102 0 -168.5 61.5t-66.5 163.5q0 104 67.5 167.5t165.5 63.5q107 0 160 -70.5t23 -143.5h-294q8 -78 53 -125t115 -47q79 0 113 48l19 -14q-19 -49 -69 -76.5t-118 -27.5zM102 671l14 16l127 -85l127 85l14 -15l-141 -151zM151 272h183q9 54 -12.5 97t-69.5 43 q-42 0 -70.5 -36t-30.5 -104z" glyph-name="ecaron" horiz-adv-x="491" unicode="ě"/><glyph d="M396 -12q-165 0 -260.5 91.5t-95.5 233.5q0 144 99 238.5t256 94.5q124 0 201 -46q4 -91 7 -135h-41q-32 141 -181 141q-99 0 -149 -67.5t-50 -191.5q0 -143 57 -231t156 -88q57 0 80.5 24.5t23.5 82.5v34q0 64 -21 84.5t-84 25.5v30h281v-30q-32 -5 -47 -20t-15 -50v-34 q0 -88 16 -132q-32 -23 -95 -39t-138 -16zM214 728l141 150l141 -151l-14 -15l-127 85l-127 -85z" glyph-name="Gcircumflex" horiz-adv-x="710" unicode="Ĝ"/><glyph d="M205 -190q-95 0 -142.5 32.5t-47.5 76.5q0 20 28 46.5t66 43.5q-57 25 -57 71q0 19 33.5 50.5t69.5 43.5q-49 17 -75 52t-26 79q0 61 48.5 102.5t133.5 41.5q39 0 74 -10q33 -8 179 -8v-69l-92 15q21 -32 21 -72q0 -61 -48.5 -102t-133.5 -41h-29q-47 0 -47 -33 q0 -28 44 -32l102 -9q101 -9 136 -28.5t35 -66.5q0 -83 -76 -133t-196 -50zM108 -70q0 -77 130 -77q70 0 109.5 25.5t39.5 62.5q0 23 -19 31t-68 12l-115 9q-37 3 -57 -15.5t-20 -47.5zM119 538l141 150l141 -151l-14 -15l-127 85l-127 -85zM161 305q0 -44 17 -78.5 t58 -34.5t58 34.5t17 78.5t-17 79t-58 35t-58 -35t-17 -79z" glyph-name="gcircumflex" horiz-adv-x="519" unicode="ĝ"/><glyph d="M396 -12q-165 0 -260.5 91.5t-95.5 233.5q0 144 99 238.5t256 94.5q124 0 201 -46q4 -91 7 -135h-41q-32 141 -181 141q-99 0 -149 -67.5t-50 -191.5q0 -143 57 -231t156 -88q57 0 80.5 24.5t23.5 82.5v34q0 64 -21 84.5t-84 25.5v30h281v-30q-32 -5 -47 -20t-15 -50v-34 q0 -88 16 -132q-32 -23 -95 -39t-138 -16zM206 869h28q15 -67 121 -67t121 67h28q0 -65 -40.5 -102.5t-108.5 -37.5t-108.5 37.5t-40.5 102.5z" glyph-name="Gbreve" horiz-adv-x="710" unicode="Ğ"/><glyph d="M205 -190q-95 0 -142.5 32.5t-47.5 76.5q0 20 28 46.5t66 43.5q-57 25 -57 71q0 19 33.5 50.5t69.5 43.5q-49 17 -75 52t-26 79q0 61 48.5 102.5t133.5 41.5q39 0 74 -10q33 -8 179 -8v-69l-92 15q21 -32 21 -72q0 -61 -48.5 -102t-133.5 -41h-29q-47 0 -47 -33 q0 -28 44 -32l102 -9q101 -9 136 -28.5t35 -66.5q0 -83 -76 -133t-196 -50zM108 -70q0 -77 130 -77q70 0 109.5 25.5t39.5 62.5q0 23 -19 31t-68 12l-115 9q-37 3 -57 -15.5t-20 -47.5zM111 679h28q15 -67 121 -67t121 67h28q0 -65 -40.5 -102.5t-108.5 -37.5t-108.5 37.5 t-40.5 102.5zM161 305q0 -44 17 -78.5t58 -34.5t58 34.5t17 78.5t-17 79t-58 35t-58 -35t-17 -79z" glyph-name="gbreve" horiz-adv-x="519" unicode="ğ"/><glyph d="M396 -12q-165 0 -260.5 91.5t-95.5 233.5q0 144 99 238.5t256 94.5q124 0 201 -46q4 -91 7 -135h-41q-32 141 -181 141q-99 0 -149 -67.5t-50 -191.5q0 -143 57 -231t156 -88q57 0 80.5 24.5t23.5 82.5v34q0 64 -21 84.5t-84 25.5v30h281v-30q-32 -5 -47 -20t-15 -50v-34 q0 -88 16 -132q-32 -23 -95 -39t-138 -16zM282 781q0 29 21.5 49.5t51.5 20.5t51.5 -20.5t21.5 -49.5t-22 -50t-51 -21t-51 21t-22 50z" glyph-name="Gdotaccent" horiz-adv-x="710" unicode="Ġ"/><glyph d="M205 -190q-95 0 -142.5 32.5t-47.5 76.5q0 20 28 46.5t66 43.5q-57 25 -57 71q0 19 33.5 50.5t69.5 43.5q-49 17 -75 52t-26 79q0 61 48.5 102.5t133.5 41.5q39 0 74 -10q33 -8 179 -8v-69l-92 15q21 -32 21 -72q0 -61 -48.5 -102t-133.5 -41h-29q-47 0 -47 -33 q0 -28 44 -32l102 -9q101 -9 136 -28.5t35 -66.5q0 -83 -76 -133t-196 -50zM108 -70q0 -77 130 -77q70 0 109.5 25.5t39.5 62.5q0 23 -19 31t-68 12l-115 9q-37 3 -57 -15.5t-20 -47.5zM161 305q0 -44 17 -78.5t58 -34.5t58 34.5t17 78.5t-17 79t-58 35t-58 -35t-17 -79z M187 591q0 29 21.5 49.5t51.5 20.5t51.5 -20.5t21.5 -49.5t-22 -50t-51 -21t-51 21t-22 50z" glyph-name="gdotaccent" horiz-adv-x="519" unicode="ġ"/><glyph d="M396 -12q-165 0 -260.5 91.5t-95.5 233.5q0 144 99 238.5t256 94.5q124 0 201 -46q4 -91 7 -135h-41q-32 141 -181 141q-99 0 -149 -67.5t-50 -191.5q0 -143 57 -231t156 -88q57 0 80.5 24.5t23.5 82.5v34q0 64 -21 84.5t-84 25.5v30h281v-30q-32 -5 -47 -20t-15 -50v-34 q0 -88 16 -132q-32 -23 -95 -39t-138 -16zM262 -309q77 27 92 83q6 28 -19 43q-42 24 -42 65q0 29 21 49.5t52 20.5q32 0 54 -24.5t22 -67.5q0 -63 -46 -120.5t-125 -74.5z" glyph-name="uni0122" horiz-adv-x="710" unicode="Ģ"/><glyph d="M205 -190q-95 0 -142.5 32.5t-47.5 76.5q0 20 28 46.5t66 43.5q-57 25 -57 71q0 19 33.5 50.5t69.5 43.5q-49 17 -75 52t-26 79q0 61 48.5 102.5t133.5 41.5q39 0 74 -10q33 -8 179 -8v-69l-92 15q21 -32 21 -72q0 -61 -48.5 -102t-133.5 -41h-29q-47 0 -47 -33 q0 -28 44 -32l102 -9q101 -9 136 -28.5t35 -66.5q0 -83 -76 -133t-196 -50zM108 -70q0 -77 130 -77q70 0 109.5 25.5t39.5 62.5q0 23 -19 31t-68 12l-115 9q-37 3 -57 -15.5t-20 -47.5zM155 603q0 63 46 120.5t125 74.5l9 -26q-77 -27 -92 -83q-6 -28 19 -43q42 -24 42 -65 q0 -29 -21 -49.5t-52 -20.5q-32 0 -54 24.5t-22 67.5zM161 305q0 -44 17 -78.5t58 -34.5t58 34.5t17 78.5t-17 79t-58 35t-58 -35t-17 -79z" glyph-name="uni0123" horiz-adv-x="519" unicode="ģ"/><glyph d="M20 26q51 10 64 20q19 16 19 59v420q0 23 -3.5 37t-17.5 22.5t-20.5 10.5t-33.5 7q-5 1 -8 2v26h298v-26q-51 -10 -64 -20q-19 -16 -19 -59v-192h260v192q0 23 -3.5 37t-17.5 22.5t-20.5 10.5t-33.5 7q-5 1 -8 2v26h298v-26q-51 -10 -64 -20q-19 -16 -19 -59v-420 q0 -23 3.5 -37t17.5 -22.5t20.5 -10.5t33.5 -7q5 -1 8 -2v-26h-298v26q51 10 64 20q19 16 19 59v190h-260v-190q0 -23 3.5 -37t17.5 -22.5t20.5 -10.5t33.5 -7q5 -1 8 -2v-26h-298v26zM226 728l141 150l141 -151l-14 -15l-127 85l-127 -85z" glyph-name="Hcircumflex" horiz-adv-x="730" unicode="Ĥ"/><glyph d="M327 26q18 4 25 6t17 8t13.5 16t3.5 26v203q0 92 -69 92q-56 0 -104 -57v-238q0 -16 3.5 -26t13.5 -16t17 -8t25 -6v-26h-252v26q29 5 41 8.5t22 15t10 32.5v461q0 30 -13.5 44t-59.5 19v24q99 14 173 57l20 -19v-309q38 43 76 66.5t90 23.5q127 0 127 -154v-213 q0 -16 3.5 -26t14 -16t19.5 -8t29 -6v-26h-245v26zM0 744l141 150l141 -151l-14 -15l-127 85l-127 -85z" glyph-name="hcircumflex" horiz-adv-x="587" unicode="ĥ"/><glyph d="M20 26q51 10 64 20q19 16 19 59v420q0 23 -3.5 37t-17.5 22.5t-20.5 10.5t-33.5 7q-5 1 -8 2v26h298v-26q-51 -10 -64 -20q-19 -16 -19 -59v-85h260v85q0 23 -3.5 37t-17.5 22.5t-20.5 10.5t-33.5 7q-5 1 -8 2v26h298v-26q-51 -10 -64 -20q-19 -16 -19 -59v-420 q0 -23 3.5 -37t17.5 -22.5t20.5 -10.5t33.5 -7q5 -1 8 -2v-26h-298v26q51 10 64 20q19 16 19 59v190h-260v-190q0 -23 3.5 -37t17.5 -22.5t20.5 -10.5t33.5 -7q5 -1 8 -2v-26h-298v26zM235 333h260v69h-260v-69z" glyph-name="Hbar" horiz-adv-x="730" unicode="Ħ"/><glyph d="M30 527q11 -1 33 -1t33 -1v18q0 30 -13.5 44t-59.5 19v24q99 14 173 57l20 -19v-144q80 0 159 3l-10 -40q-75 3 -149 3v-131q38 43 76 66.5t90 23.5q127 0 127 -154v-213q0 -16 3.5 -26t14 -16t19.5 -8t29 -6v-26h-245v26q18 4 25 6t17 8t13.5 16t3.5 26v203q0 92 -69 92 q-56 0 -104 -57v-238q0 -16 3.5 -26t13.5 -16t17 -8t25 -6v-26h-252v26q29 5 41 8.5t22 15t10 32.5v407q-26 0 -76 -2z" glyph-name="hbar" horiz-adv-x="590" unicode="ħ"/><glyph d="M20 26q51 10 64 20q19 16 19 59v420q0 23 -3.5 37t-17.5 22.5t-20.5 10.5t-33.5 7q-5 1 -8 2v26h298v-26q-51 -10 -64 -20q-19 -16 -19 -59v-420q0 -23 3.5 -37t17.5 -22.5t20.5 -10.5t33.5 -7q5 -1 8 -2v-26h-298v26zM4 718q-8 47 22 77t75 30q37 0 78 -33t71 -33 q22 0 36.5 14.5t14.5 28.5h23q8 -46 -22.5 -76.5t-75.5 -30.5q-37 0 -77.5 33t-70.5 33q-22 0 -36.5 -14.5t-14.5 -28.5h-23z" glyph-name="Itilde" horiz-adv-x="338" unicode="Ĩ"/><glyph d="M20 26q20 4 29 6t19.5 8t14 16t3.5 26v229q0 30 -12.5 44t-53.5 19v24q104 18 165 58l21 -19v-355q0 -16 3.5 -26t14 -16t19.5 -8t29 -6v-26h-252v26zM-24 528q-8 47 22 77t75 30q37 0 78 -33t71 -33q22 0 36.5 14.5t14.5 28.5h23q8 -46 -22.5 -76.5t-75.5 -30.5 q-37 0 -77.5 33t-70.5 33q-22 0 -36.5 -14.5t-14.5 -28.5h-23z" glyph-name="itilde" horiz-adv-x="292" unicode="ĩ"/><glyph d="M20 26q51 10 64 20q19 16 19 59v420q0 23 -3.5 37t-17.5 22.5t-20.5 10.5t-33.5 7q-5 1 -8 2v26h298v-26q-51 -10 -64 -20q-19 -16 -19 -59v-420q0 -23 3.5 -37t17.5 -22.5t20.5 -10.5t33.5 -7q5 -1 8 -2v-26h-298v26zM22 742l15 45h280l-15 -45h-280z" glyph-name="Imacron" horiz-adv-x="338" unicode="Ī"/><glyph d="M20 26q20 4 29 6t19.5 8t14 16t3.5 26v229q0 30 -12.5 44t-53.5 19v24q104 18 165 58l21 -19v-355q0 -16 3.5 -26t14 -16t19.5 -8t29 -6v-26h-252v26zM-6 552l15 45h280l-15 -45h-280z" glyph-name="imacron" horiz-adv-x="292" unicode="ī"/><glyph d="M20 26q51 10 64 20q19 16 19 59v420q0 23 -3.5 37t-17.5 22.5t-20.5 10.5t-33.5 7q-5 1 -8 2v26h298v-26q-51 -10 -64 -20q-19 -16 -19 -59v-420q0 -23 3.5 -37t17.5 -22.5t20.5 -10.5t33.5 -7q5 -1 8 -2v-26h-83q-43 -25 -61.5 -46.5t-18.5 -48.5q0 -26 14.5 -42 t39.5 -16q17 0 38 8v-20q-36 -34 -89 -34q-42 0 -69.5 20.5t-27.5 64.5q0 33 20 59l82 55h-143v26z" glyph-name="Iogonek" horiz-adv-x="338" unicode="Į"/><glyph d="M20 26q20 4 29 6t19.5 8t14 16t3.5 26v229q0 30 -12.5 44t-53.5 19v24q104 18 165 58l21 -19v-355q0 -16 3.5 -26t14 -16t19.5 -8t29 -6v-26h-63q-43 -25 -61.5 -46.5t-18.5 -48.5q0 -26 14.5 -42t39.5 -16q17 0 38 8v-20q-36 -34 -89 -34q-42 0 -69.5 20.5t-27.5 64.5 q0 33 20 59l82 55h-117v26zM68 591q0 29 21.5 49.5t51.5 20.5t51.5 -20.5t21.5 -49.5t-22 -50t-51 -21t-51 21t-22 50z" glyph-name="iogonek" horiz-adv-x="292" unicode="į"/><glyph d="M20 26q51 10 64 20q19 16 19 59v420q0 23 -3.5 37t-17.5 22.5t-20.5 10.5t-33.5 7q-5 1 -8 2v26h298v-26q-51 -10 -64 -20q-19 -16 -19 -59v-420q0 -23 3.5 -37t17.5 -22.5t20.5 -10.5t33.5 -7q5 -1 8 -2v-26h-298v26zM96 781q0 29 21.5 49.5t51.5 20.5t51.5 -20.5 t21.5 -49.5t-22 -50t-51 -21t-51 21t-22 50z" glyph-name="Idotaccent" horiz-adv-x="338" unicode="İ"/><glyph d="M20 26q20 4 29 6t19.5 8t14 16t3.5 26v229q0 30 -12.5 44t-53.5 19v24q104 18 165 58l21 -19v-355q0 -16 3.5 -26t14 -16t19.5 -8t29 -6v-26h-252v26z" glyph-name="dotlessi" horiz-adv-x="292" unicode="ı"/><glyph d="M20 26q51 10 64 20q19 16 19 59v420q0 23 -3.5 37t-17.5 22.5t-20.5 10.5t-33.5 7q-5 1 -8 2v26h298v-26q-51 -10 -64 -20q-19 -16 -19 -59v-420q0 -23 3.5 -37t17.5 -22.5t20.5 -10.5t33.5 -7q5 -1 8 -2v-26h-298v26zM338 -185q-11 16 0 32q68 24 86.5 56.5t18.5 109.5 v512q0 23 -3.5 37t-17.5 22.5t-20.5 10.5t-33.5 7q-5 1 -8 2v26h298v-26q-51 -10 -64 -20q-19 -16 -19 -59v-522q0 -46 -20 -80.5t-57 -55t-73.5 -32t-86.5 -20.5z" glyph-name="IJ" horiz-adv-x="678" unicode="Ĳ"/><glyph d="M20 26q20 4 29 6t19.5 8t14 16t3.5 26v229q0 30 -12.5 44t-53.5 19v24q104 18 165 58l21 -19v-355q0 -16 3.5 -26t14 -16t19.5 -8t29 -6v-26h-252v26zM68 599q0 29 21.5 49.5t51.5 20.5t51.5 -20.5t21.5 -49.5t-22 -50t-51 -21t-51 21t-22 50zM286 -185q-8 15 0 30 q47 16 66.5 50t19.5 101v315q0 30 -12.5 44t-53.5 19v24q104 18 165 58l21 -19v-454q0 -42 -21 -74.5t-55 -51t-65.5 -28.5t-64.5 -14zM354 599q0 29 21.5 49.5t51.5 20.5t51.5 -20.5t21.5 -49.5t-22 -50t-51 -21t-51 21t-22 50z" glyph-name="ij" horiz-adv-x="565" unicode="ĳ"/><glyph d="M0 -185q-11 16 0 32q68 24 86.5 56.5t18.5 109.5v512q0 23 -3.5 37t-17.5 22.5t-20.5 10.5t-33.5 7q-5 1 -8 2v26h298v-26q-51 -10 -64 -20q-19 -16 -19 -59v-522q0 -46 -20 -80.5t-57 -55t-73.5 -32t-86.5 -20.5zM30 728l141 150l141 -151l-14 -15l-127 85l-127 -85z " glyph-name="Jcircumflex" horiz-adv-x="340" unicode="Ĵ"/><glyph d="M-6 -185q-8 15 0 30q54 17 70 43t16 100v323q0 30 -12.5 44t-53.5 19v24q104 18 165 58l21 -19v-454q0 -42 -21 -74.5t-55 -51t-65.5 -28.5t-64.5 -14zM-18 538l141 150l141 -151l-14 -15l-127 85l-127 -85z" glyph-name="jcircumflex" horiz-adv-x="265" unicode="ĵ"/><glyph d="M20 26q51 10 64 20q19 16 19 59v420q0 23 -3.5 37t-17.5 22.5t-20.5 10.5t-33.5 7q-5 1 -8 2v26h298v-26q-51 -10 -64 -20q-19 -16 -19 -59v-208l244 240q22 22 11 34.5t-52 12.5v26h221v-26q-46 0 -70 -11t-50 -36l-163 -160l238 -343q13 -18 29 -23t57 -5v-26h-216 q0 23 -32 70l-163 240l-54 -53v-152q0 -23 3.5 -37t17.5 -22.5t20.5 -10.5t33.5 -7q5 -1 8 -2v-26h-298v26zM262 -309q77 27 92 83q6 28 -19 43q-42 24 -42 65q0 29 21 49.5t52 20.5q32 0 54 -24.5t22 -67.5q0 -63 -46 -120.5t-125 -74.5z" glyph-name="uni0136" horiz-adv-x="705" unicode="Ķ"/><glyph d="M392 0q0 30 -19 57l-107 157l-53 -51v-81q0 -21 10 -32.5t22 -15t41 -8.5v-26h-266v26q29 5 41 8.5t22 15t10 32.5v461q0 30 -13.5 44t-59.5 19v24q99 14 173 57l20 -19v-449l149 142q47 44 -35 52v27h209v-27q-43 -3 -68.5 -16.5t-54.5 -40.5l-70 -67l159 -227 q12 -18 28 -24.5t50 -10.5v-27h-188zM199 -309q77 27 92 83q6 28 -19 43q-42 24 -42 65q0 29 21 49.5t52 20.5q32 0 54 -24.5t22 -67.5q0 -63 -46 -120.5t-125 -74.5z" glyph-name="uni0137" horiz-adv-x="585" unicode="ķ"/><glyph d="M20 26q51 10 64 20q19 16 19 59v420q0 23 -3.5 37t-17.5 22.5t-20.5 10.5t-33.5 7q-5 1 -8 2v26h298v-26q-51 -10 -64 -20q-19 -16 -19 -59v-408q0 -50 17.5 -63t76.5 -13h61q60 0 93 25t60 94h32l-41 -160h-514v26zM138 714q22 85 69 151q24 0 50.5 -19.5t34.5 -43.5 q-63 -42 -124 -107z" glyph-name="Lacute" horiz-adv-x="595" unicode="Ĺ"/><glyph d="M20 26q29 5 41 8.5t22 15t10 32.5v461q0 30 -13.5 44t-59.5 19v24q99 14 173 57l20 -19v-586q0 -21 10 -32.5t22 -15t41 -8.5v-26h-266v26zM97 718q22 85 69 151q24 0 50.5 -19.5t34.5 -43.5q-63 -42 -124 -107z" glyph-name="lacute" horiz-adv-x="306" unicode="ĺ"/><glyph d="M20 26q51 10 64 20q19 16 19 59v420q0 23 -3.5 37t-17.5 22.5t-20.5 10.5t-33.5 7q-5 1 -8 2v26h298v-26q-51 -10 -64 -20q-19 -16 -19 -59v-408q0 -50 17.5 -63t76.5 -13h61q60 0 93 25t60 94h32l-41 -160h-514v26zM207 -309q77 27 92 83q6 28 -19 43q-42 24 -42 65 q0 29 21 49.5t52 20.5q32 0 54 -24.5t22 -67.5q0 -63 -46 -120.5t-125 -74.5z" glyph-name="uni013B" horiz-adv-x="595" unicode="Ļ"/><glyph d="M20 26q29 5 41 8.5t22 15t10 32.5v461q0 30 -13.5 44t-59.5 19v24q99 14 173 57l20 -19v-586q0 -21 10 -32.5t22 -15t41 -8.5v-26h-266v26zM60 -309q77 27 92 83q6 28 -19 43q-42 24 -42 65q0 29 21 49.5t52 20.5q32 0 54 -24.5t22 -67.5q0 -63 -46 -120.5t-125 -74.5z " glyph-name="uni013C" horiz-adv-x="306" unicode="ļ"/><glyph d="M20 26q51 10 64 20q19 16 19 59v420q0 23 -3.5 37t-17.5 22.5t-20.5 10.5t-33.5 7q-5 1 -8 2v26h298v-26q-51 -10 -64 -20q-19 -16 -19 -59v-408q0 -50 17.5 -63t76.5 -13h61q60 0 93 25t60 94h32l-41 -160h-514v26zM364 369q77 27 92 83q6 28 -19 43q-42 24 -42 65 q0 29 21 49.5t52 20.5q32 0 54 -24.5t22 -67.5q0 -63 -46 -120.5t-125 -74.5z" glyph-name="Lcaron" horiz-adv-x="595" unicode="Ľ"/><glyph d="M282 495q-11 90 -38 160q21 14 53 14.5t53 -13.5q0 -81 -33 -163zM20 0v26q29 5 41 8.5t22 15t10 32.5v461q0 30 -13.5 44t-59.5 19v24q99 14 173 57l20 -19v-586q0 -21 10 -32.5t22 -15t41 -8.5v-26h-266z" glyph-name="lcaron" horiz-adv-x="315" unicode="ľ"/><glyph d="M20 26q51 10 64 20q19 16 19 59v420q0 23 -3.5 37t-17.5 22.5t-20.5 10.5t-33.5 7q-5 1 -8 2v26h298v-26q-51 -10 -64 -20q-19 -16 -19 -59v-408q0 -50 17.5 -63t76.5 -13h61q60 0 93 25t60 94h32l-41 -160h-514v26zM351 312q0 29 21.5 50t51.5 21q29 0 50.5 -21 t21.5 -50q0 -30 -21 -51.5t-51 -21.5t-51.5 21t-21.5 52z" glyph-name="Ldot" horiz-adv-x="595" unicode="Ŀ"/><glyph d="M20 26q29 5 41 8.5t22 15t10 32.5v461q0 30 -13.5 44t-59.5 19v24q99 14 173 57l20 -19v-586q0 -21 10 -32.5t22 -15t41 -8.5v-26h-266v26zM270 338q0 29 21.5 50t51.5 21q29 0 50.5 -21t21.5 -50q0 -30 -21.5 -51.5t-50.5 -21.5q-30 0 -51.5 21t-21.5 52z" glyph-name="ldot" horiz-adv-x="390" unicode="ŀ"/><glyph d="M22 315l81 24v186q0 23 -3.5 37t-17.5 22.5t-20.5 10.5t-33.5 7q-5 1 -8 2v26h298v-26q-51 -10 -64 -20q-19 -16 -19 -59v-143q71 24 159 59v-49q-88 -25 -159 -49v-226q0 -50 17.5 -63t76.5 -13h61q60 0 93 25t60 94h32l-41 -160h-514v26q51 10 64 20q19 16 19 59v192 q-54 -20 -81 -31v49z" glyph-name="Lslash" horiz-adv-x="595" unicode="Ł"/><glyph d="M20 314q33 9 76 23v206q0 30 -13.5 44t-59.5 19v24q99 14 173 57l20 -19v-288q56 22 70 28v-47l-70 -21v-258q0 -21 10 -32.5t22 -15t41 -8.5v-26h-266v26q29 5 41 8.5t22 15t10 32.5v215q-43 -15 -76 -30v47z" glyph-name="lslash" horiz-adv-x="309" unicode="ł"/><glyph d="M536 0l-387 534v-429q0 -23 4 -37t19 -22.5t22 -10.5t36 -7q6 -1 9 -2v-26h-219v26q52 10 65 20q20 16 20 59v420q0 23 -4 37t-17.5 22.5t-21.5 10.5t-33 7q-6 1 -9 2v26h211l316 -438v333q0 23 -4 37t-19 22.5t-22 10.5t-36 7q-6 1 -9 2v26h219v-26q-52 -10 -65 -20 q-20 -16 -20 -59v-525h-55zM312 714q22 85 69 151q24 0 50.5 -19.5t34.5 -43.5q-63 -42 -124 -107z" glyph-name="Nacute" horiz-adv-x="696" unicode="Ń"/><glyph d="M15 26q20 4 29 6t19.5 8t14 16t3.5 26v229q0 30 -12.5 44t-53.5 19v24q101 15 170 58l20 -19l-31 -84h22q39 46 78.5 71t92.5 25q127 0 127 -154v-213q0 -16 3.5 -26t14 -16t19.5 -8t29 -6v-26h-245v26q18 4 25 6t17 8t13.5 16t3.5 26v203q0 92 -68 92q-59 0 -105 -58 v-237q0 -16 3.5 -26t13.5 -16t17 -8t25 -6v-26h-245v26zM249 524q22 85 69 151q24 0 50.5 -19.5t34.5 -43.5q-63 -42 -124 -107z" glyph-name="nacute" horiz-adv-x="575" unicode="ń"/><glyph d="M536 0l-387 534v-429q0 -23 4 -37t19 -22.5t22 -10.5t36 -7q6 -1 9 -2v-26h-219v26q52 10 65 20q20 16 20 59v420q0 23 -4 37t-17.5 22.5t-21.5 10.5t-33 7q-6 1 -9 2v26h211l316 -438v333q0 23 -4 37t-19 22.5t-22 10.5t-36 7q-6 1 -9 2v26h219v-26q-52 -10 -65 -20 q-20 -16 -20 -59v-525h-55zM255 -309q77 27 92 83q6 28 -19 43q-42 24 -42 65q0 29 21 49.5t52 20.5q32 0 54 -24.5t22 -67.5q0 -63 -46 -120.5t-125 -74.5z" glyph-name="uni0145" horiz-adv-x="696" unicode="Ņ"/><glyph d="M15 26q20 4 29 6t19.5 8t14 16t3.5 26v229q0 30 -12.5 44t-53.5 19v24q101 15 170 58l20 -19l-31 -84h22q39 46 78.5 71t92.5 25q127 0 127 -154v-213q0 -16 3.5 -26t14 -16t19.5 -8t29 -6v-26h-245v26q18 4 25 6t17 8t13.5 16t3.5 26v203q0 92 -68 92q-59 0 -105 -58 v-237q0 -16 3.5 -26t13.5 -16t17 -8t25 -6v-26h-245v26zM192 -309q77 27 92 83q6 28 -19 43q-42 24 -42 65q0 29 21 49.5t52 20.5q32 0 54 -24.5t22 -67.5q0 -63 -46 -120.5t-125 -74.5z" glyph-name="uni0146" horiz-adv-x="575" unicode="ņ"/><glyph d="M536 0l-387 534v-429q0 -23 4 -37t19 -22.5t22 -10.5t36 -7q6 -1 9 -2v-26h-219v26q52 10 65 20q20 16 20 59v420q0 23 -4 37t-17.5 22.5t-21.5 10.5t-33 7q-6 1 -9 2v26h211l316 -438v333q0 23 -4 37t-19 22.5t-22 10.5t-36 7q-6 1 -9 2v26h219v-26q-52 -10 -65 -20 q-20 -16 -20 -59v-525h-55zM205 861l14 16l127 -85l127 85l14 -15l-141 -151z" glyph-name="Ncaron" horiz-adv-x="696" unicode="Ň"/><glyph d="M15 26q20 4 29 6t19.5 8t14 16t3.5 26v229q0 30 -12.5 44t-53.5 19v24q101 15 170 58l20 -19l-31 -84h22q39 46 78.5 71t92.5 25q127 0 127 -154v-213q0 -16 3.5 -26t14 -16t19.5 -8t29 -6v-26h-245v26q18 4 25 6t17 8t13.5 16t3.5 26v203q0 92 -68 92q-59 0 -105 -58 v-237q0 -16 3.5 -26t13.5 -16t17 -8t25 -6v-26h-245v26zM142 671l14 16l127 -85l127 85l14 -15l-141 -151z" glyph-name="ncaron" horiz-adv-x="575" unicode="ň"/><glyph d="M354 -185q-11 16 0 32q68 24 86.5 56.5t18.5 109.5v93l-310 428v-429q0 -23 4 -37t19 -22.5t22 -10.5t36 -7q6 -1 9 -2v-26h-219v26q52 10 65 20q20 16 20 59v420q0 23 -4 37t-17.5 22.5t-21.5 10.5t-33 7q-6 1 -9 2v26h211l316 -438v333q0 23 -4 37t-19 22.5t-22 10.5 t-36 7q-6 1 -9 2v26h219v-26q-52 -10 -65 -20q-20 -16 -20 -59v-525q0 -45 -20 -78.5t-57 -54t-73.5 -32t-86.5 -20.5z" glyph-name="Eng" horiz-adv-x="696" unicode="Ŋ"/><glyph d="M288 -185q-8 15 0 30q47 16 66.5 50t19.5 101v289q0 92 -68 92q-59 0 -105 -58v-237q0 -16 3.5 -26t13.5 -16t17 -8t25 -6v-26h-245v26q20 4 29 6t19.5 8t14 16t3.5 26v229q0 30 -12.5 44t-53.5 19v24q101 15 170 58l20 -19l-31 -84h22q39 46 78.5 71t92.5 25 q127 0 127 -154v-312q0 -42 -21 -74.5t-55 -51t-65.5 -28.5t-64.5 -14z" glyph-name="eng" horiz-adv-x="559" unicode="ŋ"/><glyph d="M361 -12q-139 0 -230 92t-91 233q0 144 92 238.5t233 94.5q139 0 230 -92.5t91 -235.5q0 -142 -92 -236t-233 -94zM180 343q0 -141 54 -228t144 -87q79 0 123.5 68.5t44.5 191.5q0 143 -54 230.5t-144 87.5q-79 0 -123.5 -69t-44.5 -194zM216 742l15 45h280l-15 -45h-280 z" glyph-name="Omacron" horiz-adv-x="726" unicode="Ō"/><glyph d="M264 -9q-100 0 -167 61.5t-67 164.5q0 106 71.5 169t173.5 63q100 0 167 -61.5t67 -164.5q0 -106 -71.5 -169t-173.5 -63zM123 552l15 45h280l-15 -45h-280zM157 241q0 -86 31.5 -150t89.5 -64q46 0 75 44.5t29 127.5q0 86 -31.5 150t-89.5 64q-46 0 -75 -44.5 t-29 -127.5z" glyph-name="omacron" horiz-adv-x="539" unicode="ō"/><glyph d="M361 -12q-139 0 -230 92t-91 233q0 144 92 238.5t233 94.5q139 0 230 -92.5t91 -235.5q0 -142 -92 -236t-233 -94zM180 343q0 -141 54 -228t144 -87q79 0 123.5 68.5t44.5 191.5q0 143 -54 230.5t-144 87.5q-79 0 -123.5 -69t-44.5 -194zM224 714q22 85 69 151 q24 0 50.5 -19.5t34.5 -43.5q-63 -42 -124 -107zM395 714q22 85 69 151q24 0 50.5 -19.5t34.5 -43.5q-63 -42 -124 -107z" glyph-name="Ohungarumlaut" horiz-adv-x="726" unicode="Ő"/><glyph d="M264 -9q-100 0 -167 61.5t-67 164.5q0 106 71.5 169t173.5 63q100 0 167 -61.5t67 -164.5q0 -106 -71.5 -169t-173.5 -63zM131 524q22 85 69 151q24 0 50.5 -19.5t34.5 -43.5q-63 -42 -124 -107zM157 241q0 -86 31.5 -150t89.5 -64q46 0 75 44.5t29 127.5q0 86 -31.5 150 t-89.5 64q-46 0 -75 -44.5t-29 -127.5zM302 524q22 85 69 151q24 0 50.5 -19.5t34.5 -43.5q-63 -42 -124 -107z" glyph-name="ohungarumlaut" horiz-adv-x="539" unicode="ő"/><glyph d="M362 -12q-139 0 -230.5 92t-91.5 233q0 144 92.5 238.5t233.5 94.5q54 0 105 -16h477l9 -146h-31q-7 57 -27 81.5t-71 24.5h-79q-59 0 -76.5 -13t-17.5 -63v-177h67q86 0 110 17t29 67h25v-206h-25q-5 50 -29 67t-110 17h-67v-183q0 -50 17.5 -63t76.5 -13h58 q59 0 92 24.5t61 89.5h31l-41 -154h-496q-44 -12 -92 -12zM181 343q0 -140 54.5 -227.5t143.5 -87.5q104 0 144 105v325q-18 70 -63 109t-111 39q-79 0 -123.5 -69t-44.5 -194z" glyph-name="OE" horiz-adv-x="1016" unicode="Œ"/><glyph d="M264 -9q-100 0 -167 61.5t-67 164.5q0 106 71.5 169t173.5 63q107 0 173 -68q67 69 171 69q107 0 160 -70.5t23 -143.5h-293v-5q8 -76 53 -121.5t114 -45.5q79 0 113 48l19 -14q-19 -49 -69 -76.5t-118 -27.5q-110 0 -175 68q-71 -71 -182 -71zM157 241q0 -86 31.5 -150 t89.5 -64q46 0 75 44.5t29 127.5q0 86 -31.5 150t-89.5 64q-46 0 -75 -44.5t-29 -127.5zM507 273h183q9 54 -12.5 97t-69.5 43q-42 0 -70.5 -36t-30.5 -104z" glyph-name="oe" horiz-adv-x="847" unicode="œ"/><glyph d="M20 26q51 10 64 20q19 16 19 59v420q0 23 -3.5 37t-17.5 22.5t-20.5 10.5t-33.5 7q-5 1 -8 2v26h281q286 0 286 -175q0 -145 -195 -175q65 -13 104 -78l53 -88q26 -44 61.5 -71t74.5 -16v-27q-34 -16 -84 -16q-66 0 -107.5 23.5t-71.5 73.5l-64 106q-29 48 -55.5 66 t-67.5 20v-168q0 -23 3.5 -37t17.5 -22.5t20.5 -10.5t33.5 -7q5 -1 8 -2v-26h-298v26zM235 311h52q91 0 126 37t35 99q0 143 -144 143q-40 0 -54.5 -11t-14.5 -35v-233zM304 714q22 85 69 151q24 0 50.5 -19.5t34.5 -43.5q-63 -42 -124 -107z" glyph-name="Racute" horiz-adv-x="695" unicode="Ŕ"/><glyph d="M15 26q22 4 31.5 6t21 8t15 16t3.5 26v230q0 30 -13.5 44t-57.5 18v24q104 16 180 58l20 -19l-23 -121h27q30 71 61.5 105.5t76.5 34.5q21 0 40 -8v-113q-31 14 -65 14q-61 0 -93.5 -40.5t-32.5 -99.5v-127q0 -16 4 -26t15 -16t21.5 -8t33.5 -6v-26h-265v26zM169 524 q22 85 69 151q24 0 50.5 -19.5t34.5 -43.5q-63 -42 -124 -107z" glyph-name="racute" horiz-adv-x="417" unicode="ŕ"/><glyph d="M20 26q51 10 64 20q19 16 19 59v420q0 23 -3.5 37t-17.5 22.5t-20.5 10.5t-33.5 7q-5 1 -8 2v26h281q286 0 286 -175q0 -145 -195 -175q65 -13 104 -78l53 -88q26 -44 61.5 -71t74.5 -16v-27q-34 -16 -84 -16q-66 0 -107.5 23.5t-71.5 73.5l-64 106q-29 48 -55.5 66 t-67.5 20v-168q0 -23 3.5 -37t17.5 -22.5t20.5 -10.5t33.5 -7q5 -1 8 -2v-26h-298v26zM235 311h52q91 0 126 37t35 99q0 143 -144 143q-40 0 -54.5 -11t-14.5 -35v-233zM254 -309q77 27 92 83q6 28 -19 43q-42 24 -42 65q0 29 21 49.5t52 20.5q32 0 54 -24.5t22 -67.5 q0 -63 -46 -120.5t-125 -74.5z" glyph-name="uni0156" horiz-adv-x="695" unicode="Ŗ"/><glyph d="M15 26q22 4 31.5 6t21 8t15 16t3.5 26v230q0 30 -13.5 44t-57.5 18v24q104 16 180 58l20 -19l-23 -121h27q30 71 61.5 105.5t76.5 34.5q21 0 40 -8v-113q-31 14 -65 14q-61 0 -93.5 -40.5t-32.5 -99.5v-127q0 -16 4 -26t15 -16t21.5 -8t33.5 -6v-26h-265v26zM55 -309 q77 27 92 83q6 28 -19 43q-42 24 -42 65q0 29 21 49.5t52 20.5q32 0 54 -24.5t22 -67.5q0 -63 -46 -120.5t-125 -74.5z" glyph-name="uni0157" horiz-adv-x="417" unicode="ŗ"/><glyph d="M20 26q51 10 64 20q19 16 19 59v420q0 23 -3.5 37t-17.5 22.5t-20.5 10.5t-33.5 7q-5 1 -8 2v26h281q286 0 286 -175q0 -145 -195 -175q65 -13 104 -78l53 -88q26 -44 61.5 -71t74.5 -16v-27q-34 -16 -84 -16q-66 0 -107.5 23.5t-71.5 73.5l-64 106q-29 48 -55.5 66 t-67.5 20v-168q0 -23 3.5 -37t17.5 -22.5t20.5 -10.5t33.5 -7q5 -1 8 -2v-26h-298v26zM197 861l14 16l127 -85l127 85l14 -15l-141 -151zM235 311h52q91 0 126 37t35 99q0 143 -144 143q-40 0 -54.5 -11t-14.5 -35v-233z" glyph-name="Rcaron" horiz-adv-x="695" unicode="Ř"/><glyph d="M15 26q22 4 31.5 6t21 8t15 16t3.5 26v230q0 30 -13.5 44t-57.5 18v24q104 16 180 58l20 -19l-23 -121h27q30 71 61.5 105.5t76.5 34.5q21 0 40 -8v-113q-31 14 -65 14q-61 0 -93.5 -40.5t-32.5 -99.5v-127q0 -16 4 -26t15 -16t21.5 -8t33.5 -6v-26h-265v26zM62 671 l14 16l127 -85l127 85l14 -15l-141 -151z" glyph-name="rcaron" horiz-adv-x="417" unicode="ř"/><glyph d="M257 -12q-121 0 -209 63l-8 130h29q20 -71 67.5 -113.5t113.5 -42.5q55 0 88 31t33 79q0 44 -32 75.5t-101 62.5q-40 18 -68 34t-58 41t-45.5 58t-15.5 73q0 76 57 121.5t161 45.5q19 0 37 -2t32 -4.5t29 -7.5t24 -8.5t21 -10t17 -9.5t15 -9.5t12 -7.5l3 -132h-27 q-42 154 -157 154q-52 0 -78.5 -26.5t-26.5 -65.5q0 -36 27 -63t94 -58q30 -13 44.5 -20.5t44 -24t46 -32t35.5 -37.5t28 -48.5t9 -57.5q0 -84 -68 -136t-173 -52zM226 714q22 85 69 151q24 0 50.5 -19.5t34.5 -43.5q-63 -42 -124 -107z" glyph-name="Sacute" horiz-adv-x="533" unicode="Ś"/><glyph d="M182 -9q-87 0 -150 40l-2 94h39q34 -99 124 -99q40 0 60 17t20 45q0 31 -23 47.5t-76 35.5q-62 22 -102.5 55t-40.5 92q0 61 47.5 96t126.5 35q70 0 134 -38v-93h-38q-28 96 -106 96q-32 0 -50.5 -15t-18.5 -40t21 -43.5t66 -34.5q35 -12 55.5 -21.5t49 -27.5t42.5 -44 t14 -59q0 -65 -53.5 -101.5t-138.5 -36.5zM163 524q22 85 69 151q24 0 50.5 -19.5t34.5 -43.5q-63 -42 -124 -107z" glyph-name="sacute" horiz-adv-x="404" unicode="ś"/><glyph d="M257 -12q-121 0 -209 63l-8 130h29q20 -71 67.5 -113.5t113.5 -42.5q55 0 88 31t33 79q0 44 -32 75.5t-101 62.5q-40 18 -68 34t-58 41t-45.5 58t-15.5 73q0 76 57 121.5t161 45.5q19 0 37 -2t32 -4.5t29 -7.5t24 -8.5t21 -10t17 -9.5t15 -9.5t12 -7.5l3 -132h-27 q-42 154 -157 154q-52 0 -78.5 -26.5t-26.5 -65.5q0 -36 27 -63t94 -58q30 -13 44.5 -20.5t44 -24t46 -32t35.5 -37.5t28 -48.5t9 -57.5q0 -84 -68 -136t-173 -52zM121 728l141 150l141 -151l-14 -15l-127 85l-127 -85z" glyph-name="Scircumflex" horiz-adv-x="533" unicode="Ŝ"/><glyph d="M182 -9q-87 0 -150 40l-2 94h39q34 -99 124 -99q40 0 60 17t20 45q0 31 -23 47.5t-76 35.5q-62 22 -102.5 55t-40.5 92q0 61 47.5 96t126.5 35q70 0 134 -38v-93h-38q-28 96 -106 96q-32 0 -50.5 -15t-18.5 -40t21 -43.5t66 -34.5q35 -12 55.5 -21.5t49 -27.5t42.5 -44 t14 -59q0 -65 -53.5 -101.5t-138.5 -36.5zM58 538l141 150l141 -151l-14 -15l-127 85l-127 -85z" glyph-name="scircumflex" horiz-adv-x="404" unicode="ŝ"/><glyph d="M218 -186q46 0 67.5 13t21.5 32q0 43 -112 43l44 86q-112 6 -191 63l-8 130h29q20 -71 67.5 -113.5t113.5 -42.5q55 0 88 31t33 79q0 44 -32 75.5t-101 62.5q-40 18 -68 34t-58 41t-45.5 58t-15.5 73q0 76 57 121.5t161 45.5q19 0 37 -2t32 -4.5t29 -7.5t24 -8.5t21 -10 t17 -9.5t15 -9.5t12 -7.5l3 -132h-27q-42 154 -157 154q-52 0 -78.5 -26.5t-26.5 -65.5q0 -36 27 -63t94 -58q30 -13 44.5 -20.5t44 -24t46 -32t35.5 -37.5t28 -48.5t9 -57.5q0 -78 -58.5 -128.5t-151.5 -58.5l-17 -33q43 0 76.5 -22t33.5 -60q0 -86 -168 -86z" glyph-name="Scedilla" horiz-adv-x="533" unicode="Ş"/><glyph d="M150 -186q46 0 67.5 13t21.5 32q0 43 -112 43l45 89q-79 2 -140 40l-2 94h39q34 -99 124 -99q40 0 60 17t20 45q0 31 -23 47.5t-76 35.5q-62 22 -102.5 55t-40.5 92q0 61 47.5 96t126.5 35q70 0 134 -38v-93h-38q-28 96 -106 96q-32 0 -50.5 -15t-18.5 -40t21 -43.5 t66 -34.5q35 -12 55.5 -21.5t49 -27.5t42.5 -44t14 -59q0 -57 -41.5 -92t-110.5 -44l-19 -37q43 0 76.5 -22t33.5 -60q0 -86 -168 -86z" glyph-name="scedilla" horiz-adv-x="404" unicode="ş"/><glyph d="M257 -12q-121 0 -209 63l-8 130h29q20 -71 67.5 -113.5t113.5 -42.5q55 0 88 31t33 79q0 44 -32 75.5t-101 62.5q-40 18 -68 34t-58 41t-45.5 58t-15.5 73q0 76 57 121.5t161 45.5q19 0 37 -2t32 -4.5t29 -7.5t24 -8.5t21 -10t17 -9.5t15 -9.5t12 -7.5l3 -132h-27 q-42 154 -157 154q-52 0 -78.5 -26.5t-26.5 -65.5q0 -36 27 -63t94 -58q30 -13 44.5 -20.5t44 -24t46 -32t35.5 -37.5t28 -48.5t9 -57.5q0 -84 -68 -136t-173 -52zM119 861l14 16l127 -85l127 85l14 -15l-141 -151z" glyph-name="Scaron" horiz-adv-x="533" unicode="Š"/><glyph d="M182 -9q-87 0 -150 40l-2 94h39q34 -99 124 -99q40 0 60 17t20 45q0 31 -23 47.5t-76 35.5q-62 22 -102.5 55t-40.5 92q0 61 47.5 96t126.5 35q70 0 134 -38v-93h-38q-28 96 -106 96q-32 0 -50.5 -15t-18.5 -40t21 -43.5t66 -34.5q35 -12 55.5 -21.5t49 -27.5t42.5 -44 t14 -59q0 -65 -53.5 -101.5t-138.5 -36.5zM56 671l14 16l127 -85l127 85l14 -15l-141 -151z" glyph-name="scaron" horiz-adv-x="404" unicode="š"/><glyph d="M144 26q31 5 41 7.5t26 10.5t20.5 22.5t4.5 38.5v488h-41q-78 0 -108.5 -31t-41.5 -101h-25l8 179l55 -10h437l55 10l8 -179h-25q-11 70 -41 101t-106 31h-43v-488q0 -24 4.5 -38.5t20.5 -22.5t26 -10.5t41 -7.5v-26h-132l-22 -44q43 0 76.5 -22t33.5 -60q0 -86 -168 -86 l5 26q46 0 67.5 13t21.5 32q0 43 -112 43l50 98h-136v26z" glyph-name="uni0162" horiz-adv-x="603" unicode="Ţ"/><glyph d="M126 -186q46 0 67.5 13t21.5 32q0 43 -112 43l48 94q-26 10 -43 33t-17 46v312h-76v35q96 36 163 111h33v-102l121 12q-3 -28 -3 -56h-118v-272q0 -29 10.5 -40.5t32.5 -11.5q40 0 86 16v-33q-53 -24 -142 -52l-19 -38q43 0 76.5 -22t33.5 -60q0 -86 -168 -86z" glyph-name="uni0163" horiz-adv-x="360" unicode="ţ"/><glyph d="M144 26q31 5 41 7.5t26 10.5t20.5 22.5t4.5 38.5v488h-41q-78 0 -108.5 -31t-41.5 -101h-25l8 179l55 -10h437l55 10l8 -179h-25q-11 70 -41 101t-106 31h-43v-488q0 -24 4.5 -38.5t20.5 -22.5t26 -10.5t41 -7.5v-26h-316v26zM159 852l14 16l127 -85l127 85l14 -15 l-141 -151z" glyph-name="Tcaron" horiz-adv-x="603" unicode="Ť"/><glyph d="M266 478q-22 0 -22 25l1 108q0 49 42 49q24 0 35 -13t4 -38l-32 -107q-8 -24 -28 -24zM15 387v35q96 36 163 111h33v-102l121 12q-3 -28 -3 -56h-118v-272q0 -29 10.5 -40.5t32.5 -11.5q40 0 86 16v-33q-66 -29 -155 -56q-38 0 -66 27t-28 58v312h-76z" glyph-name="tcaron" horiz-adv-x="360" unicode="ť"/><glyph d="M134 331q68 -2 102 -2v264h-41q-78 0 -108.5 -31t-41.5 -101h-25l8 179l55 -10h437l55 10l8 -179h-25q-11 70 -41 101t-106 31h-43v-265l111 3l-10 -40q-68 2 -101 2v-188q0 -24 4.5 -38.5t20.5 -22.5t26 -10.5t41 -7.5v-26h-316v26q31 5 41 7.5t26 10.5t20.5 22.5 t4.5 38.5v189l-112 -3z" glyph-name="Tbar" horiz-adv-x="603" unicode="Ŧ"/><glyph d="M15 247l10 40h66v100h-76v35q96 36 163 111h33v-102l121 12q-3 -28 -3 -56h-118v-100h113l-10 -40h-103v-132q0 -29 10.5 -40.5t32.5 -11.5q40 0 86 16v-33q-66 -29 -155 -56q-38 0 -66 27t-28 58v172h-76z" glyph-name="tbar" horiz-adv-x="360" unicode="ŧ"/><glyph d="M360 -12q-49 0 -90 10.5t-81 37.5t-63 82t-23 134v273q0 23 -3.5 37t-17.5 22.5t-20.5 10.5t-33.5 7q-5 1 -8 2v26h299v-26q-51 -10 -64 -20q-19 -16 -19 -59v-288q0 -204 159 -204q29 0 55 7t53.5 26t44 59.5t16.5 98.5v301q0 23 -4 37t-17.5 22.5t-21.5 10.5t-33 7 q-6 1 -9 2v26h220v-26q-56 -10 -69 -20q-21 -16 -21 -59v-281q0 -256 -249 -256zM194 718q-8 47 22 77t75 30q37 0 78 -33t71 -33q22 0 36.5 14.5t14.5 28.5h23q8 -46 -22.5 -76.5t-75.5 -30.5q-37 0 -77.5 33t-70.5 33q-22 0 -36.5 -14.5t-14.5 -28.5h-23z" glyph-name="Utilde" horiz-adv-x="719" unicode="Ũ"/><glyph d="M208 -7q-132 0 -132 152v224q0 18 -8.5 27.5t-19 12.5t-33.5 7v24q115 -6 181 6v-296q0 -87 73 -87q51 0 100 50v256q0 18 -8.5 27.5t-19 12.5t-33.5 7v24q115 -6 181 6v-354q0 -30 12.5 -44.5t53.5 -21.5v-26h-171l6 79h-15q-38 -41 -76.5 -63.5t-90.5 -22.5zM120 528 q-8 47 22 77t75 30q37 0 78 -33t71 -33q22 0 36.5 14.5t14.5 28.5h23q8 -46 -22.5 -76.5t-75.5 -30.5q-37 0 -77.5 33t-70.5 33q-22 0 -36.5 -14.5t-14.5 -28.5h-23z" glyph-name="utilde" horiz-adv-x="570" unicode="ũ"/><glyph d="M360 -12q-49 0 -90 10.5t-81 37.5t-63 82t-23 134v273q0 23 -3.5 37t-17.5 22.5t-20.5 10.5t-33.5 7q-5 1 -8 2v26h299v-26q-51 -10 -64 -20q-19 -16 -19 -59v-288q0 -204 159 -204q29 0 55 7t53.5 26t44 59.5t16.5 98.5v301q0 23 -4 37t-17.5 22.5t-21.5 10.5t-33 7 q-6 1 -9 2v26h220v-26q-56 -10 -69 -20q-21 -16 -21 -59v-281q0 -256 -249 -256zM212 742l15 45h280l-15 -45h-280z" glyph-name="Umacron" horiz-adv-x="719" unicode="Ū"/><glyph d="M208 -7q-132 0 -132 152v224q0 18 -8.5 27.5t-19 12.5t-33.5 7v24q115 -6 181 6v-296q0 -87 73 -87q51 0 100 50v256q0 18 -8.5 27.5t-19 12.5t-33.5 7v24q115 -6 181 6v-354q0 -30 12.5 -44.5t53.5 -21.5v-26h-171l6 79h-15q-38 -41 -76.5 -63.5t-90.5 -22.5zM138 552 l15 45h280l-15 -45h-280z" glyph-name="umacron" horiz-adv-x="570" unicode="ū"/><glyph d="M360 -12q-49 0 -90 10.5t-81 37.5t-63 82t-23 134v273q0 23 -3.5 37t-17.5 22.5t-20.5 10.5t-33.5 7q-5 1 -8 2v26h299v-26q-51 -10 -64 -20q-19 -16 -19 -59v-288q0 -204 159 -204q29 0 55 7t53.5 26t44 59.5t16.5 98.5v301q0 23 -4 37t-17.5 22.5t-21.5 10.5t-33 7 q-6 1 -9 2v26h220v-26q-56 -10 -69 -20q-21 -16 -21 -59v-281q0 -256 -249 -256zM210 869h28q15 -67 121 -67t121 67h28q0 -65 -40.5 -102.5t-108.5 -37.5t-108.5 37.5t-40.5 102.5z" glyph-name="Ubreve" horiz-adv-x="719" unicode="Ŭ"/><glyph d="M208 -7q-132 0 -132 152v224q0 18 -8.5 27.5t-19 12.5t-33.5 7v24q115 -6 181 6v-296q0 -87 73 -87q51 0 100 50v256q0 18 -8.5 27.5t-19 12.5t-33.5 7v24q115 -6 181 6v-354q0 -30 12.5 -44.5t53.5 -21.5v-26h-171l6 79h-15q-38 -41 -76.5 -63.5t-90.5 -22.5zM136 679 h28q15 -67 121 -67t121 67h28q0 -65 -40.5 -102.5t-108.5 -37.5t-108.5 37.5t-40.5 102.5z" glyph-name="ubreve" horiz-adv-x="570" unicode="ŭ"/><glyph d="M360 -12q-49 0 -90 10.5t-81 37.5t-63 82t-23 134v273q0 23 -3.5 37t-17.5 22.5t-20.5 10.5t-33.5 7q-5 1 -8 2v26h299v-26q-51 -10 -64 -20q-19 -16 -19 -59v-288q0 -204 159 -204q29 0 55 7t53.5 26t44 59.5t16.5 98.5v301q0 23 -4 37t-17.5 22.5t-21.5 10.5t-33 7 q-6 1 -9 2v26h220v-26q-56 -10 -69 -20q-21 -16 -21 -59v-281q0 -256 -249 -256zM264 801q0 39 27.5 66t67.5 27t67.5 -27t27.5 -66t-27.5 -66t-67.5 -27t-67.5 27t-27.5 66zM316 801q0 -18 12 -30t31 -12t31 12t12 30t-12 30t-31 12t-31 -12t-12 -30z" glyph-name="Uring" horiz-adv-x="719" unicode="Ů"/><glyph d="M208 -7q-132 0 -132 152v224q0 18 -8.5 27.5t-19 12.5t-33.5 7v24q115 -6 181 6v-296q0 -87 73 -87q51 0 100 50v256q0 18 -8.5 27.5t-19 12.5t-33.5 7v24q115 -6 181 6v-354q0 -30 12.5 -44.5t53.5 -21.5v-26h-171l6 79h-15q-38 -41 -76.5 -63.5t-90.5 -22.5zM190 611 q0 39 27.5 66t67.5 27t67.5 -27t27.5 -66t-27.5 -66t-67.5 -27t-67.5 27t-27.5 66zM242 611q0 -18 12 -30t31 -12t31 12t12 30t-12 30t-31 12t-31 -12t-12 -30z" glyph-name="uring" horiz-adv-x="570" unicode="ů"/><glyph d="M360 -12q-49 0 -90 10.5t-81 37.5t-63 82t-23 134v273q0 23 -3.5 37t-17.5 22.5t-20.5 10.5t-33.5 7q-5 1 -8 2v26h299v-26q-51 -10 -64 -20q-19 -16 -19 -59v-288q0 -204 159 -204q29 0 55 7t53.5 26t44 59.5t16.5 98.5v301q0 23 -4 37t-17.5 22.5t-21.5 10.5t-33 7 q-6 1 -9 2v26h220v-26q-56 -10 -69 -20q-21 -16 -21 -59v-281q0 -256 -249 -256zM220 714q22 85 69 151q24 0 50.5 -19.5t34.5 -43.5q-63 -42 -124 -107zM391 714q22 85 69 151q24 0 50.5 -19.5t34.5 -43.5q-63 -42 -124 -107z" glyph-name="Uhungarumlaut" horiz-adv-x="719" unicode="Ű"/><glyph d="M208 -7q-132 0 -132 152v224q0 18 -8.5 27.5t-19 12.5t-33.5 7v24q115 -6 181 6v-296q0 -87 73 -87q51 0 100 50v256q0 18 -8.5 27.5t-19 12.5t-33.5 7v24q115 -6 181 6v-354q0 -30 12.5 -44.5t53.5 -21.5v-26h-171l6 79h-15q-38 -41 -76.5 -63.5t-90.5 -22.5zM146 524 q22 85 69 151q24 0 50.5 -19.5t34.5 -43.5q-63 -42 -124 -107zM317 524q22 85 69 151q24 0 50.5 -19.5t34.5 -43.5q-63 -42 -124 -107z" glyph-name="uhungarumlaut" horiz-adv-x="570" unicode="ű"/><glyph d="M371 -199q-42 0 -69.5 20.5t-27.5 64.5q0 33 20 59l70 43h-4q-49 0 -90 10.5t-81 37.5t-63 82t-23 134v273q0 23 -3.5 37t-17.5 22.5t-20.5 10.5t-33.5 7q-5 1 -8 2v26h299v-26q-51 -10 -64 -20q-19 -16 -19 -59v-288q0 -204 159 -204q29 0 55 7t53.5 26t44 59.5 t16.5 98.5v301q0 23 -4 37t-17.5 22.5t-21.5 10.5t-33 7q-6 1 -9 2v26h220v-26q-56 -10 -69 -20q-21 -16 -21 -59v-281q0 -205 -161 -246q-80 -32 -80 -93q0 -26 14.5 -42t39.5 -16q17 0 38 8v-20q-36 -34 -89 -34z" glyph-name="Uogonek" horiz-adv-x="712" unicode="Ų"/><glyph d="M208 -7q-132 0 -132 152v224q0 18 -8.5 27.5t-19 12.5t-33.5 7v24q115 -6 181 6v-296q0 -87 73 -87q51 0 100 50v256q0 18 -8.5 27.5t-19 12.5t-33.5 7v24q115 -6 181 6v-354q0 -30 12.5 -44.5t53.5 -21.5v-26h-98q-43 -25 -61.5 -46.5t-18.5 -48.5q0 -26 14.5 -42 t39.5 -16q17 0 38 8v-20q-36 -34 -89 -34q-42 0 -69.5 20.5t-27.5 64.5q0 33 20 59l82 55h-1l6 79h-15q-38 -41 -76.5 -63.5t-90.5 -22.5z" glyph-name="uogonek" horiz-adv-x="570" unicode="ų"/><glyph d="M83 551q-12 32 -25.5 40.5t-57.5 16.5v22h288v-22q-51 -10 -59 -19q-11 -11 -1 -38l137 -385l105 298q20 51 2 92t-74 52v22h203q0 -41 35 -137l117 -326l120 340q9 24 9.5 41t-3.5 27t-18 16.5t-27.5 9.5t-39.5 7v22h222v-22q-32 -6 -42.5 -9.5t-21.5 -14t-19 -33.5 l-202 -558h-49l-173 461l-166 -462h-49zM363 728l141 150l141 -151l-14 -15l-127 85l-127 -85z" glyph-name="Wcircumflex" horiz-adv-x="1016" unicode="Ŵ"/><glyph d="M69 371q-11 26 -23 33t-46 10v26h247v-26q-46 -6 -54 -18q-6 -9 0 -25l89 -240l81 200q16 40 4 61q-7 12 -17 15.5t-33 6.5v26h174q0 -38 18 -86l86 -224l76 191q12 30 13.5 48.5t-10 27.5t-25 12t-40.5 5v26h188v-26q-34 -3 -46 -10t-23 -33l-153 -377h-43l-134 331 l-136 -331h-43zM253 538l141 150l141 -151l-14 -15l-127 85l-127 -85z" glyph-name="wcircumflex" horiz-adv-x="797" unicode="ŵ"/><glyph d="M92 542q-24 37 -36 45.5t-51 16.5v26h293v-26q-6 -1 -18 -3.5t-17.5 -4t-14 -4.5t-11 -7t-4.5 -9.5t1 -14t10 -19.5l140 -224l138 224q10 17 11.5 27.5t-9 16.5t-19 8.5t-31.5 6.5q-11 2 -16 3v26h201v-26q-39 -8 -51.5 -16.5t-36.5 -45.5l-167 -266v-175q0 -25 4.5 -39 t20.5 -22t26 -10.5t42 -7.5v-22h-318v22q59 10 73 21q20 15 20 58v160zM187 728l141 150l141 -151l-14 -15l-127 85l-127 -85z" glyph-name="Ycircumflex" horiz-adv-x="664" unicode="Ŷ"/><glyph d="M124 -183q-34 0 -68 23v73q69 -12 112.5 -1t63.5 56l6 15l-167 384q-13 28 -25 35.5t-46 11.5v26h248v-26q-45 -7 -53 -18q-7 -10 1 -29l103 -243l105 244q4 9 4.5 15.5t-3 11t-7 7.5t-12.5 5.5t-13.5 3t-16.5 2.5q-5 1 -7 1v26h166v-26q-34 -4 -46 -11t-24 -35 l-172 -400q-64 -151 -149 -151zM115 538l141 150l141 -151l-14 -15l-127 85l-127 -85z" glyph-name="ycircumflex" horiz-adv-x="515" unicode="ŷ"/><glyph d="M92 542q-24 37 -36 45.5t-51 16.5v26h293v-26q-6 -1 -18 -3.5t-17.5 -4t-14 -4.5t-11 -7t-4.5 -9.5t1 -14t10 -19.5l140 -224l138 224q10 17 11.5 27.5t-9 16.5t-19 8.5t-31.5 6.5q-11 2 -16 3v26h201v-26q-39 -8 -51.5 -16.5t-36.5 -45.5l-167 -266v-175q0 -25 4.5 -39 t20.5 -22t26 -10.5t42 -7.5v-22h-318v22q59 10 73 21q20 15 20 58v160zM166 791q0 25 18 42.5t43 17.5t42.5 -17.5t17.5 -42.5t-17.5 -43t-42.5 -18t-43 18t-18 43zM377 791q0 25 18 42.5t43 17.5t42.5 -17.5t17.5 -42.5t-17.5 -43t-42.5 -18q-26 0 -43.5 18t-17.5 43z" glyph-name="Ydieresis" horiz-adv-x="664" unicode="Ÿ"/><glyph d="M31 0l-11 15l386 585l-191 -4q-72 -1 -100.5 -31t-33.5 -101h-29v172l63 -6h461l-395 -600l229 4q69 1 97 32t43 102h30q-19 -102 -19 -168h-530zM264 714q22 85 69 151q24 0 50.5 -19.5t34.5 -43.5q-63 -42 -124 -107z" glyph-name="Zacute" horiz-adv-x="605" unicode="Ź"/><glyph d="M31 0l-11 15l273 392l-120 -3q-84 -1 -94 -103h-30v145l59 -6h339l-283 -407l128 3q61 1 87.5 27t41.5 78h31q-19 -76 -19 -141h-402zM200 524q22 85 69 151q24 0 50.5 -19.5t34.5 -43.5q-63 -42 -124 -107z" glyph-name="zacute" horiz-adv-x="472" unicode="ź"/><glyph d="M31 0l-11 15l386 585l-191 -4q-72 -1 -100.5 -31t-33.5 -101h-29v172l63 -6h461l-395 -600l229 4q69 1 97 32t43 102h30q-19 -102 -19 -168h-530zM227 781q0 29 21.5 49.5t51.5 20.5t51.5 -20.5t21.5 -49.5t-22 -50t-51 -21t-51 21t-22 50z" glyph-name="Zdotaccent" horiz-adv-x="605" unicode="Ż"/><glyph d="M31 0l-11 15l273 392l-120 -3q-84 -1 -94 -103h-30v145l59 -6h339l-283 -407l128 3q61 1 87.5 27t41.5 78h31q-19 -76 -19 -141h-402zM163 591q0 29 21.5 49.5t51.5 20.5t51.5 -20.5t21.5 -49.5t-22 -50t-51 -21t-51 21t-22 50z" glyph-name="zdotaccent" horiz-adv-x="472" unicode="ż"/><glyph d="M31 0l-11 15l386 585l-191 -4q-72 -1 -100.5 -31t-33.5 -101h-29v172l63 -6h461l-395 -600l229 4q69 1 97 32t43 102h30q-19 -102 -19 -168h-530zM157 861l14 16l127 -85l127 85l14 -15l-141 -151z" glyph-name="Zcaron" horiz-adv-x="605" unicode="Ž"/><glyph d="M31 0l-11 15l273 392l-120 -3q-84 -1 -94 -103h-30v145l59 -6h339l-283 -407l128 3q61 1 87.5 27t41.5 78h31q-19 -76 -19 -141h-402zM93 671l14 16l127 -85l127 85l14 -15l-141 -151z" glyph-name="zcaron" horiz-adv-x="472" unicode="ž"/><glyph d="M320 -12q-123 0 -201.5 59.5t-78.5 160.5q0 47 20.5 74t59.5 27h402q1 13 1 41q0 117 -51 186.5t-150 69.5q-141 0 -173 -141h-41q7 71 7 135q77 46 196 46q157 0 255.5 -93.5t98.5 -237.5q0 -142 -95 -234.5t-250 -92.5zM186 197q0 -80 41.5 -126t100.5 -46 q75 0 126 70.5t65 181.5h-276q-57 0 -57 -80z" glyph-name="uni018F" horiz-adv-x="705" unicode="Ə"/><glyph d="M128 -175q-96 0 -113 64q3 26 31 45.5t63 23.5q17 -86 65 -86q30 0 55.5 27t34.5 97l48 403h-70v26l75 15q18 116 96.5 180.5t172.5 64.5q96 0 113 -64q-3 -26 -31 -45.5t-63 -23.5q-17 86 -65 86q-30 0 -55.5 -27t-34.5 -97l-9 -73l123 11q-5 -24 -5 -53h-123l-38 -319 q-15 -121 -94.5 -188t-175.5 -67z" glyph-name="florin" horiz-adv-x="629" unicode="ƒ"/><glyph d="M361 -12q-139 0 -230 92t-91 233q0 144 92 238.5t233 94.5q92 0 216 -33q0 40 -20 140l104 -10q-10 -50 -10 -175l-98 19q61 -44 95 -113.5t34 -155.5q0 -142 -92 -236t-233 -94zM180 343q0 -141 54 -228t144 -87q79 0 123.5 68.5t44.5 191.5q0 143 -54 230.5t-144 87.5 q-79 0 -123.5 -69t-44.5 -194z" glyph-name="Ohorn" horiz-adv-x="726" unicode="Ơ"/><glyph d="M264 -9q-100 0 -167 61.5t-67 164.5q0 106 71.5 169t173.5 63q92 0 216 -33q0 40 -20 140l104 -10q-10 -50 -10 -175l-133 25q77 -64 77 -173q0 -106 -71.5 -169t-173.5 -63zM157 241q0 -86 31.5 -150t89.5 -64q46 0 75 44.5t29 127.5q0 86 -31.5 150t-89.5 64 q-46 0 -75 -44.5t-29 -127.5z" glyph-name="ohorn" horiz-adv-x="539" unicode="ơ"/><glyph d="M360 -12q-49 0 -90 10.5t-81 37.5t-63 82t-23 134v273q0 23 -3.5 37t-17.5 22.5t-20.5 10.5t-33.5 7q-5 1 -8 2v26h299v-26q-51 -10 -64 -20q-19 -16 -19 -59v-288q0 -204 159 -204q29 0 55 7t53.5 26t44 59.5t16.5 98.5v301q0 23 -4 37t-17.5 22.5t-21.5 10.5t-33 7 q-6 1 -9 2v26h216q0 31 -20 117l104 -10q-10 -44 -10 -133h-70q-56 -10 -69 -20q-21 -16 -21 -59v-281q0 -256 -249 -256z" glyph-name="Uhorn" horiz-adv-x="719" unicode="Ư"/><glyph d="M308 416v24l203 8q0 23 -20 109l104 -10q-10 -44 -10 -131h-96v-324q0 -30 12.5 -44.5t53.5 -21.5v-26h-171l6 79h-15q-38 -41 -76.5 -63.5t-90.5 -22.5q-132 0 -132 152v224q0 18 -8.5 27.5t-19 12.5t-33.5 7v24q115 -6 181 6v-296q0 -87 73 -87q51 0 100 50v256 q0 18 -8.5 27.5t-19 12.5t-33.5 7z" glyph-name="uhorn" horiz-adv-x="570" unicode="ư"/><glyph d="M0 26q41 7 55 16.5t28 41.5l238 553h43l241 -554q14 -32 28 -41t55 -16v-26h-288v26q50 10 60 19q13 13 2 38l-45 104h-244l-44 -104q-15 -18 -3 -30.5t20.5 -16t34.5 -8.5q6 -1 9 -2v-26h-190v26zM189 225h211l-107 247zM199 861l14 16l127 -85l127 85l14 -15l-141 -151 z" glyph-name="uni01CD" horiz-adv-x="688" unicode="Ǎ"/><glyph d="M405 -7q-33 0 -58 24.5t-27 55.5q-78 -80 -171 -80q-53 0 -88.5 27.5t-35.5 78.5q0 26 11 46t25 33t45 26.5t52.5 20t66.5 19.5q4 1 15.5 4t15.5 4.5t13.5 4.5t13.5 4.5t11 5t11 7t8 8t7 9.5v17q0 58 -24.5 79t-79.5 21q-24 0 -35 -27q-20 -54 -37.5 -75t-41.5 -21 q-21 0 -33.5 12t-12.5 31q0 50 81.5 85.5t158.5 35.5q144 0 144 -153v-201q0 -24 22 -28.5t53 13.5v-26q-53 -45 -110 -61zM112 671l14 16l127 -85l127 85l14 -15l-141 -151zM148 125q0 -32 19 -51.5t49 -19.5q56 0 104 61v120l-86 -24q-86 -25 -86 -86z" glyph-name="uni01CE" horiz-adv-x="525" unicode="ǎ"/><glyph d="M20 26q51 10 64 20q19 16 19 59v420q0 23 -3.5 37t-17.5 22.5t-20.5 10.5t-33.5 7q-5 1 -8 2v26h298v-26q-51 -10 -64 -20q-19 -16 -19 -59v-420q0 -23 3.5 -37t17.5 -22.5t20.5 -10.5t33.5 -7q5 -1 8 -2v-26h-298v26zM26 861l14 16l127 -85l127 85l14 -15l-141 -151z " glyph-name="uni01CF" horiz-adv-x="338" unicode="Ǐ"/><glyph d="M20 26q20 4 29 6t19.5 8t14 16t3.5 26v229q0 30 -12.5 44t-53.5 19v24q104 18 165 58l21 -19v-355q0 -16 3.5 -26t14 -16t19.5 -8t29 -6v-26h-252v26zM-2 671l14 16l127 -85l127 85l14 -15l-141 -151z" glyph-name="uni01D0" horiz-adv-x="292" unicode="ǐ"/><glyph d="M361 -12q-139 0 -230 92t-91 233q0 144 92 238.5t233 94.5q139 0 230 -92.5t91 -235.5q0 -142 -92 -236t-233 -94zM180 343q0 -141 54 -228t144 -87q79 0 123.5 68.5t44.5 191.5q0 143 -54 230.5t-144 87.5q-79 0 -123.5 -69t-44.5 -194zM222 861l14 16l127 -85l127 85 l14 -15l-141 -151z" glyph-name="uni01D1" horiz-adv-x="726" unicode="Ǒ"/><glyph d="M264 -9q-100 0 -167 61.5t-67 164.5q0 106 71.5 169t173.5 63q100 0 167 -61.5t67 -164.5q0 -106 -71.5 -169t-173.5 -63zM129 671l14 16l127 -85l127 85l14 -15l-141 -151zM157 241q0 -86 31.5 -150t89.5 -64q46 0 75 44.5t29 127.5q0 86 -31.5 150t-89.5 64 q-46 0 -75 -44.5t-29 -127.5z" glyph-name="uni01D2" horiz-adv-x="539" unicode="ǒ"/><glyph d="M360 -12q-49 0 -90 10.5t-81 37.5t-63 82t-23 134v273q0 23 -3.5 37t-17.5 22.5t-20.5 10.5t-33.5 7q-5 1 -8 2v26h299v-26q-51 -10 -64 -20q-19 -16 -19 -59v-288q0 -204 159 -204q29 0 55 7t53.5 26t44 59.5t16.5 98.5v301q0 23 -4 37t-17.5 22.5t-21.5 10.5t-33 7 q-6 1 -9 2v26h220v-26q-56 -10 -69 -20q-21 -16 -21 -59v-281q0 -256 -249 -256zM218 861l14 16l127 -85l127 85l14 -15l-141 -151z" glyph-name="uni01D3" horiz-adv-x="719" unicode="Ǔ"/><glyph d="M208 -7q-132 0 -132 152v224q0 18 -8.5 27.5t-19 12.5t-33.5 7v24q115 -6 181 6v-296q0 -87 73 -87q51 0 100 50v256q0 18 -8.5 27.5t-19 12.5t-33.5 7v24q115 -6 181 6v-354q0 -30 12.5 -44.5t53.5 -21.5v-26h-171l6 79h-15q-38 -41 -76.5 -63.5t-90.5 -22.5zM144 671 l14 16l127 -85l127 85l14 -15l-141 -151z" glyph-name="uni01D4" horiz-adv-x="570" unicode="ǔ"/><glyph d="M360 -12q-49 0 -90 10.5t-81 37.5t-63 82t-23 134v273q0 23 -3.5 37t-17.5 22.5t-20.5 10.5t-33.5 7q-5 1 -8 2v26h299v-26q-51 -10 -64 -20q-19 -16 -19 -59v-288q0 -204 159 -204q29 0 55 7t53.5 26t44 59.5t16.5 98.5v301q0 23 -4 37t-17.5 22.5t-21.5 10.5t-33 7 q-6 1 -9 2v26h220v-26q-56 -10 -69 -20q-21 -16 -21 -59v-281q0 -256 -249 -256zM193 791q0 25 18 42.5t43 17.5t42.5 -17.5t17.5 -42.5t-17.5 -43t-42.5 -18q-26 0 -43.5 18t-17.5 43zM212 932l15 45h280l-15 -45h-280zM404 791q0 25 18 42.5t43 17.5t42.5 -17.5 t17.5 -42.5t-17.5 -43t-42.5 -18t-43 18t-18 43z" glyph-name="uni01D5" horiz-adv-x="719" unicode="Ǖ"/><glyph d="M208 -7q-132 0 -132 152v224q0 18 -8.5 27.5t-19 12.5t-33.5 7v24q115 -6 181 6v-296q0 -87 73 -87q51 0 100 50v256q0 18 -8.5 27.5t-19 12.5t-33.5 7v24q115 -6 181 6v-354q0 -30 12.5 -44.5t53.5 -21.5v-26h-171l6 79h-15q-38 -41 -76.5 -63.5t-90.5 -22.5zM119 601 q0 25 18 42.5t43 17.5t42.5 -17.5t17.5 -42.5t-17.5 -43t-42.5 -18q-26 0 -43.5 18t-17.5 43zM138 742l15 45h280l-15 -45h-280zM330 601q0 25 18 42.5t43 17.5t42.5 -17.5t17.5 -42.5t-17.5 -43t-42.5 -18t-43 18t-18 43z" glyph-name="uni01D6" horiz-adv-x="570" unicode="ǖ"/><glyph d="M360 -12q-49 0 -90 10.5t-81 37.5t-63 82t-23 134v273q0 23 -3.5 37t-17.5 22.5t-20.5 10.5t-33.5 7q-5 1 -8 2v26h299v-26q-51 -10 -64 -20q-19 -16 -19 -59v-288q0 -204 159 -204q29 0 55 7t53.5 26t44 59.5t16.5 98.5v301q0 23 -4 37t-17.5 22.5t-21.5 10.5t-33 7 q-6 1 -9 2v26h220v-26q-56 -10 -69 -20q-21 -16 -21 -59v-281q0 -256 -249 -256zM193 791q0 25 18 42.5t43 17.5t42.5 -17.5t17.5 -42.5t-17.5 -43t-42.5 -18q-26 0 -43.5 18t-17.5 43zM323 904q22 85 69 151q24 0 50.5 -19.5t34.5 -43.5q-63 -42 -124 -107zM404 791 q0 25 18 42.5t43 17.5t42.5 -17.5t17.5 -42.5t-17.5 -43t-42.5 -18t-43 18t-18 43z" glyph-name="uni01D7" horiz-adv-x="719" unicode="Ǘ"/><glyph d="M208 -7q-132 0 -132 152v224q0 18 -8.5 27.5t-19 12.5t-33.5 7v24q115 -6 181 6v-296q0 -87 73 -87q51 0 100 50v256q0 18 -8.5 27.5t-19 12.5t-33.5 7v24q115 -6 181 6v-354q0 -30 12.5 -44.5t53.5 -21.5v-26h-171l6 79h-15q-38 -41 -76.5 -63.5t-90.5 -22.5zM119 601 q0 25 18 42.5t43 17.5t42.5 -17.5t17.5 -42.5t-17.5 -43t-42.5 -18q-26 0 -43.5 18t-17.5 43zM249 714q22 85 69 151q24 0 50.5 -19.5t34.5 -43.5q-63 -42 -124 -107zM330 601q0 25 18 42.5t43 17.5t42.5 -17.5t17.5 -42.5t-17.5 -43t-42.5 -18t-43 18t-18 43z" glyph-name="uni01D8" horiz-adv-x="570" unicode="ǘ"/><glyph d="M360 -12q-49 0 -90 10.5t-81 37.5t-63 82t-23 134v273q0 23 -3.5 37t-17.5 22.5t-20.5 10.5t-33.5 7q-5 1 -8 2v26h299v-26q-51 -10 -64 -20q-19 -16 -19 -59v-288q0 -204 159 -204q29 0 55 7t53.5 26t44 59.5t16.5 98.5v301q0 23 -4 37t-17.5 22.5t-21.5 10.5t-33 7 q-6 1 -9 2v26h220v-26q-56 -10 -69 -20q-21 -16 -21 -59v-281q0 -256 -249 -256zM193 791q0 25 18 42.5t43 17.5t42.5 -17.5t17.5 -42.5t-17.5 -43t-42.5 -18q-26 0 -43.5 18t-17.5 43zM218 1051l14 16l127 -85l127 85l14 -15l-141 -151zM404 791q0 25 18 42.5t43 17.5 t42.5 -17.5t17.5 -42.5t-17.5 -43t-42.5 -18t-43 18t-18 43z" glyph-name="uni01D9" horiz-adv-x="719" unicode="Ǚ"/><glyph d="M208 -7q-132 0 -132 152v224q0 18 -8.5 27.5t-19 12.5t-33.5 7v24q115 -6 181 6v-296q0 -87 73 -87q51 0 100 50v256q0 18 -8.5 27.5t-19 12.5t-33.5 7v24q115 -6 181 6v-354q0 -30 12.5 -44.5t53.5 -21.5v-26h-171l6 79h-15q-38 -41 -76.5 -63.5t-90.5 -22.5zM119 601 q0 25 18 42.5t43 17.5t42.5 -17.5t17.5 -42.5t-17.5 -43t-42.5 -18q-26 0 -43.5 18t-17.5 43zM144 861l14 16l127 -85l127 85l14 -15l-141 -151zM330 601q0 25 18 42.5t43 17.5t42.5 -17.5t17.5 -42.5t-17.5 -43t-42.5 -18t-43 18t-18 43z" glyph-name="uni01DA" horiz-adv-x="570" unicode="ǚ"/><glyph d="M360 -12q-49 0 -90 10.5t-81 37.5t-63 82t-23 134v273q0 23 -3.5 37t-17.5 22.5t-20.5 10.5t-33.5 7q-5 1 -8 2v26h299v-26q-51 -10 -64 -20q-19 -16 -19 -59v-288q0 -204 159 -204q29 0 55 7t53.5 26t44 59.5t16.5 98.5v301q0 23 -4 37t-17.5 22.5t-21.5 10.5t-33 7 q-6 1 -9 2v26h220v-26q-56 -10 -69 -20q-21 -16 -21 -59v-281q0 -256 -249 -256zM193 791q0 25 18 42.5t43 17.5t42.5 -17.5t17.5 -42.5t-17.5 -43t-42.5 -18q-26 0 -43.5 18t-17.5 43zM246 992q8 24 34.5 43.5t50.5 19.5q47 -66 69 -151l-30 -19q-61 65 -124 107zM404 791 q0 25 18 42.5t43 17.5t42.5 -17.5t17.5 -42.5t-17.5 -43t-42.5 -18t-43 18t-18 43z" glyph-name="uni01DB" horiz-adv-x="719" unicode="Ǜ"/><glyph d="M208 -7q-132 0 -132 152v224q0 18 -8.5 27.5t-19 12.5t-33.5 7v24q115 -6 181 6v-296q0 -87 73 -87q51 0 100 50v256q0 18 -8.5 27.5t-19 12.5t-33.5 7v24q115 -6 181 6v-354q0 -30 12.5 -44.5t53.5 -21.5v-26h-171l6 79h-15q-38 -41 -76.5 -63.5t-90.5 -22.5zM119 601 q0 25 18 42.5t43 17.5t42.5 -17.5t17.5 -42.5t-17.5 -43t-42.5 -18q-26 0 -43.5 18t-17.5 43zM172 802q8 24 34.5 43.5t50.5 19.5q47 -66 69 -151l-30 -19q-61 65 -124 107zM330 601q0 25 18 42.5t43 17.5t42.5 -17.5t17.5 -42.5t-17.5 -43t-42.5 -18t-43 18t-18 43z" glyph-name="uni01DC" horiz-adv-x="570" unicode="ǜ"/><glyph d="M0 26q39 8 53 17.5t35 46.5l250 431q11 19 12 33t-5.5 22t-20 13.5t-27 8t-30.5 5.5q-5 1 -8 1v26h571l9 -146h-31q-7 57 -27 81.5t-71 24.5h-79q-59 0 -76.5 -13t-17.5 -63v-177h67q86 0 110 17t29 67h25v-206h-25q-5 50 -29 67t-110 17h-67v-183q0 -50 17.5 -63 t76.5 -13h58q59 0 92 24.5t61 89.5h31l-41 -154h-510v26q51 10 64 20q19 16 19 59v107h-201l-69 -121q-4 -8 -6.5 -14t-3.5 -11t1 -9.5t3.5 -7.5t7 -6t8 -4.5t10.5 -3.5t11 -3t13 -3t13 -3v-26h-192v26zM226 250h179v275q0 19 -3 31zM453 742l15 45h280l-15 -45h-280z" glyph-name="uni01E2" horiz-adv-x="898" unicode="Ǣ"/><glyph d="M149 -7q-53 0 -88.5 27.5t-35.5 78.5q0 26 11 46t25 33t45 26.5t52.5 20t66.5 19.5q31 9 46.5 14.5t32 19t16.5 30.5q0 58 -24.5 79t-79.5 21q-26 0 -36 -27q-21 -55 -38 -76t-42 -21q-19 0 -31.5 12.5t-12.5 31.5q0 50 81.5 85.5t158.5 35.5q76 0 111 -46q61 46 144 46 q107 0 160 -70.5t23 -143.5h-294q8 -78 53 -125t115 -47q79 0 113 48l19 -14q-19 -49 -69 -76.5t-118 -27.5t-122.5 29t-83.5 81q-94 -110 -198 -110zM148 125q0 -32 19 -51.5t49 -19.5q33 0 64 22.5t52 56.5q-14 40 -14 85q0 12 1 18l-85 -25q-86 -25 -86 -86zM246 552 l15 45h280l-15 -45h-280zM439 272h183q9 54 -12.5 97t-69.5 43q-42 0 -70.5 -36t-30.5 -104z" glyph-name="uni01E3" horiz-adv-x="779" unicode="ǣ"/><glyph d="M396 -12q-165 0 -260.5 91.5t-95.5 233.5q0 144 99 238.5t256 94.5q124 0 201 -46q4 -91 7 -135h-41q-32 141 -181 141q-99 0 -149 -67.5t-50 -191.5q0 -143 57 -231t156 -88q57 0 80.5 24.5t23.5 82.5v34q0 64 -21 84.5t-84 25.5v30h281v-30q-32 -5 -47 -20t-15 -50v-34 q0 -88 16 -132q-32 -23 -95 -39t-138 -16zM212 861l14 16l127 -85l127 85l14 -15l-141 -151z" glyph-name="Gcaron" horiz-adv-x="710" unicode="Ǧ"/><glyph d="M205 -190q-95 0 -142.5 32.5t-47.5 76.5q0 20 28 46.5t66 43.5q-57 25 -57 71q0 19 33.5 50.5t69.5 43.5q-49 17 -75 52t-26 79q0 61 48.5 102.5t133.5 41.5q39 0 74 -10q33 -8 179 -8v-69l-92 15q21 -32 21 -72q0 -61 -48.5 -102t-133.5 -41h-29q-47 0 -47 -33 q0 -28 44 -32l102 -9q101 -9 136 -28.5t35 -66.5q0 -83 -76 -133t-196 -50zM108 -70q0 -77 130 -77q70 0 109.5 25.5t39.5 62.5q0 23 -19 31t-68 12l-115 9q-37 3 -57 -15.5t-20 -47.5zM117 671l14 16l127 -85l127 85l14 -15l-141 -151zM161 305q0 -44 17 -78.5t58 -34.5 t58 34.5t17 78.5t-17 79t-58 35t-58 -35t-17 -79z" glyph-name="gcaron" horiz-adv-x="519" unicode="ǧ"/><glyph d="M20 26q51 10 64 20q19 16 19 59v420q0 23 -3.5 37t-17.5 22.5t-20.5 10.5t-33.5 7q-5 1 -8 2v26h298v-26q-51 -10 -64 -20q-19 -16 -19 -59v-208l244 240q22 22 11 34.5t-52 12.5v26h221v-26q-46 0 -70 -11t-50 -36l-163 -160l238 -343q13 -18 29 -23t57 -5v-26h-216 q0 23 -32 70l-163 240l-54 -53v-152q0 -23 3.5 -37t17.5 -22.5t20.5 -10.5t33.5 -7q5 -1 8 -2v-26h-298v26zM214 861l14 16l127 -85l127 85l14 -15l-141 -151z" glyph-name="uni01E8" horiz-adv-x="705" unicode="Ǩ"/><glyph d="M392 0q0 30 -19 57l-107 157l-53 -51v-81q0 -21 10 -32.5t22 -15t41 -8.5v-26h-266v26q29 5 41 8.5t22 15t10 32.5v461q0 30 -13.5 44t-59.5 19v24q99 14 173 57l20 -19v-449l149 142q47 44 -35 52v27h209v-27q-43 -3 -68.5 -16.5t-54.5 -40.5l-70 -67l159 -227 q12 -18 28 -24.5t50 -10.5v-27h-188zM-8 865l14 16l127 -85l127 85l14 -15l-141 -151z" glyph-name="uni01E9" horiz-adv-x="585" unicode="ǩ"/><glyph d="M257 -12q-121 0 -209 63l-8 130h29q20 -71 67.5 -113.5t113.5 -42.5q55 0 88 31t33 79q0 44 -32 75.5t-101 62.5q-40 18 -68 34t-58 41t-45.5 58t-15.5 73q0 76 57 121.5t161 45.5q19 0 37 -2t32 -4.5t29 -7.5t24 -8.5t21 -10t17 -9.5t15 -9.5t12 -7.5l3 -132h-27 q-42 154 -157 154q-52 0 -78.5 -26.5t-26.5 -65.5q0 -36 27 -63t94 -58q30 -13 44.5 -20.5t44 -24t46 -32t35.5 -37.5t28 -48.5t9 -57.5q0 -84 -68 -136t-173 -52zM174 -309q77 27 92 83q6 28 -19 43q-42 24 -42 65q0 29 21 49.5t52 20.5q32 0 54 -24.5t22 -67.5 q0 -63 -46 -120.5t-125 -74.5z" glyph-name="uni0218" horiz-adv-x="533" unicode="Ș"/><glyph d="M182 -9q-87 0 -150 40l-2 94h39q34 -99 124 -99q40 0 60 17t20 45q0 31 -23 47.5t-76 35.5q-62 22 -102.5 55t-40.5 92q0 61 47.5 96t126.5 35q70 0 134 -38v-93h-38q-28 96 -106 96q-32 0 -50.5 -15t-18.5 -40t21 -43.5t66 -34.5q35 -12 55.5 -21.5t49 -27.5t42.5 -44 t14 -59q0 -65 -53.5 -101.5t-138.5 -36.5zM106 -309q77 27 92 83q6 28 -19 43q-42 24 -42 65q0 29 21 49.5t52 20.5q32 0 54 -24.5t22 -67.5q0 -63 -46 -120.5t-125 -74.5z" glyph-name="uni0219" horiz-adv-x="404" unicode="ș"/><glyph d="M144 26q31 5 41 7.5t26 10.5t20.5 22.5t4.5 38.5v488h-41q-78 0 -108.5 -31t-41.5 -101h-25l8 179l55 -10h437l55 10l8 -179h-25q-11 70 -41 101t-106 31h-43v-488q0 -24 4.5 -38.5t20.5 -22.5t26 -10.5t41 -7.5v-26h-316v26zM209 -309q77 27 92 83q6 28 -19 43 q-42 24 -42 65q0 29 21 49.5t52 20.5q32 0 54 -24.5t22 -67.5q0 -63 -46 -120.5t-125 -74.5z" glyph-name="uni021A" horiz-adv-x="603" unicode="Ț"/><glyph d="M185 -10q-38 0 -66 27t-28 58v312h-76v35q96 36 163 111h33v-102l121 12q-3 -28 -3 -56h-118v-272q0 -29 10.5 -40.5t32.5 -11.5q40 0 86 16v-33q-66 -29 -155 -56zM82 -309q77 27 92 83q6 28 -19 43q-42 24 -42 65q0 29 21 49.5t52 20.5q32 0 54 -24.5t22 -67.5 q0 -63 -46 -120.5t-125 -74.5z" glyph-name="uni021B" horiz-adv-x="360" unicode="ț"/><glyph d="M92 542q-24 37 -36 45.5t-51 16.5v26h293v-26q-6 -1 -18 -3.5t-17.5 -4t-14 -4.5t-11 -7t-4.5 -9.5t1 -14t10 -19.5l140 -224l138 224q10 17 11.5 27.5t-9 16.5t-19 8.5t-31.5 6.5q-11 2 -16 3v26h201v-26q-39 -8 -51.5 -16.5t-36.5 -45.5l-167 -266v-175q0 -25 4.5 -39 t20.5 -22t26 -10.5t42 -7.5v-22h-318v22q59 10 73 21q20 15 20 58v160zM185 742l15 45h280l-15 -45h-280z" glyph-name="uni0232" horiz-adv-x="664" unicode="Ȳ"/><glyph d="M124 -183q-34 0 -68 23v73q69 -12 112.5 -1t63.5 56l6 15l-167 384q-13 28 -25 35.5t-46 11.5v26h248v-26q-45 -7 -53 -18q-7 -10 1 -29l103 -243l105 244q4 9 4.5 15.5t-3 11t-7 7.5t-12.5 5.5t-13.5 3t-16.5 2.5q-5 1 -7 1v26h166v-26q-34 -4 -46 -11t-24 -35 l-172 -400q-64 -151 -149 -151zM113 552l15 45h280l-15 -45h-280z" glyph-name="uni0233" horiz-adv-x="515" unicode="ȳ"/><glyph d="M-6 -185q-8 15 0 30q54 17 70 43t16 100v323q0 30 -12.5 44t-53.5 19v24q104 18 165 58l21 -19v-454q0 -42 -21 -74.5t-55 -51t-65.5 -28.5t-64.5 -14z" glyph-name="uni0237" horiz-adv-x="265" unicode="ȷ"/><glyph d="M232 -7q-106 0 -161.5 70t-35.5 144h306q-6 79 -48.5 125.5t-111.5 46.5q-80 0 -114 -48l-19 14q16 49 66.5 76.5t118.5 27.5q103 0 167.5 -61t64.5 -164q0 -104 -67.5 -167.5t-165.5 -63.5zM153 170q-4 -55 18.5 -97.5t69.5 -42.5q42 0 70.5 36t30.5 104h-189z" glyph-name="uni0259" horiz-adv-x="495" unicode="ə"/><glyph d="M143 688l141 -151l-14 -15l-127 85l-127 -85l-14 16z" glyph-name="circumflex" horiz-adv-x="294" unicode="ˆ"/><glyph d="M143 521l-141 150l14 16l127 -85l127 85l14 -15z" glyph-name="caron" horiz-adv-x="286" unicode="ˇ"/><glyph d="M151 539q-68 0 -108.5 37.5t-40.5 102.5h28q15 -67 121 -67t121 67h28q0 -65 -40.5 -102.5t-108.5 -37.5z" glyph-name="breve" horiz-adv-x="302" unicode="˘"/><glyph d="M83 520q-29 0 -51 21t-22 50t21.5 49.5t51.5 20.5t51.5 -20.5t21.5 -49.5t-22 -50t-51 -21z" glyph-name="dotaccent" horiz-adv-x="166" unicode="˙"/><glyph d="M97 518q-40 0 -67.5 27t-27.5 66t27.5 66t67.5 27t67.5 -27t27.5 -66t-27.5 -66t-67.5 -27zM54 611q0 -18 12 -30t31 -12t31 12t12 30t-12 30t-31 12t-31 -12t-12 -30z" glyph-name="ring" horiz-adv-x="194" unicode="˚"/><glyph d="M99 -183q-42 0 -69.5 20.5t-27.5 64.5q0 33 20 59l154 103v-48q-43 -25 -61.5 -46.5t-18.5 -48.5q0 -26 14.5 -42t39.5 -16q17 0 38 8v-20q-36 -34 -89 -34z" glyph-name="ogonek" horiz-adv-x="190" unicode="˛"/><glyph d="M233 505q-37 0 -77.5 33t-70.5 33q-22 0 -36.5 -14.5t-14.5 -28.5h-23q-8 47 22.5 77t74.5 30q37 0 78 -33t71 -33q22 0 36.5 14.5t14.5 28.5h23q8 -46 -22.5 -76.5t-75.5 -30.5z" glyph-name="tilde" horiz-adv-x="342" unicode="˜"/><glyph d="M173 524q22 85 69 151q24 0 50.5 -19.5t34.5 -43.5q-63 -42 -124 -107zM2 524q22 85 69 151q24 0 50.5 -19.5t34.5 -43.5q-63 -42 -124 -107z" glyph-name="hungarumlaut" horiz-adv-x="329" unicode="˝"/><glyph d="M132 505q-61 65 -124 107q8 24 34.5 43.5t50.5 19.5q47 -66 69 -151z" glyph-name="gravecomb" unicode="̀"/><glyph d="M3 524q22 85 69 151q24 0 50.5 -19.5t34.5 -43.5q-63 -42 -124 -107z" glyph-name="acutecomb" unicode="́"/><glyph d="M143 688l141 -151l-14 -15l-127 85l-127 -85l-14 16z" glyph-name="uni0302" unicode="̂"/><glyph d="M233 505q-37 0 -77.5 33t-70.5 33q-22 0 -36.5 -14.5t-14.5 -28.5h-23q-8 47 22.5 77t74.5 30q37 0 78 -33t71 -33q22 0 36.5 14.5t14.5 28.5h23q8 -46 -22.5 -76.5t-75.5 -30.5z" glyph-name="tildecomb" unicode="̃"/><glyph d="M-3 552l15 45h280l-15 -45h-280z" glyph-name="uni0304" unicode="̄"/><glyph d="M151 539q-68 0 -108.5 37.5t-40.5 102.5h28q15 -67 121 -67t121 67h28q0 -65 -40.5 -102.5t-108.5 -37.5z" glyph-name="uni0306" unicode="̆"/><glyph d="M83 520q-29 0 -51 21t-22 50t21.5 49.5t51.5 20.5t51.5 -20.5t21.5 -49.5t-22 -50t-51 -21z" glyph-name="uni0307" unicode="̇"/><glyph d="M282 540q-26 0 -43.5 18t-17.5 43t18 42.5t43 17.5t42.5 -17.5t17.5 -42.5t-17.5 -43t-42.5 -18zM10 601q0 25 18 42.5t43 17.5t42.5 -17.5t17.5 -42.5t-17.5 -43t-42.5 -18t-43 18t-18 43z" glyph-name="uni0308" unicode="̈"/><glyph d="M15 520q60 0 87 5.5t27 22.5q0 19 -30.5 34t-83.5 15v60h31q65 0 102 -22.5t37 -58.5q0 -38 -41 -64t-94 -26z" glyph-name="hookabovecomb" unicode="̉"/><glyph d="M97 518q-40 0 -67.5 27t-27.5 66t27.5 66t67.5 27t67.5 -27t27.5 -66t-27.5 -66t-67.5 -27zM54 611q0 -18 12 -30t31 -12t31 12t12 30t-12 30t-31 12t-31 -12t-12 -30z" glyph-name="uni030A" unicode="̊"/><glyph d="M143 521l-141 150l14 16l127 -85l127 85l14 -15z" glyph-name="uni030C" unicode="̌"/><glyph d="M151 539q-68 0 -108.5 37.5t-40.5 102.5h28q15 -67 121 -67t121 67h28q0 -65 -40.5 -102.5t-108.5 -37.5zM91 721q0 25 18 42.5t43 17.5t42.5 -17.5t17.5 -42.5t-17.5 -43t-42.5 -18q-26 0 -43.5 18t-17.5 43z" glyph-name="uni0310" unicode="̐"/><glyph d="M290 371l-290 55v23q92 0 216 -33q0 40 -20 140l104 -10q-10 -50 -10 -175z" glyph-name="uni031B" unicode="̛"/><glyph d="M83 -202q-30 0 -51.5 21t-21.5 52q0 29 21.5 50t51.5 21q29 0 50.5 -21t21.5 -50q0 -31 -21.5 -52t-50.5 -21z" glyph-name="dotbelowcomb" unicode="̣"/><glyph d="M322 -176q-26 0 -43.5 18t-17.5 43t18 42.5t43 17.5t42.5 -17.5t17.5 -42.5t-17.5 -43t-42.5 -18zM50 -115q0 25 18 42.5t43 17.5t42.5 -17.5t17.5 -42.5t-17.5 -43t-42.5 -18t-43 18t-18 43z" glyph-name="uni0324" unicode="̤"/><glyph d="M145 -213q-40 0 -67.5 27t-27.5 66t27.5 66t67.5 27t67.5 -27t27.5 -66t-27.5 -66t-67.5 -27zM102 -120q0 -18 12 -30t31 -12t31 12t12 30t-12 30t-31 12t-31 -12t-12 -30z" glyph-name="uni0325" unicode="̥"/><glyph d="M15 -309q77 27 92 83q6 28 -19 43q-42 24 -42 65q0 29 21 49.5t52 20.5q32 0 54 -24.5t22 -67.5q0 -63 -46 -120.5t-125 -74.5z" glyph-name="uni0326" unicode="̦"/><glyph d="M76 -186q46 0 67.5 13t21.5 32q0 43 -112 43l50 98h48l-22 -44q43 0 76.5 -22t33.5 -60q0 -86 -168 -86z" glyph-name="uni0327" unicode="̧"/><glyph d="M199 -182q-68 0 -108.5 37.5t-40.5 102.5h28q15 -67 121 -67t121 67h28q0 -65 -40.5 -102.5t-108.5 -37.5z" glyph-name="uni032E" unicode="̮"/><glyph d="M50 -117l15 45h280l-15 -45h-280z" glyph-name="uni0331" unicode="̱"/><glyph d="M50 -117l15 45h560l-15 -45h-560z" glyph-name="uni035F" unicode="͟"/><glyph d="M0 0l292 634l292 -634h-584zM81 97h338l-166 384z" glyph-name="uni0394" horiz-adv-x="584" unicode="Δ"/><glyph d="M192 93q-145 104 -145 252q0 123 91.5 207.5t232.5 84.5t232.5 -84.5t91.5 -207.5q0 -148 -145 -252h10q42 0 59.5 1t34.5 7.5t28 20.5h20l-36 -122h-222v93q39 19 74 88.5t35 153.5q0 117 -49.5 189.5t-132.5 72.5t-132.5 -72.5t-49.5 -189.5q0 -84 35 -153.5t74 -88.5 v-93h-222l-36 122h20q15 -20 39 -24.5t83 -4.5h10z" glyph-name="uni03A9" horiz-adv-x="742" unicode="Ω"/><glyph d="M76 -145v514q0 18 -8.5 27.5t-19 12.5t-33.5 7v24q115 -6 181 6v-296q0 -87 73 -87q51 0 100 50v256q0 18 -8.5 27.5t-19 12.5t-33.5 7v24q115 -6 181 6v-354q0 -30 12.5 -44.5t53.5 -21.5v-26h-171l6 79h-15q-38 -41 -76.5 -63.5t-90.5 -22.5q-37 0 -65 13 q4 -36 13.5 -62.5t18.5 -37.5t16 -21t7 -18q0 -35 -30.5 -55.5t-61 -9t-30.5 52.5z" glyph-name="uni03BC" horiz-adv-x="570" unicode="μ"/><glyph d="M568 -10q-61 0 -104 36t-43 104v234h-115v-239q0 -62 -40 -96.5t-94 -34.5q-44 0 -77 12l-10 36q42 -10 71.5 10.5t29.5 72.5v239h-42q-36 0 -52.5 -20t-6.5 -58l-34 18q-15 38 -13 70.5t28.5 54.5t72.5 22h496v-87h-94v-257q0 -64 29 -64q11 0 18.5 12t12 26.5t15 26.5 t27.5 12q20 0 32 -12.5t12 -35.5q0 -42 -36.5 -62t-82.5 -20z" glyph-name="pi" horiz-adv-x="724" unicode="π"/><glyph d="M20 26q51 10 64 20q19 16 19 59v420q0 23 -3.5 37t-17.5 22.5t-20.5 10.5t-33.5 7q-5 1 -8 2v26h284q70 0 133.5 -18t117 -53.5t85 -97.5t31.5 -142q0 -82 -31 -145.5t-84 -100t-116.5 -55t-135.5 -18.5h-284v26zM235 135q0 -53 20.5 -74.5t76.5 -21.5q97 0 147 71 t50 199q0 130 -57.5 206t-177.5 76h-59v-456zM273 -129q0 29 21.5 50t51.5 21q29 0 50.5 -21t21.5 -50q0 -31 -21 -52t-51 -21t-51.5 21t-21.5 52z" glyph-name="uni1E0C" horiz-adv-x="711" unicode="Ḍ"/><glyph d="M218 -9q-75 0 -131.5 56.5t-56.5 155.5q0 112 73.5 179t172.5 67q59 0 99 -25v119q0 29 -16 43.5t-59 19.5v24q101 14 175 57l20 -19v-576q0 -30 12.5 -44.5t53.5 -21.5v-26h-177l8 91l-15 5q-24 -45 -64.5 -75t-94.5 -30zM154 239q0 -79 36 -128.5t89 -49.5 q48 0 72 38.5t24 76.5v162q0 30 -23 52t-64 22q-57 0 -95.5 -45t-38.5 -128zM228 -129q0 29 21.5 50t51.5 21q29 0 50.5 -21t21.5 -50q0 -31 -21.5 -52t-50.5 -21q-30 0 -51.5 21t-21.5 52z" glyph-name="uni1E0D" horiz-adv-x="581" unicode="ḍ"/><glyph d="M20 26q51 10 64 20q19 16 19 59v420q0 23 -3.5 37t-17.5 22.5t-20.5 10.5t-33.5 7q-5 1 -8 2v26h284q70 0 133.5 -18t117 -53.5t85 -97.5t31.5 -142q0 -82 -31 -145.5t-84 -100t-116.5 -55t-135.5 -18.5h-284v26zM198 -117l15 45h280l-15 -45h-280zM235 135 q0 -53 20.5 -74.5t76.5 -21.5q97 0 147 71t50 199q0 130 -57.5 206t-177.5 76h-59v-456z" glyph-name="uni1E0E" horiz-adv-x="711" unicode="Ḏ"/><glyph d="M218 -9q-75 0 -131.5 56.5t-56.5 155.5q0 112 73.5 179t172.5 67q59 0 99 -25v119q0 29 -16 43.5t-59 19.5v24q101 14 175 57l20 -19v-576q0 -30 12.5 -44.5t53.5 -21.5v-26h-177l8 91l-15 5q-24 -45 -64.5 -75t-94.5 -30zM153 -117l15 45h280l-15 -45h-280zM154 239 q0 -79 36 -128.5t89 -49.5q48 0 72 38.5t24 76.5v162q0 30 -23 52t-64 22q-57 0 -95.5 -45t-38.5 -128z" glyph-name="uni1E0F" horiz-adv-x="581" unicode="ḏ"/><glyph d="M396 -12q-165 0 -260.5 91.5t-95.5 233.5q0 144 99 238.5t256 94.5q124 0 201 -46q4 -91 7 -135h-41q-32 141 -181 141q-99 0 -149 -67.5t-50 -191.5q0 -143 57 -231t156 -88q57 0 80.5 24.5t23.5 82.5v34q0 64 -21 84.5t-84 25.5v30h281v-30q-32 -5 -47 -20t-15 -50v-34 q0 -88 16 -132q-32 -23 -95 -39t-138 -16zM208 742l15 45h280l-15 -45h-280z" glyph-name="uni1E20" horiz-adv-x="710" unicode="Ḡ"/><glyph d="M205 -190q-95 0 -142.5 32.5t-47.5 76.5q0 20 28 46.5t66 43.5q-57 25 -57 71q0 19 33.5 50.5t69.5 43.5q-49 17 -75 52t-26 79q0 61 48.5 102.5t133.5 41.5q39 0 74 -10q33 -8 179 -8v-69l-92 15q21 -32 21 -72q0 -61 -48.5 -102t-133.5 -41h-29q-47 0 -47 -33 q0 -28 44 -32l102 -9q101 -9 136 -28.5t35 -66.5q0 -83 -76 -133t-196 -50zM108 -70q0 -77 130 -77q70 0 109.5 25.5t39.5 62.5q0 23 -19 31t-68 12l-115 9q-37 3 -57 -15.5t-20 -47.5zM113 552l15 45h280l-15 -45h-280zM161 305q0 -44 17 -78.5t58 -34.5t58 34.5t17 78.5 t-17 79t-58 35t-58 -35t-17 -79z" glyph-name="uni1E21" horiz-adv-x="519" unicode="ḡ"/><glyph d="M20 26q51 10 64 20q19 16 19 59v420q0 23 -3.5 37t-17.5 22.5t-20.5 10.5t-33.5 7q-5 1 -8 2v26h298v-26q-51 -10 -64 -20q-19 -16 -19 -59v-192h260v192q0 23 -3.5 37t-17.5 22.5t-20.5 10.5t-33.5 7q-5 1 -8 2v26h298v-26q-51 -10 -64 -20q-19 -16 -19 -59v-420 q0 -23 3.5 -37t17.5 -22.5t20.5 -10.5t33.5 -7q5 -1 8 -2v-26h-298v26q51 10 64 20q19 16 19 59v190h-260v-190q0 -23 3.5 -37t17.5 -22.5t20.5 -10.5t33.5 -7q5 -1 8 -2v-26h-298v26zM294 -129q0 29 21.5 50t51.5 21q29 0 50.5 -21t21.5 -50q0 -31 -21.5 -52t-50.5 -21 q-30 0 -51.5 21t-21.5 52z" glyph-name="uni1E24" horiz-adv-x="730" unicode="Ḥ"/><glyph d="M327 26q18 4 25 6t17 8t13.5 16t3.5 26v203q0 92 -69 92q-56 0 -104 -57v-238q0 -16 3.5 -26t13.5 -16t17 -8t25 -6v-26h-252v26q29 5 41 8.5t22 15t10 32.5v461q0 30 -13.5 44t-59.5 19v24q99 14 173 57l20 -19v-309q38 43 76 66.5t90 23.5q127 0 127 -154v-213 q0 -16 3.5 -26t14 -16t19.5 -8t29 -6v-26h-245v26zM221 -129q0 29 21.5 50t51.5 21q29 0 50.5 -21t21.5 -50q0 -31 -21 -52t-51 -21t-51.5 21t-21.5 52z" glyph-name="uni1E25" horiz-adv-x="587" unicode="ḥ"/><glyph d="M20 26q51 10 64 20q19 16 19 59v420q0 23 -3.5 37t-17.5 22.5t-20.5 10.5t-33.5 7q-5 1 -8 2v26h298v-26q-51 -10 -64 -20q-19 -16 -19 -59v-192h260v192q0 23 -3.5 37t-17.5 22.5t-20.5 10.5t-33.5 7q-5 1 -8 2v26h298v-26q-51 -10 -64 -20q-19 -16 -19 -59v-420 q0 -23 3.5 -37t17.5 -22.5t20.5 -10.5t33.5 -7q5 -1 8 -2v-26h-298v26q51 10 64 20q19 16 19 59v190h-260v-190q0 -23 3.5 -37t17.5 -22.5t20.5 -10.5t33.5 -7q5 -1 8 -2v-26h-298v26zM218 -42h28q15 -67 121 -67t121 67h28q0 -65 -40.5 -102.5t-108.5 -37.5t-108.5 37.5 t-40.5 102.5z" glyph-name="uni1E2A" horiz-adv-x="730" unicode="Ḫ"/><glyph d="M327 26q18 4 25 6t17 8t13.5 16t3.5 26v203q0 92 -69 92q-56 0 -104 -57v-238q0 -16 3.5 -26t13.5 -16t17 -8t25 -6v-26h-252v26q29 5 41 8.5t22 15t10 32.5v461q0 30 -13.5 44t-59.5 19v24q99 14 173 57l20 -19v-309q38 43 76 66.5t90 23.5q127 0 127 -154v-213 q0 -16 3.5 -26t14 -16t19.5 -8t29 -6v-26h-245v26zM145 -42h28q15 -67 121 -67t121 67h28q0 -65 -40.5 -102.5t-108.5 -37.5t-108.5 37.5t-40.5 102.5z" glyph-name="uni1E2B" horiz-adv-x="587" unicode="ḫ"/><glyph d="M20 26q51 10 64 20q19 16 19 59v420q0 23 -3.5 37t-17.5 22.5t-20.5 10.5t-33.5 7q-5 1 -8 2v26h298v-26q-51 -10 -64 -20q-19 -16 -19 -59v-208l244 240q22 22 11 34.5t-52 12.5v26h221v-26q-46 0 -70 -11t-50 -36l-163 -160l238 -343q13 -18 29 -23t57 -5v-26h-216 q0 23 -32 70l-163 240l-54 -53v-152q0 -23 3.5 -37t17.5 -22.5t20.5 -10.5t33.5 -7q5 -1 8 -2v-26h-298v26zM207 -117l15 45h280l-15 -45h-280z" glyph-name="uni1E34" horiz-adv-x="705" unicode="Ḵ"/><glyph d="M392 0q0 30 -19 57l-107 157l-53 -51v-81q0 -21 10 -32.5t22 -15t41 -8.5v-26h-266v26q29 5 41 8.5t22 15t10 32.5v461q0 30 -13.5 44t-59.5 19v24q99 14 173 57l20 -19v-449l149 142q47 44 -35 52v27h209v-27q-43 -3 -68.5 -16.5t-54.5 -40.5l-70 -67l159 -227 q12 -18 28 -24.5t50 -10.5v-27h-188zM144 -117l15 45h280l-15 -45h-280z" glyph-name="uni1E35" horiz-adv-x="585" unicode="ḵ"/><glyph d="M20 26q51 10 64 20q19 16 19 59v420q0 23 -3.5 37t-17.5 22.5t-20.5 10.5t-33.5 7q-5 1 -8 2v26h298v-26q-51 -10 -64 -20q-19 -16 -19 -59v-408q0 -50 17.5 -63t76.5 -13h61q60 0 93 25t60 94h32l-41 -160h-514v26zM227 -129q0 29 21.5 50t51.5 21q29 0 50.5 -21 t21.5 -50q0 -31 -21 -52t-51 -21t-51.5 21t-21.5 52z" glyph-name="uni1E36" horiz-adv-x="595" unicode="Ḷ"/><glyph d="M20 26q29 5 41 8.5t22 15t10 32.5v461q0 30 -13.5 44t-59.5 19v24q99 14 173 57l20 -19v-586q0 -21 10 -32.5t22 -15t41 -8.5v-26h-266v26zM80 -129q0 29 21.5 50t51.5 21q29 0 50.5 -21t21.5 -50q0 -31 -21.5 -52t-50.5 -21q-30 0 -51.5 21t-21.5 52z" glyph-name="uni1E37" horiz-adv-x="306" unicode="ḷ"/><glyph d="M20 26q51 10 64 20q19 16 19 59v420q0 23 -3.5 37t-17.5 22.5t-20.5 10.5t-33.5 7q-5 1 -8 2v26h298v-26q-51 -10 -64 -20q-19 -16 -19 -59v-408q0 -50 17.5 -63t76.5 -13h61q60 0 93 25t60 94h32l-41 -160h-514v26zM27 742l15 45h280l-15 -45h-280zM227 -129 q0 29 21.5 50t51.5 21q29 0 50.5 -21t21.5 -50q0 -31 -21 -52t-51 -21t-51.5 21t-21.5 52z" glyph-name="uni1E38" horiz-adv-x="595" unicode="Ḹ"/><glyph d="M20 26q29 5 41 8.5t22 15t10 32.5v461q0 30 -13.5 44t-59.5 19v24q99 14 173 57l20 -19v-586q0 -21 10 -32.5t22 -15t41 -8.5v-26h-266v26zM-14 746l15 45h280l-15 -45h-280zM80 -129q0 29 21.5 50t51.5 21q29 0 50.5 -21t21.5 -50q0 -31 -21.5 -52t-50.5 -21 q-30 0 -51.5 21t-21.5 52z" glyph-name="uni1E39" horiz-adv-x="306" unicode="ḹ"/><glyph d="M20 26q51 10 64 20q19 16 19 59v420q0 23 -3.5 37t-17.5 22.5t-20.5 10.5t-33.5 7q-5 1 -8 2v26h298v-26q-51 -10 -64 -20q-19 -16 -19 -59v-408q0 -50 17.5 -63t76.5 -13h61q60 0 93 25t60 94h32l-41 -160h-514v26zM152 -117l15 45h280l-15 -45h-280z" glyph-name="uni1E3A" horiz-adv-x="595" unicode="Ḻ"/><glyph d="M20 26q29 5 41 8.5t22 15t10 32.5v461q0 30 -13.5 44t-59.5 19v24q99 14 173 57l20 -19v-586q0 -21 10 -32.5t22 -15t41 -8.5v-26h-266v26zM5 -117l15 45h280l-15 -45h-280z" glyph-name="uni1E3B" horiz-adv-x="306" unicode="ḻ"/><glyph d="M388 0l-219 508l-18 -403q-1 -30 10 -46.5t23 -20.5t47 -10q6 -1 9 -2v-26h-220v26q51 10 64 20q20 16 22 59l19 420q1 23 -3 37t-16.5 22t-22 11t-32.5 7q-7 1 -10 2v26h215q2 -13 31 -77l160 -372l144 372q25 66 27 77h228v-26q-52 -10 -65 -20q-19 -17 -17 -59 l19 -420q2 -44 18.5 -57t57.5 -21q5 -1 8 -1v-26h-298v26q52 10 65 20q19 17 17 59l-17 444l-216 -549h-30zM371 781q0 29 21.5 49.5t51.5 20.5t51.5 -20.5t21.5 -49.5t-22 -50t-51 -21t-51 21t-22 50z" glyph-name="uni1E40" horiz-adv-x="887" unicode="Ṁ"/><glyph d="M15 26q20 4 29 6t19.5 8t14 16t3.5 26v239q0 30 -12.5 42.5t-53.5 10.5v24q101 15 170 58l20 -19l-31 -84h22q35 46 72 71t90 25q100 0 123 -96h6q65 96 159 96q130 0 130 -154v-213q0 -16 3.5 -26t14.5 -16t19 -8t28 -6v-26h-248v26q19 4 27 6t18.5 8t14 16t3.5 26v204 q0 91 -68 91q-53 0 -100 -57v-238q0 -16 3.5 -26t14 -16t18.5 -8t27 -6v-26h-248v26q20 4 28 6t19 8t14.5 16t3.5 26v204q0 91 -67 91q-55 0 -100 -58v-237q0 -16 3.5 -26t13.5 -16t17 -8t25 -6v-26h-245v26zM355 591q0 29 21.5 49.5t51.5 20.5t51.5 -20.5t21.5 -49.5 t-22 -50t-51 -21t-51 21t-22 50z" glyph-name="uni1E41" horiz-adv-x="856" unicode="ṁ"/><glyph d="M388 0l-219 508l-18 -403q-1 -30 10 -46.5t23 -20.5t47 -10q6 -1 9 -2v-26h-220v26q51 10 64 20q20 16 22 59l19 420q1 23 -3 37t-16.5 22t-22 11t-32.5 7q-7 1 -10 2v26h215q2 -13 31 -77l160 -372l144 372q25 66 27 77h228v-26q-52 -10 -65 -20q-19 -17 -17 -59 l19 -420q2 -44 18.5 -57t57.5 -21q5 -1 8 -1v-26h-298v26q52 10 65 20q19 17 17 59l-17 444l-216 -549h-30zM371 -129q0 29 21.5 50t51.5 21q29 0 50.5 -21t21.5 -50q0 -31 -21 -52t-51 -21t-51.5 21t-21.5 52z" glyph-name="uni1E42" horiz-adv-x="887" unicode="Ṃ"/><glyph d="M15 26q20 4 29 6t19.5 8t14 16t3.5 26v239q0 30 -12.5 42.5t-53.5 10.5v24q101 15 170 58l20 -19l-31 -84h22q35 46 72 71t90 25q100 0 123 -96h6q65 96 159 96q130 0 130 -154v-213q0 -16 3.5 -26t14.5 -16t19 -8t28 -6v-26h-248v26q19 4 27 6t18.5 8t14 16t3.5 26v204 q0 91 -68 91q-53 0 -100 -57v-238q0 -16 3.5 -26t14 -16t18.5 -8t27 -6v-26h-248v26q20 4 28 6t19 8t14.5 16t3.5 26v204q0 91 -67 91q-55 0 -100 -58v-237q0 -16 3.5 -26t13.5 -16t17 -8t25 -6v-26h-245v26zM355 -129q0 29 21.5 50t51.5 21q29 0 50.5 -21t21.5 -50 q0 -31 -21 -52t-51 -21t-51.5 21t-21.5 52z" glyph-name="uni1E43" horiz-adv-x="856" unicode="ṃ"/><glyph d="M536 0l-387 534v-429q0 -23 4 -37t19 -22.5t22 -10.5t36 -7q6 -1 9 -2v-26h-219v26q52 10 65 20q20 16 20 59v420q0 23 -4 37t-17.5 22.5t-21.5 10.5t-33 7q-6 1 -9 2v26h211l316 -438v333q0 23 -4 37t-19 22.5t-22 10.5t-36 7q-6 1 -9 2v26h219v-26q-52 -10 -65 -20 q-20 -16 -20 -59v-525h-55zM275 781q0 29 21.5 49.5t51.5 20.5t51.5 -20.5t21.5 -49.5t-22 -50t-51 -21t-51 21t-22 50z" glyph-name="uni1E44" horiz-adv-x="696" unicode="Ṅ"/><glyph d="M15 26q20 4 29 6t19.5 8t14 16t3.5 26v229q0 30 -12.5 44t-53.5 19v24q101 15 170 58l20 -19l-31 -84h22q39 46 78.5 71t92.5 25q127 0 127 -154v-213q0 -16 3.5 -26t14 -16t19.5 -8t29 -6v-26h-245v26q18 4 25 6t17 8t13.5 16t3.5 26v203q0 92 -68 92q-59 0 -105 -58 v-237q0 -16 3.5 -26t13.5 -16t17 -8t25 -6v-26h-245v26zM212 591q0 29 21.5 49.5t51.5 20.5t51.5 -20.5t21.5 -49.5t-22 -50t-51 -21t-51 21t-22 50z" glyph-name="uni1E45" horiz-adv-x="575" unicode="ṅ"/><glyph d="M536 0l-387 534v-429q0 -23 4 -37t19 -22.5t22 -10.5t36 -7q6 -1 9 -2v-26h-219v26q52 10 65 20q20 16 20 59v420q0 23 -4 37t-17.5 22.5t-21.5 10.5t-33 7q-6 1 -9 2v26h211l316 -438v333q0 23 -4 37t-19 22.5t-22 10.5t-36 7q-6 1 -9 2v26h219v-26q-52 -10 -65 -20 q-20 -16 -20 -59v-525h-55zM275 -129q0 29 21.5 50t51.5 21q29 0 50.5 -21t21.5 -50q0 -31 -21 -52t-51 -21t-51.5 21t-21.5 52z" glyph-name="uni1E46" horiz-adv-x="696" unicode="Ṇ"/><glyph d="M15 26q20 4 29 6t19.5 8t14 16t3.5 26v229q0 30 -12.5 44t-53.5 19v24q101 15 170 58l20 -19l-31 -84h22q39 46 78.5 71t92.5 25q127 0 127 -154v-213q0 -16 3.5 -26t14 -16t19.5 -8t29 -6v-26h-245v26q18 4 25 6t17 8t13.5 16t3.5 26v203q0 92 -68 92q-59 0 -105 -58 v-237q0 -16 3.5 -26t13.5 -16t17 -8t25 -6v-26h-245v26zM212 -129q0 29 21.5 50t51.5 21q29 0 50.5 -21t21.5 -50q0 -31 -21.5 -52t-50.5 -21q-30 0 -51.5 21t-21.5 52z" glyph-name="uni1E47" horiz-adv-x="575" unicode="ṇ"/><glyph d="M536 0l-387 534v-429q0 -23 4 -37t19 -22.5t22 -10.5t36 -7q6 -1 9 -2v-26h-219v26q52 10 65 20q20 16 20 59v420q0 23 -4 37t-17.5 22.5t-21.5 10.5t-33 7q-6 1 -9 2v26h211l316 -438v333q0 23 -4 37t-19 22.5t-22 10.5t-36 7q-6 1 -9 2v26h219v-26q-52 -10 -65 -20 q-20 -16 -20 -59v-525h-55zM200 -117l15 45h280l-15 -45h-280z" glyph-name="uni1E48" horiz-adv-x="696" unicode="Ṉ"/><glyph d="M15 26q20 4 29 6t19.5 8t14 16t3.5 26v229q0 30 -12.5 44t-53.5 19v24q101 15 170 58l20 -19l-31 -84h22q39 46 78.5 71t92.5 25q127 0 127 -154v-213q0 -16 3.5 -26t14 -16t19.5 -8t29 -6v-26h-245v26q18 4 25 6t17 8t13.5 16t3.5 26v203q0 92 -68 92q-59 0 -105 -58 v-237q0 -16 3.5 -26t13.5 -16t17 -8t25 -6v-26h-245v26zM137 -117l15 45h280l-15 -45h-280z" glyph-name="uni1E49" horiz-adv-x="575" unicode="ṉ"/><glyph d="M20 26q51 10 64 20q19 16 19 59v420q0 23 -3.5 37t-17.5 22.5t-20.5 10.5t-33.5 7q-5 1 -8 2v26h281q286 0 286 -175q0 -145 -195 -175q65 -13 104 -78l53 -88q26 -44 61.5 -71t74.5 -16v-27q-34 -16 -84 -16q-66 0 -107.5 23.5t-71.5 73.5l-64 106q-29 48 -55.5 66 t-67.5 20v-168q0 -23 3.5 -37t17.5 -22.5t20.5 -10.5t33.5 -7q5 -1 8 -2v-26h-298v26zM235 311h52q91 0 126 37t35 99q0 143 -144 143q-40 0 -54.5 -11t-14.5 -35v-233zM274 -129q0 29 21.5 50t51.5 21q29 0 50.5 -21t21.5 -50q0 -31 -21.5 -52t-50.5 -21q-30 0 -51.5 21 t-21.5 52z" glyph-name="uni1E5A" horiz-adv-x="695" unicode="Ṛ"/><glyph d="M15 26q22 4 31.5 6t21 8t15 16t3.5 26v230q0 30 -13.5 44t-57.5 18v24q104 16 180 58l20 -19l-23 -121h27q30 71 61.5 105.5t76.5 34.5q21 0 40 -8v-113q-31 14 -65 14q-61 0 -93.5 -40.5t-32.5 -99.5v-127q0 -16 4 -26t15 -16t21.5 -8t33.5 -6v-26h-265v26zM75 -129 q0 29 21.5 50t51.5 21q29 0 50.5 -21t21.5 -50q0 -31 -21 -52t-51 -21t-51.5 21t-21.5 52z" glyph-name="uni1E5B" horiz-adv-x="417" unicode="ṛ"/><glyph d="M20 26q51 10 64 20q19 16 19 59v420q0 23 -3.5 37t-17.5 22.5t-20.5 10.5t-33.5 7q-5 1 -8 2v26h281q286 0 286 -175q0 -145 -195 -175q65 -13 104 -78l53 -88q26 -44 61.5 -71t74.5 -16v-27q-34 -16 -84 -16q-66 0 -107.5 23.5t-71.5 73.5l-64 106q-29 48 -55.5 66 t-67.5 20v-168q0 -23 3.5 -37t17.5 -22.5t20.5 -10.5t33.5 -7q5 -1 8 -2v-26h-298v26zM193 742l15 45h280l-15 -45h-280zM235 311h52q91 0 126 37t35 99q0 143 -144 143q-40 0 -54.5 -11t-14.5 -35v-233zM274 -129q0 29 21.5 50t51.5 21q29 0 50.5 -21t21.5 -50 q0 -31 -21.5 -52t-50.5 -21q-30 0 -51.5 21t-21.5 52z" glyph-name="uni1E5C" horiz-adv-x="695" unicode="Ṝ"/><glyph d="M15 26q22 4 31.5 6t21 8t15 16t3.5 26v230q0 30 -13.5 44t-57.5 18v24q104 16 180 58l20 -19l-23 -121h27q30 71 61.5 105.5t76.5 34.5q21 0 40 -8v-113q-31 14 -65 14q-61 0 -93.5 -40.5t-32.5 -99.5v-127q0 -16 4 -26t15 -16t21.5 -8t33.5 -6v-26h-265v26zM58 552 l15 45h280l-15 -45h-280zM75 -129q0 29 21.5 50t51.5 21q29 0 50.5 -21t21.5 -50q0 -31 -21 -52t-51 -21t-51.5 21t-21.5 52z" glyph-name="uni1E5D" horiz-adv-x="417" unicode="ṝ"/><glyph d="M20 26q51 10 64 20q19 16 19 59v420q0 23 -3.5 37t-17.5 22.5t-20.5 10.5t-33.5 7q-5 1 -8 2v26h281q286 0 286 -175q0 -145 -195 -175q65 -13 104 -78l53 -88q26 -44 61.5 -71t74.5 -16v-27q-34 -16 -84 -16q-66 0 -107.5 23.5t-71.5 73.5l-64 106q-29 48 -55.5 66 t-67.5 20v-168q0 -23 3.5 -37t17.5 -22.5t20.5 -10.5t33.5 -7q5 -1 8 -2v-26h-298v26zM199 -117l15 45h280l-15 -45h-280zM235 311h52q91 0 126 37t35 99q0 143 -144 143q-40 0 -54.5 -11t-14.5 -35v-233z" glyph-name="uni1E5E" horiz-adv-x="695" unicode="Ṟ"/><glyph d="M15 26q22 4 31.5 6t21 8t15 16t3.5 26v230q0 30 -13.5 44t-57.5 18v24q104 16 180 58l20 -19l-23 -121h27q30 71 61.5 105.5t76.5 34.5q21 0 40 -8v-113q-31 14 -65 14q-61 0 -93.5 -40.5t-32.5 -99.5v-127q0 -16 4 -26t15 -16t21.5 -8t33.5 -6v-26h-265v26zM0 -117 l15 45h280l-15 -45h-280z" glyph-name="uni1E5F" horiz-adv-x="417" unicode="ṟ"/><glyph d="M257 -12q-121 0 -209 63l-8 130h29q20 -71 67.5 -113.5t113.5 -42.5q55 0 88 31t33 79q0 44 -32 75.5t-101 62.5q-40 18 -68 34t-58 41t-45.5 58t-15.5 73q0 76 57 121.5t161 45.5q19 0 37 -2t32 -4.5t29 -7.5t24 -8.5t21 -10t17 -9.5t15 -9.5t12 -7.5l3 -132h-27 q-42 154 -157 154q-52 0 -78.5 -26.5t-26.5 -65.5q0 -36 27 -63t94 -58q30 -13 44.5 -20.5t44 -24t46 -32t35.5 -37.5t28 -48.5t9 -57.5q0 -84 -68 -136t-173 -52zM194 -129q0 29 21.5 50t51.5 21q29 0 50.5 -21t21.5 -50q0 -31 -21.5 -52t-50.5 -21q-30 0 -51.5 21 t-21.5 52z" glyph-name="uni1E62" horiz-adv-x="533" unicode="Ṣ"/><glyph d="M182 -9q-87 0 -150 40l-2 94h39q34 -99 124 -99q40 0 60 17t20 45q0 31 -23 47.5t-76 35.5q-62 22 -102.5 55t-40.5 92q0 61 47.5 96t126.5 35q70 0 134 -38v-93h-38q-28 96 -106 96q-32 0 -50.5 -15t-18.5 -40t21 -43.5t66 -34.5q35 -12 55.5 -21.5t49 -27.5t42.5 -44 t14 -59q0 -65 -53.5 -101.5t-138.5 -36.5zM126 -129q0 29 21.5 50t51.5 21q29 0 50.5 -21t21.5 -50q0 -31 -21.5 -52t-50.5 -21q-30 0 -51.5 21t-21.5 52z" glyph-name="uni1E63" horiz-adv-x="404" unicode="ṣ"/><glyph d="M144 26q31 5 41 7.5t26 10.5t20.5 22.5t4.5 38.5v488h-41q-78 0 -108.5 -31t-41.5 -101h-25l8 179l55 -10h437l55 10l8 -179h-25q-11 70 -41 101t-106 31h-43v-488q0 -24 4.5 -38.5t20.5 -22.5t26 -10.5t41 -7.5v-26h-316v26zM229 -129q0 29 21.5 50t51.5 21 q29 0 50.5 -21t21.5 -50q0 -31 -21 -52t-51 -21t-51.5 21t-21.5 52z" glyph-name="uni1E6C" horiz-adv-x="603" unicode="Ṭ"/><glyph d="M185 -10q-38 0 -66 27t-28 58v312h-76v35q96 36 163 111h33v-102l121 12q-3 -28 -3 -56h-118v-272q0 -29 10.5 -40.5t32.5 -11.5q40 0 86 16v-33q-66 -29 -155 -56zM102 -129q0 29 21.5 50t51.5 21q29 0 50.5 -21t21.5 -50q0 -31 -21.5 -52t-50.5 -21q-30 0 -51.5 21 t-21.5 52z" glyph-name="uni1E6D" horiz-adv-x="360" unicode="ṭ"/><glyph d="M144 26q31 5 41 7.5t26 10.5t20.5 22.5t4.5 38.5v488h-41q-78 0 -108.5 -31t-41.5 -101h-25l8 179l55 -10h437l55 10l8 -179h-25q-11 70 -41 101t-106 31h-43v-488q0 -24 4.5 -38.5t20.5 -22.5t26 -10.5t41 -7.5v-26h-316v26zM154 -117l15 45h280l-15 -45h-280z" glyph-name="uni1E6E" horiz-adv-x="603" unicode="Ṯ"/><glyph d="M185 -10q-38 0 -66 27t-28 58v312h-76v35q96 36 163 111h33v-102l121 12q-3 -28 -3 -56h-118v-272q0 -29 10.5 -40.5t32.5 -11.5q40 0 86 16v-33q-66 -29 -155 -56zM27 -117l15 45h280l-15 -45h-280z" glyph-name="uni1E6F" horiz-adv-x="360" unicode="ṯ"/><glyph d="M83 551q-12 32 -25.5 40.5t-57.5 16.5v22h288v-22q-51 -10 -59 -19q-11 -11 -1 -38l137 -385l105 298q20 51 2 92t-74 52v22h203q0 -41 35 -137l117 -326l120 340q9 24 9.5 41t-3.5 27t-18 16.5t-27.5 9.5t-39.5 7v22h222v-22q-32 -6 -42.5 -9.5t-21.5 -14t-19 -33.5 l-202 -558h-49l-173 461l-166 -462h-49zM395 802q8 24 34.5 43.5t50.5 19.5q47 -66 69 -151l-30 -19q-61 65 -124 107z" glyph-name="Wgrave" horiz-adv-x="1016" unicode="Ẁ"/><glyph d="M69 371q-11 26 -23 33t-46 10v26h247v-26q-46 -6 -54 -18q-6 -9 0 -25l89 -240l81 200q16 40 4 61q-7 12 -17 15.5t-33 6.5v26h174q0 -38 18 -86l86 -224l76 191q12 30 13.5 48.5t-10 27.5t-25 12t-40.5 5v26h188v-26q-34 -3 -46 -10t-23 -33l-153 -377h-43l-134 331 l-136 -331h-43zM285 612q8 24 34.5 43.5t50.5 19.5q47 -66 69 -151l-30 -19q-61 65 -124 107z" glyph-name="wgrave" horiz-adv-x="797" unicode="ẁ"/><glyph d="M83 551q-12 32 -25.5 40.5t-57.5 16.5v22h288v-22q-51 -10 -59 -19q-11 -11 -1 -38l137 -385l105 298q20 51 2 92t-74 52v22h203q0 -41 35 -137l117 -326l120 340q9 24 9.5 41t-3.5 27t-18 16.5t-27.5 9.5t-39.5 7v22h222v-22q-32 -6 -42.5 -9.5t-21.5 -14t-19 -33.5 l-202 -558h-49l-173 461l-166 -462h-49zM472 714q22 85 69 151q24 0 50.5 -19.5t34.5 -43.5q-63 -42 -124 -107z" glyph-name="Wacute" horiz-adv-x="1016" unicode="Ẃ"/><glyph d="M69 371q-11 26 -23 33t-46 10v26h247v-26q-46 -6 -54 -18q-6 -9 0 -25l89 -240l81 200q16 40 4 61q-7 12 -17 15.5t-33 6.5v26h174q0 -38 18 -86l86 -224l76 191q12 30 13.5 48.5t-10 27.5t-25 12t-40.5 5v26h188v-26q-34 -3 -46 -10t-23 -33l-153 -377h-43l-134 331 l-136 -331h-43zM362 524q22 85 69 151q24 0 50.5 -19.5t34.5 -43.5q-63 -42 -124 -107z" glyph-name="wacute" horiz-adv-x="797" unicode="ẃ"/><glyph d="M83 551q-12 32 -25.5 40.5t-57.5 16.5v22h288v-22q-51 -10 -59 -19q-11 -11 -1 -38l137 -385l105 298q20 51 2 92t-74 52v22h203q0 -41 35 -137l117 -326l120 340q9 24 9.5 41t-3.5 27t-18 16.5t-27.5 9.5t-39.5 7v22h222v-22q-32 -6 -42.5 -9.5t-21.5 -14t-19 -33.5 l-202 -558h-49l-173 461l-166 -462h-49zM342 791q0 25 18 42.5t43 17.5t42.5 -17.5t17.5 -42.5t-17.5 -43t-42.5 -18t-43 18t-18 43zM553 791q0 25 18 42.5t43 17.5t42.5 -17.5t17.5 -42.5t-17.5 -43t-42.5 -18q-26 0 -43.5 18t-17.5 43z" glyph-name="Wdieresis" horiz-adv-x="1016" unicode="Ẅ"/><glyph d="M69 371q-11 26 -23 33t-46 10v26h247v-26q-46 -6 -54 -18q-6 -9 0 -25l89 -240l81 200q16 40 4 61q-7 12 -17 15.5t-33 6.5v26h174q0 -38 18 -86l86 -224l76 191q12 30 13.5 48.5t-10 27.5t-25 12t-40.5 5v26h188v-26q-34 -3 -46 -10t-23 -33l-153 -377h-43l-134 331 l-136 -331h-43zM232 601q0 25 18 42.5t43 17.5t42.5 -17.5t17.5 -42.5t-17.5 -43t-42.5 -18t-43 18t-18 43zM443 601q0 25 18 42.5t43 17.5t42.5 -17.5t17.5 -42.5t-17.5 -43t-42.5 -18q-26 0 -43.5 18t-17.5 43z" glyph-name="wdieresis" horiz-adv-x="797" unicode="ẅ"/><glyph d="M92 542q-24 37 -36 45.5t-51 16.5v26h293v-26q-6 -1 -18 -3.5t-17.5 -4t-14 -4.5t-11 -7t-4.5 -9.5t1 -14t10 -19.5l140 -224l138 224q10 17 11.5 27.5t-9 16.5t-19 8.5t-31.5 6.5q-11 2 -16 3v26h201v-26q-39 -8 -51.5 -16.5t-36.5 -45.5l-167 -266v-175q0 -25 4.5 -39 t20.5 -22t26 -10.5t42 -7.5v-22h-318v22q59 10 73 21q20 15 20 58v160zM259 781q0 29 21.5 49.5t51.5 20.5t51.5 -20.5t21.5 -49.5t-22 -50t-51 -21t-51 21t-22 50z" glyph-name="uni1E8E" horiz-adv-x="664" unicode="Ẏ"/><glyph d="M124 -183q-34 0 -68 23v73q69 -12 112.5 -1t63.5 56l6 15l-167 384q-13 28 -25 35.5t-46 11.5v26h248v-26q-45 -7 -53 -18q-7 -10 1 -29l103 -243l105 244q4 9 4.5 15.5t-3 11t-7 7.5t-12.5 5.5t-13.5 3t-16.5 2.5q-5 1 -7 1v26h166v-26q-34 -4 -46 -11t-24 -35 l-172 -400q-64 -151 -149 -151zM187 591q0 29 21.5 49.5t51.5 20.5t51.5 -20.5t21.5 -49.5t-22 -50t-51 -21t-51 21t-22 50z" glyph-name="uni1E8F" horiz-adv-x="515" unicode="ẏ"/><glyph d="M31 0l-11 15l386 585l-191 -4q-72 -1 -100.5 -31t-33.5 -101h-29v172l63 -6h461l-395 -600l229 4q69 1 97 32t43 102h30q-19 -102 -19 -168h-530zM227 -129q0 29 21.5 50t51.5 21q29 0 50.5 -21t21.5 -50q0 -31 -21 -52t-51 -21t-51.5 21t-21.5 52z" glyph-name="uni1E92" horiz-adv-x="605" unicode="Ẓ"/><glyph d="M31 0l-11 15l273 392l-120 -3q-84 -1 -94 -103h-30v145l59 -6h339l-283 -407l128 3q61 1 87.5 27t41.5 78h31q-19 -76 -19 -141h-402zM163 -129q0 29 21.5 50t51.5 21q29 0 50.5 -21t21.5 -50q0 -31 -21 -52t-51 -21t-51.5 21t-21.5 52z" glyph-name="uni1E93" horiz-adv-x="472" unicode="ẓ"/><glyph d="M31 0l-11 15l386 585l-191 -4q-72 -1 -100.5 -31t-33.5 -101h-29v172l63 -6h461l-395 -600l229 4q69 1 97 32t43 102h30q-19 -102 -19 -168h-530zM152 -117l15 45h280l-15 -45h-280z" glyph-name="uni1E94" horiz-adv-x="605" unicode="Ẕ"/><glyph d="M31 0l-11 15l273 392l-120 -3q-84 -1 -94 -103h-30v145l59 -6h339l-283 -407l128 3q61 1 87.5 27t41.5 78h31q-19 -76 -19 -141h-402zM88 -117l15 45h280l-15 -45h-280z" glyph-name="uni1E95" horiz-adv-x="472" unicode="ẕ"/><glyph d="M327 26q18 4 25 6t17 8t13.5 16t3.5 26v203q0 92 -69 92q-56 0 -104 -57v-238q0 -16 3.5 -26t13.5 -16t17 -8t25 -6v-26h-252v26q29 5 41 8.5t22 15t10 32.5v461q0 30 -13.5 44t-59.5 19v24q99 14 173 57l20 -19v-309q38 43 76 66.5t90 23.5q127 0 127 -154v-213 q0 -16 3.5 -26t14 -16t19.5 -8t29 -6v-26h-245v26zM146 -117l15 45h280l-15 -45h-280z" glyph-name="uni1E96" horiz-adv-x="587" unicode="ẖ"/><glyph d="M185 -10q-38 0 -66 27t-28 58v312h-76v35q96 36 163 111h33v-102l121 12q-3 -28 -3 -56h-118v-272q0 -29 10.5 -40.5t32.5 -11.5q40 0 86 16v-33q-66 -29 -155 -56zM9 601q0 25 18 42.5t43 17.5t42.5 -17.5t17.5 -42.5t-17.5 -43t-42.5 -18q-26 0 -43.5 18t-17.5 43z M220 601q0 25 18 42.5t43 17.5t42.5 -17.5t17.5 -42.5t-17.5 -43t-42.5 -18t-43 18t-18 43z" glyph-name="uni1E97" horiz-adv-x="360" unicode="ẗ"/><glyph d="M20 26q51 10 64 20q19 16 19 59v254q0 83 24 140.5t65.5 86t84.5 40t94 11.5q126 0 283 -62l-141 -227q87 -11 142 -56t55 -121q0 -81 -62 -136t-166 -55q-79 0 -135 32q-2 55 -17 122h30q28 -68 54.5 -93t62.5 -25q50 0 78 34.5t28 90.5q0 85 -61.5 131t-170.5 46 l159 257q-36 17 -98 17q-176 0 -176 -218v-269q0 -24 3.5 -38.5t15.5 -22.5t18 -10t29 -8v-26h-282v26z" glyph-name="uni1E9E" horiz-adv-x="750" unicode="ẞ"/><glyph d="M0 26q41 7 55 16.5t28 41.5l238 553h43l241 -554q14 -32 28 -41t55 -16v-26h-288v26q50 10 60 19q13 13 2 38l-45 104h-244l-44 -104q-15 -18 -3 -30.5t20.5 -16t34.5 -8.5q6 -1 9 -2v-26h-190v26zM189 225h211l-107 247zM269 -129q0 29 21.5 50t51.5 21q29 0 50.5 -21 t21.5 -50q0 -31 -21 -52t-51 -21t-51.5 21t-21.5 52z" glyph-name="uni1EA0" horiz-adv-x="688" unicode="Ạ"/><glyph d="M405 -7q-33 0 -58 24.5t-27 55.5q-78 -80 -171 -80q-53 0 -88.5 27.5t-35.5 78.5q0 26 11 46t25 33t45 26.5t52.5 20t66.5 19.5q4 1 15.5 4t15.5 4.5t13.5 4.5t13.5 4.5t11 5t11 7t8 8t7 9.5v17q0 58 -24.5 79t-79.5 21q-24 0 -35 -27q-20 -54 -37.5 -75t-41.5 -21 q-21 0 -33.5 12t-12.5 31q0 50 81.5 85.5t158.5 35.5q144 0 144 -153v-201q0 -24 22 -28.5t53 13.5v-26q-53 -45 -110 -61zM148 125q0 -32 19 -51.5t49 -19.5q56 0 104 61v120l-86 -24q-86 -25 -86 -86zM190 -129q0 29 21.5 50t51.5 21q29 0 50.5 -21t21.5 -50 q0 -31 -21.5 -52t-50.5 -21q-30 0 -51.5 21t-21.5 52z" glyph-name="uni1EA1" horiz-adv-x="525" unicode="ạ"/><glyph d="M0 26q41 7 55 16.5t28 41.5l238 553h43l241 -554q14 -32 28 -41t55 -16v-26h-288v26q50 10 60 19q13 13 2 38l-45 104h-244l-44 -104q-15 -18 -3 -30.5t20.5 -16t34.5 -8.5q6 -1 9 -2v-26h-190v26zM189 225h211l-107 247zM279 710q60 0 87 5.5t27 22.5q0 19 -30.5 34 t-83.5 15v60h31q65 0 102 -22.5t37 -58.5q0 -38 -41 -64t-94 -26z" glyph-name="uni1EA2" horiz-adv-x="688" unicode="Ả"/><glyph d="M405 -7q-33 0 -58 24.5t-27 55.5q-78 -80 -171 -80q-53 0 -88.5 27.5t-35.5 78.5q0 26 11 46t25 33t45 26.5t52.5 20t66.5 19.5q4 1 15.5 4t15.5 4.5t13.5 4.5t13.5 4.5t11 5t11 7t8 8t7 9.5v17q0 58 -24.5 79t-79.5 21q-24 0 -35 -27q-20 -54 -37.5 -75t-41.5 -21 q-21 0 -33.5 12t-12.5 31q0 50 81.5 85.5t158.5 35.5q144 0 144 -153v-201q0 -24 22 -28.5t53 13.5v-26q-53 -45 -110 -61zM148 125q0 -32 19 -51.5t49 -19.5q56 0 104 61v120l-86 -24q-86 -25 -86 -86zM192 520q60 0 87 5.5t27 22.5q0 19 -30.5 34t-83.5 15v60h31 q65 0 102 -22.5t37 -58.5q0 -38 -41 -64t-94 -26z" glyph-name="uni1EA3" horiz-adv-x="525" unicode="ả"/><glyph d="M0 26q41 7 55 16.5t28 41.5l238 553h43l241 -554q14 -32 28 -41t55 -16v-26h-288v26q50 10 60 19q13 13 2 38l-45 104h-244l-44 -104q-15 -18 -3 -30.5t20.5 -16t34.5 -8.5q6 -1 9 -2v-26h-190v26zM189 225h211l-107 247zM201 728l141 150l141 -151l-14 -15l-127 85 l-127 -85zM375 882q22 85 69 151q24 0 50.5 -19.5t34.5 -43.5q-63 -42 -124 -107z" glyph-name="uni1EA4" horiz-adv-x="688" unicode="Ấ"/><glyph d="M405 -7q-33 0 -58 24.5t-27 55.5q-78 -80 -171 -80q-53 0 -88.5 27.5t-35.5 78.5q0 26 11 46t25 33t45 26.5t52.5 20t66.5 19.5q4 1 15.5 4t15.5 4.5t13.5 4.5t13.5 4.5t11 5t11 7t8 8t7 9.5v17q0 58 -24.5 79t-79.5 21q-24 0 -35 -27q-20 -54 -37.5 -75t-41.5 -21 q-21 0 -33.5 12t-12.5 31q0 50 81.5 85.5t158.5 35.5q144 0 144 -153v-201q0 -24 22 -28.5t53 13.5v-26q-53 -45 -110 -61zM114 538l141 150l141 -151l-14 -15l-127 85l-127 -85zM148 125q0 -32 19 -51.5t49 -19.5q56 0 104 61v120l-86 -24q-86 -25 -86 -86zM288 692 q22 85 69 151q24 0 50.5 -19.5t34.5 -43.5q-63 -42 -124 -107z" glyph-name="uni1EA5" horiz-adv-x="525" unicode="ấ"/><glyph d="M0 26q41 7 55 16.5t28 41.5l238 553h43l241 -554q14 -32 28 -41t55 -16v-26h-288v26q50 10 60 19q13 13 2 38l-45 104h-244l-44 -104q-15 -18 -3 -30.5t20.5 -16t34.5 -8.5q6 -1 9 -2v-26h-190v26zM189 225h211l-107 247zM201 728l141 150l141 -151l-14 -15l-127 85 l-127 -85zM305 970q8 24 34.5 43.5t50.5 19.5q47 -66 69 -151l-30 -19q-61 65 -124 107z" glyph-name="uni1EA6" horiz-adv-x="688" unicode="Ầ"/><glyph d="M405 -7q-33 0 -58 24.5t-27 55.5q-78 -80 -171 -80q-53 0 -88.5 27.5t-35.5 78.5q0 26 11 46t25 33t45 26.5t52.5 20t66.5 19.5q4 1 15.5 4t15.5 4.5t13.5 4.5t13.5 4.5t11 5t11 7t8 8t7 9.5v17q0 58 -24.5 79t-79.5 21q-24 0 -35 -27q-20 -54 -37.5 -75t-41.5 -21 q-21 0 -33.5 12t-12.5 31q0 50 81.5 85.5t158.5 35.5q144 0 144 -153v-201q0 -24 22 -28.5t53 13.5v-26q-53 -45 -110 -61zM114 538l141 150l141 -151l-14 -15l-127 85l-127 -85zM148 125q0 -32 19 -51.5t49 -19.5q56 0 104 61v120l-86 -24q-86 -25 -86 -86zM218 780 q8 24 34.5 43.5t50.5 19.5q47 -66 69 -151l-30 -19q-61 65 -124 107z" glyph-name="uni1EA7" horiz-adv-x="525" unicode="ầ"/><glyph d="M0 26q41 7 55 16.5t28 41.5l238 553h43l241 -554q14 -32 28 -41t55 -16v-26h-288v26q50 10 60 19q13 13 2 38l-45 104h-244l-44 -104q-15 -18 -3 -30.5t20.5 -16t34.5 -8.5q6 -1 9 -2v-26h-190v26zM189 225h211l-107 247zM201 728l141 150l141 -151l-14 -15l-127 85 l-127 -85zM383 896q60 0 87 5.5t27 22.5q0 19 -30.5 34t-83.5 15v60h31q65 0 102 -22.5t37 -58.5q0 -38 -41 -64t-94 -26z" glyph-name="uni1EA8" horiz-adv-x="688" unicode="Ẩ"/><glyph d="M405 -7q-33 0 -58 24.5t-27 55.5q-78 -80 -171 -80q-53 0 -88.5 27.5t-35.5 78.5q0 26 11 46t25 33t45 26.5t52.5 20t66.5 19.5q4 1 15.5 4t15.5 4.5t13.5 4.5t13.5 4.5t11 5t11 7t8 8t7 9.5v17q0 58 -24.5 79t-79.5 21q-24 0 -35 -27q-20 -54 -37.5 -75t-41.5 -21 q-21 0 -33.5 12t-12.5 31q0 50 81.5 85.5t158.5 35.5q144 0 144 -153v-201q0 -24 22 -28.5t53 13.5v-26q-53 -45 -110 -61zM114 538l141 150l141 -151l-14 -15l-127 85l-127 -85zM148 125q0 -32 19 -51.5t49 -19.5q56 0 104 61v120l-86 -24q-86 -25 -86 -86zM296 706 q60 0 87 5.5t27 22.5q0 19 -30.5 34t-83.5 15v60h31q65 0 102 -22.5t37 -58.5q0 -38 -41 -64t-94 -26z" glyph-name="uni1EA9" horiz-adv-x="525" unicode="ẩ"/><glyph d="M0 26q41 7 55 16.5t28 41.5l238 553h43l241 -554q14 -32 28 -41t55 -16v-26h-288v26q50 10 60 19q13 13 2 38l-45 104h-244l-44 -104q-15 -18 -3 -30.5t20.5 -16t34.5 -8.5q6 -1 9 -2v-26h-190v26zM177 946q-8 47 22.5 77t74.5 30q37 0 78 -33t71 -33q22 0 36.5 14.5 t14.5 28.5h23q8 -46 -22.5 -76.5t-75.5 -30.5q-37 0 -77.5 33t-70.5 33q-22 0 -36.5 -14.5t-14.5 -28.5h-23zM189 225h211l-107 247zM201 728l141 150l141 -151l-14 -15l-127 85l-127 -85z" glyph-name="uni1EAA" horiz-adv-x="688" unicode="Ẫ"/><glyph d="M405 -7q-33 0 -58 24.5t-27 55.5q-78 -80 -171 -80q-53 0 -88.5 27.5t-35.5 78.5q0 26 11 46t25 33t45 26.5t52.5 20t66.5 19.5q4 1 15.5 4t15.5 4.5t13.5 4.5t13.5 4.5t11 5t11 7t8 8t7 9.5v17q0 58 -24.5 79t-79.5 21q-24 0 -35 -27q-20 -54 -37.5 -75t-41.5 -21 q-21 0 -33.5 12t-12.5 31q0 50 81.5 85.5t158.5 35.5q144 0 144 -153v-201q0 -24 22 -28.5t53 13.5v-26q-53 -45 -110 -61zM90 756q-8 47 22 77t75 30q37 0 78 -33t71 -33q22 0 36.5 14.5t14.5 28.5h23q8 -46 -22.5 -76.5t-75.5 -30.5q-37 0 -77.5 33t-70.5 33 q-22 0 -36.5 -14.5t-14.5 -28.5h-23zM114 538l141 150l141 -151l-14 -15l-127 85l-127 -85zM148 125q0 -32 19 -51.5t49 -19.5q56 0 104 61v120l-86 -24q-86 -25 -86 -86z" glyph-name="uni1EAB" horiz-adv-x="525" unicode="ẫ"/><glyph d="M0 26q41 7 55 16.5t28 41.5l238 553h43l241 -554q14 -32 28 -41t55 -16v-26h-288v26q50 10 60 19q13 13 2 38l-45 104h-244l-44 -104q-15 -18 -3 -30.5t20.5 -16t34.5 -8.5q6 -1 9 -2v-26h-190v26zM189 225h211l-107 247zM201 728l141 150l141 -151l-14 -15l-127 85 l-127 -85zM269 -129q0 29 21.5 50t51.5 21q29 0 50.5 -21t21.5 -50q0 -31 -21 -52t-51 -21t-51.5 21t-21.5 52z" glyph-name="uni1EAC" horiz-adv-x="688" unicode="Ậ"/><glyph d="M405 -7q-33 0 -58 24.5t-27 55.5q-78 -80 -171 -80q-53 0 -88.5 27.5t-35.5 78.5q0 26 11 46t25 33t45 26.5t52.5 20t66.5 19.5q4 1 15.5 4t15.5 4.5t13.5 4.5t13.5 4.5t11 5t11 7t8 8t7 9.5v17q0 58 -24.5 79t-79.5 21q-24 0 -35 -27q-20 -54 -37.5 -75t-41.5 -21 q-21 0 -33.5 12t-12.5 31q0 50 81.5 85.5t158.5 35.5q144 0 144 -153v-201q0 -24 22 -28.5t53 13.5v-26q-53 -45 -110 -61zM114 538l141 150l141 -151l-14 -15l-127 85l-127 -85zM148 125q0 -32 19 -51.5t49 -19.5q56 0 104 61v120l-86 -24q-86 -25 -86 -86zM190 -129 q0 29 21.5 50t51.5 21q29 0 50.5 -21t21.5 -50q0 -31 -21.5 -52t-50.5 -21q-30 0 -51.5 21t-21.5 52z" glyph-name="uni1EAD" horiz-adv-x="525" unicode="ậ"/><glyph d="M0 26q41 7 55 16.5t28 41.5l238 553h43l241 -554q14 -32 28 -41t55 -16v-26h-288v26q50 10 60 19q13 13 2 38l-45 104h-244l-44 -104q-15 -18 -3 -30.5t20.5 -16t34.5 -8.5q6 -1 9 -2v-26h-190v26zM189 225h211l-107 247zM193 869h28q15 -67 121 -67t121 67h28 q0 -65 -40.5 -102.5t-108.5 -37.5t-108.5 37.5t-40.5 102.5zM285 873q22 85 69 151q24 0 50.5 -19.5t34.5 -43.5q-63 -42 -124 -107z" glyph-name="uni1EAE" horiz-adv-x="688" unicode="Ắ"/><glyph d="M405 -7q-33 0 -58 24.5t-27 55.5q-78 -80 -171 -80q-53 0 -88.5 27.5t-35.5 78.5q0 26 11 46t25 33t45 26.5t52.5 20t66.5 19.5q4 1 15.5 4t15.5 4.5t13.5 4.5t13.5 4.5t11 5t11 7t8 8t7 9.5v17q0 58 -24.5 79t-79.5 21q-24 0 -35 -27q-20 -54 -37.5 -75t-41.5 -21 q-21 0 -33.5 12t-12.5 31q0 50 81.5 85.5t158.5 35.5q144 0 144 -153v-201q0 -24 22 -28.5t53 13.5v-26q-53 -45 -110 -61zM106 679h28q15 -67 121 -67t121 67h28q0 -65 -40.5 -102.5t-108.5 -37.5t-108.5 37.5t-40.5 102.5zM148 125q0 -32 19 -51.5t49 -19.5q56 0 104 61 v120l-86 -24q-86 -25 -86 -86zM198 683q22 85 69 151q24 0 50.5 -19.5t34.5 -43.5q-63 -42 -124 -107z" glyph-name="uni1EAF" horiz-adv-x="525" unicode="ắ"/><glyph d="M0 26q41 7 55 16.5t28 41.5l238 553h43l241 -554q14 -32 28 -41t55 -16v-26h-288v26q50 10 60 19q13 13 2 38l-45 104h-244l-44 -104q-15 -18 -3 -30.5t20.5 -16t34.5 -8.5q6 -1 9 -2v-26h-190v26zM189 225h211l-107 247zM193 869h28q15 -67 121 -67t121 67h28 q0 -65 -40.5 -102.5t-108.5 -37.5t-108.5 37.5t-40.5 102.5zM245 961q8 24 34.5 43.5t50.5 19.5q47 -66 69 -151l-30 -19q-61 65 -124 107z" glyph-name="uni1EB0" horiz-adv-x="688" unicode="Ằ"/><glyph d="M405 -7q-33 0 -58 24.5t-27 55.5q-78 -80 -171 -80q-53 0 -88.5 27.5t-35.5 78.5q0 26 11 46t25 33t45 26.5t52.5 20t66.5 19.5q4 1 15.5 4t15.5 4.5t13.5 4.5t13.5 4.5t11 5t11 7t8 8t7 9.5v17q0 58 -24.5 79t-79.5 21q-24 0 -35 -27q-20 -54 -37.5 -75t-41.5 -21 q-21 0 -33.5 12t-12.5 31q0 50 81.5 85.5t158.5 35.5q144 0 144 -153v-201q0 -24 22 -28.5t53 13.5v-26q-53 -45 -110 -61zM106 679h28q15 -67 121 -67t121 67h28q0 -65 -40.5 -102.5t-108.5 -37.5t-108.5 37.5t-40.5 102.5zM148 125q0 -32 19 -51.5t49 -19.5q56 0 104 61 v120l-86 -24q-86 -25 -86 -86zM158 771q8 24 34.5 43.5t50.5 19.5q47 -66 69 -151l-30 -19q-61 65 -124 107z" glyph-name="uni1EB1" horiz-adv-x="525" unicode="ằ"/><glyph d="M0 26q41 7 55 16.5t28 41.5l238 553h43l241 -554q14 -32 28 -41t55 -16v-26h-288v26q50 10 60 19q13 13 2 38l-45 104h-244l-44 -104q-15 -18 -3 -30.5t20.5 -16t34.5 -8.5q6 -1 9 -2v-26h-190v26zM189 225h211l-107 247zM193 869h28q15 -67 121 -67t121 67h28 q0 -65 -40.5 -102.5t-108.5 -37.5t-108.5 37.5t-40.5 102.5zM279 919q60 0 87 5.5t27 22.5q0 19 -30.5 34t-83.5 15v60h31q65 0 102 -22.5t37 -58.5q0 -38 -41 -64t-94 -26z" glyph-name="uni1EB2" horiz-adv-x="688" unicode="Ẳ"/><glyph d="M405 -7q-33 0 -58 24.5t-27 55.5q-78 -80 -171 -80q-53 0 -88.5 27.5t-35.5 78.5q0 26 11 46t25 33t45 26.5t52.5 20t66.5 19.5q4 1 15.5 4t15.5 4.5t13.5 4.5t13.5 4.5t11 5t11 7t8 8t7 9.5v17q0 58 -24.5 79t-79.5 21q-24 0 -35 -27q-20 -54 -37.5 -75t-41.5 -21 q-21 0 -33.5 12t-12.5 31q0 50 81.5 85.5t158.5 35.5q144 0 144 -153v-201q0 -24 22 -28.5t53 13.5v-26q-53 -45 -110 -61zM106 679h28q15 -67 121 -67t121 67h28q0 -65 -40.5 -102.5t-108.5 -37.5t-108.5 37.5t-40.5 102.5zM148 125q0 -32 19 -51.5t49 -19.5q56 0 104 61 v120l-86 -24q-86 -25 -86 -86zM192 729q60 0 87 5.5t27 22.5q0 19 -30.5 34t-83.5 15v60h31q65 0 102 -22.5t37 -58.5q0 -38 -41 -64t-94 -26z" glyph-name="uni1EB3" horiz-adv-x="525" unicode="ẳ"/><glyph d="M0 26q41 7 55 16.5t28 41.5l238 553h43l241 -554q14 -32 28 -41t55 -16v-26h-288v26q50 10 60 19q13 13 2 38l-45 104h-244l-44 -104q-15 -18 -3 -30.5t20.5 -16t34.5 -8.5q6 -1 9 -2v-26h-190v26zM177 927q-8 47 22.5 77t74.5 30q37 0 78 -33t71 -33q22 0 36.5 14.5 t14.5 28.5h23q8 -46 -22.5 -76.5t-75.5 -30.5q-37 0 -77.5 33t-70.5 33q-22 0 -36.5 -14.5t-14.5 -28.5h-23zM189 225h211l-107 247zM193 869h28q15 -67 121 -67t121 67h28q0 -65 -40.5 -102.5t-108.5 -37.5t-108.5 37.5t-40.5 102.5z" glyph-name="uni1EB4" horiz-adv-x="688" unicode="Ẵ"/><glyph d="M405 -7q-33 0 -58 24.5t-27 55.5q-78 -80 -171 -80q-53 0 -88.5 27.5t-35.5 78.5q0 26 11 46t25 33t45 26.5t52.5 20t66.5 19.5q4 1 15.5 4t15.5 4.5t13.5 4.5t13.5 4.5t11 5t11 7t8 8t7 9.5v17q0 58 -24.5 79t-79.5 21q-24 0 -35 -27q-20 -54 -37.5 -75t-41.5 -21 q-21 0 -33.5 12t-12.5 31q0 50 81.5 85.5t158.5 35.5q144 0 144 -153v-201q0 -24 22 -28.5t53 13.5v-26q-53 -45 -110 -61zM90 737q-8 47 22 77t75 30q37 0 78 -33t71 -33q22 0 36.5 14.5t14.5 28.5h23q8 -46 -22.5 -76.5t-75.5 -30.5q-37 0 -77.5 33t-70.5 33 q-22 0 -36.5 -14.5t-14.5 -28.5h-23zM106 679h28q15 -67 121 -67t121 67h28q0 -65 -40.5 -102.5t-108.5 -37.5t-108.5 37.5t-40.5 102.5zM148 125q0 -32 19 -51.5t49 -19.5q56 0 104 61v120l-86 -24q-86 -25 -86 -86z" glyph-name="uni1EB5" horiz-adv-x="525" unicode="ẵ"/><glyph d="M0 26q41 7 55 16.5t28 41.5l238 553h43l241 -554q14 -32 28 -41t55 -16v-26h-288v26q50 10 60 19q13 13 2 38l-45 104h-244l-44 -104q-15 -18 -3 -30.5t20.5 -16t34.5 -8.5q6 -1 9 -2v-26h-190v26zM189 225h211l-107 247zM193 869h28q15 -67 121 -67t121 67h28 q0 -65 -40.5 -102.5t-108.5 -37.5t-108.5 37.5t-40.5 102.5zM269 -129q0 29 21.5 50t51.5 21q29 0 50.5 -21t21.5 -50q0 -31 -21 -52t-51 -21t-51.5 21t-21.5 52z" glyph-name="uni1EB6" horiz-adv-x="688" unicode="Ặ"/><glyph d="M405 -7q-33 0 -58 24.5t-27 55.5q-78 -80 -171 -80q-53 0 -88.5 27.5t-35.5 78.5q0 26 11 46t25 33t45 26.5t52.5 20t66.5 19.5q4 1 15.5 4t15.5 4.5t13.5 4.5t13.5 4.5t11 5t11 7t8 8t7 9.5v17q0 58 -24.5 79t-79.5 21q-24 0 -35 -27q-20 -54 -37.5 -75t-41.5 -21 q-21 0 -33.5 12t-12.5 31q0 50 81.5 85.5t158.5 35.5q144 0 144 -153v-201q0 -24 22 -28.5t53 13.5v-26q-53 -45 -110 -61zM106 679h28q15 -67 121 -67t121 67h28q0 -65 -40.5 -102.5t-108.5 -37.5t-108.5 37.5t-40.5 102.5zM148 125q0 -32 19 -51.5t49 -19.5q56 0 104 61 v120l-86 -24q-86 -25 -86 -86zM190 -129q0 29 21.5 50t51.5 21q29 0 50.5 -21t21.5 -50q0 -31 -21.5 -52t-50.5 -21q-30 0 -51.5 21t-21.5 52z" glyph-name="uni1EB7" horiz-adv-x="525" unicode="ặ"/><glyph d="M20 26q51 10 64 20q19 16 19 59v420q0 23 -3.5 37t-17.5 22.5t-20.5 10.5t-33.5 7q-5 1 -8 2v26h508l9 -146h-31q-7 57 -27 81.5t-71 24.5h-79q-59 0 -76.5 -13t-17.5 -63v-177h67q86 0 110 17t29 67h25v-206h-25q-5 50 -29 67t-110 17h-67v-183q0 -50 17.5 -63t76.5 -13 h58q59 0 92 24.5t61 89.5h31l-41 -154h-510v26zM225 -129q0 29 21.5 50t51.5 21q29 0 50.5 -21t21.5 -50q0 -31 -21 -52t-51 -21t-51.5 21t-21.5 52z" glyph-name="uni1EB8" horiz-adv-x="596" unicode="Ẹ"/><glyph d="M265 -7q-102 0 -168.5 61.5t-66.5 163.5q0 104 67.5 167.5t165.5 63.5q107 0 160 -70.5t23 -143.5h-294q8 -78 53 -125t115 -47q79 0 113 48l19 -14q-19 -49 -69 -76.5t-118 -27.5zM151 272h183q9 54 -12.5 97t-69.5 43q-42 0 -70.5 -36t-30.5 -104zM172 -129 q0 29 21.5 50t51.5 21q29 0 50.5 -21t21.5 -50q0 -31 -21.5 -52t-50.5 -21q-30 0 -51.5 21t-21.5 52z" glyph-name="uni1EB9" horiz-adv-x="491" unicode="ẹ"/><glyph d="M20 26q51 10 64 20q19 16 19 59v420q0 23 -3.5 37t-17.5 22.5t-20.5 10.5t-33.5 7q-5 1 -8 2v26h508l9 -146h-31q-7 57 -27 81.5t-71 24.5h-79q-59 0 -76.5 -13t-17.5 -63v-177h67q86 0 110 17t29 67h25v-206h-25q-5 50 -29 67t-110 17h-67v-183q0 -50 17.5 -63t76.5 -13 h58q59 0 92 24.5t61 89.5h31l-41 -154h-510v26zM235 710q60 0 87 5.5t27 22.5q0 19 -30.5 34t-83.5 15v60h31q65 0 102 -22.5t37 -58.5q0 -38 -41 -64t-94 -26z" glyph-name="uni1EBA" horiz-adv-x="596" unicode="Ẻ"/><glyph d="M265 -7q-102 0 -168.5 61.5t-66.5 163.5q0 104 67.5 167.5t165.5 63.5q107 0 160 -70.5t23 -143.5h-294q8 -78 53 -125t115 -47q79 0 113 48l19 -14q-19 -49 -69 -76.5t-118 -27.5zM151 272h183q9 54 -12.5 97t-69.5 43q-42 0 -70.5 -36t-30.5 -104zM182 520q60 0 87 5.5 t27 22.5q0 19 -30.5 34t-83.5 15v60h31q65 0 102 -22.5t37 -58.5q0 -38 -41 -64t-94 -26z" glyph-name="uni1EBB" horiz-adv-x="491" unicode="ẻ"/><glyph d="M20 26q51 10 64 20q19 16 19 59v420q0 23 -3.5 37t-17.5 22.5t-20.5 10.5t-33.5 7q-5 1 -8 2v26h508l9 -146h-31q-7 57 -27 81.5t-71 24.5h-79q-59 0 -76.5 -13t-17.5 -63v-177h67q86 0 110 17t29 67h25v-206h-25q-5 50 -29 67t-110 17h-67v-183q0 -50 17.5 -63t76.5 -13 h58q59 0 92 24.5t61 89.5h31l-41 -154h-510v26zM133 718q-8 47 22.5 77t74.5 30q37 0 78 -33t71 -33q22 0 36.5 14.5t14.5 28.5h23q8 -46 -22.5 -76.5t-75.5 -30.5q-37 0 -77.5 33t-70.5 33q-22 0 -36.5 -14.5t-14.5 -28.5h-23z" glyph-name="uni1EBC" horiz-adv-x="596" unicode="Ẽ"/><glyph d="M265 -7q-102 0 -168.5 61.5t-66.5 163.5q0 104 67.5 167.5t165.5 63.5q107 0 160 -70.5t23 -143.5h-294q8 -78 53 -125t115 -47q79 0 113 48l19 -14q-19 -49 -69 -76.5t-118 -27.5zM80 528q-8 47 22 77t75 30q37 0 78 -33t71 -33q22 0 36.5 14.5t14.5 28.5h23 q8 -46 -22.5 -76.5t-75.5 -30.5q-37 0 -77.5 33t-70.5 33q-22 0 -36.5 -14.5t-14.5 -28.5h-23zM151 272h183q9 54 -12.5 97t-69.5 43q-42 0 -70.5 -36t-30.5 -104z" glyph-name="uni1EBD" horiz-adv-x="491" unicode="ẽ"/><glyph d="M20 26q51 10 64 20q19 16 19 59v420q0 23 -3.5 37t-17.5 22.5t-20.5 10.5t-33.5 7q-5 1 -8 2v26h508l9 -146h-31q-7 57 -27 81.5t-71 24.5h-79q-59 0 -76.5 -13t-17.5 -63v-177h67q86 0 110 17t29 67h25v-206h-25q-5 50 -29 67t-110 17h-67v-183q0 -50 17.5 -63t76.5 -13 h58q59 0 92 24.5t61 89.5h31l-41 -154h-510v26zM157 728l141 150l141 -151l-14 -15l-127 85l-127 -85zM331 882q22 85 69 151q24 0 50.5 -19.5t34.5 -43.5q-63 -42 -124 -107z" glyph-name="uni1EBE" horiz-adv-x="596" unicode="Ế"/><glyph d="M265 -7q-102 0 -168.5 61.5t-66.5 163.5q0 104 67.5 167.5t165.5 63.5q107 0 160 -70.5t23 -143.5h-294q8 -78 53 -125t115 -47q79 0 113 48l19 -14q-19 -49 -69 -76.5t-118 -27.5zM104 538l141 150l141 -151l-14 -15l-127 85l-127 -85zM151 272h183q9 54 -12.5 97 t-69.5 43q-42 0 -70.5 -36t-30.5 -104zM278 692q22 85 69 151q24 0 50.5 -19.5t34.5 -43.5q-63 -42 -124 -107z" glyph-name="uni1EBF" horiz-adv-x="491" unicode="ế"/><glyph d="M20 26q51 10 64 20q19 16 19 59v420q0 23 -3.5 37t-17.5 22.5t-20.5 10.5t-33.5 7q-5 1 -8 2v26h508l9 -146h-31q-7 57 -27 81.5t-71 24.5h-79q-59 0 -76.5 -13t-17.5 -63v-177h67q86 0 110 17t29 67h25v-206h-25q-5 50 -29 67t-110 17h-67v-183q0 -50 17.5 -63t76.5 -13 h58q59 0 92 24.5t61 89.5h31l-41 -154h-510v26zM157 728l141 150l141 -151l-14 -15l-127 85l-127 -85zM261 970q8 24 34.5 43.5t50.5 19.5q47 -66 69 -151l-30 -19q-61 65 -124 107z" glyph-name="uni1EC0" horiz-adv-x="596" unicode="Ề"/><glyph d="M265 -7q-102 0 -168.5 61.5t-66.5 163.5q0 104 67.5 167.5t165.5 63.5q107 0 160 -70.5t23 -143.5h-294q8 -78 53 -125t115 -47q79 0 113 48l19 -14q-19 -49 -69 -76.5t-118 -27.5zM104 538l141 150l141 -151l-14 -15l-127 85l-127 -85zM151 272h183q9 54 -12.5 97 t-69.5 43q-42 0 -70.5 -36t-30.5 -104zM208 780q8 24 34.5 43.5t50.5 19.5q47 -66 69 -151l-30 -19q-61 65 -124 107z" glyph-name="uni1EC1" horiz-adv-x="491" unicode="ề"/><glyph d="M20 26q51 10 64 20q19 16 19 59v420q0 23 -3.5 37t-17.5 22.5t-20.5 10.5t-33.5 7q-5 1 -8 2v26h508l9 -146h-31q-7 57 -27 81.5t-71 24.5h-79q-59 0 -76.5 -13t-17.5 -63v-177h67q86 0 110 17t29 67h25v-206h-25q-5 50 -29 67t-110 17h-67v-183q0 -50 17.5 -63t76.5 -13 h58q59 0 92 24.5t61 89.5h31l-41 -154h-510v26zM157 728l141 150l141 -151l-14 -15l-127 85l-127 -85zM339 896q60 0 87 5.5t27 22.5q0 19 -30.5 34t-83.5 15v60h31q65 0 102 -22.5t37 -58.5q0 -38 -41 -64t-94 -26z" glyph-name="uni1EC2" horiz-adv-x="596" unicode="Ể"/><glyph d="M265 -7q-102 0 -168.5 61.5t-66.5 163.5q0 104 67.5 167.5t165.5 63.5q107 0 160 -70.5t23 -143.5h-294q8 -78 53 -125t115 -47q79 0 113 48l19 -14q-19 -49 -69 -76.5t-118 -27.5zM104 538l141 150l141 -151l-14 -15l-127 85l-127 -85zM151 272h183q9 54 -12.5 97 t-69.5 43q-42 0 -70.5 -36t-30.5 -104zM286 706q60 0 87 5.5t27 22.5q0 19 -30.5 34t-83.5 15v60h31q65 0 102 -22.5t37 -58.5q0 -38 -41 -64t-94 -26z" glyph-name="uni1EC3" horiz-adv-x="491" unicode="ể"/><glyph d="M20 26q51 10 64 20q19 16 19 59v420q0 23 -3.5 37t-17.5 22.5t-20.5 10.5t-33.5 7q-5 1 -8 2v26h508l9 -146h-31q-7 57 -27 81.5t-71 24.5h-79q-59 0 -76.5 -13t-17.5 -63v-177h67q86 0 110 17t29 67h25v-206h-25q-5 50 -29 67t-110 17h-67v-183q0 -50 17.5 -63t76.5 -13 h58q59 0 92 24.5t61 89.5h31l-41 -154h-510v26zM133 946q-8 47 22.5 77t74.5 30q37 0 78 -33t71 -33q22 0 36.5 14.5t14.5 28.5h23q8 -46 -22.5 -76.5t-75.5 -30.5q-37 0 -77.5 33t-70.5 33q-22 0 -36.5 -14.5t-14.5 -28.5h-23zM157 728l141 150l141 -151l-14 -15l-127 85 l-127 -85z" glyph-name="uni1EC4" horiz-adv-x="596" unicode="Ễ"/><glyph d="M265 -7q-102 0 -168.5 61.5t-66.5 163.5q0 104 67.5 167.5t165.5 63.5q107 0 160 -70.5t23 -143.5h-294q8 -78 53 -125t115 -47q79 0 113 48l19 -14q-19 -49 -69 -76.5t-118 -27.5zM80 756q-8 47 22 77t75 30q37 0 78 -33t71 -33q22 0 36.5 14.5t14.5 28.5h23 q8 -46 -22.5 -76.5t-75.5 -30.5q-37 0 -77.5 33t-70.5 33q-22 0 -36.5 -14.5t-14.5 -28.5h-23zM104 538l141 150l141 -151l-14 -15l-127 85l-127 -85zM151 272h183q9 54 -12.5 97t-69.5 43q-42 0 -70.5 -36t-30.5 -104z" glyph-name="uni1EC5" horiz-adv-x="491" unicode="ễ"/><glyph d="M20 26q51 10 64 20q19 16 19 59v420q0 23 -3.5 37t-17.5 22.5t-20.5 10.5t-33.5 7q-5 1 -8 2v26h508l9 -146h-31q-7 57 -27 81.5t-71 24.5h-79q-59 0 -76.5 -13t-17.5 -63v-177h67q86 0 110 17t29 67h25v-206h-25q-5 50 -29 67t-110 17h-67v-183q0 -50 17.5 -63t76.5 -13 h58q59 0 92 24.5t61 89.5h31l-41 -154h-510v26zM157 728l141 150l141 -151l-14 -15l-127 85l-127 -85zM225 -129q0 29 21.5 50t51.5 21q29 0 50.5 -21t21.5 -50q0 -31 -21 -52t-51 -21t-51.5 21t-21.5 52z" glyph-name="uni1EC6" horiz-adv-x="596" unicode="Ệ"/><glyph d="M265 -7q-102 0 -168.5 61.5t-66.5 163.5q0 104 67.5 167.5t165.5 63.5q107 0 160 -70.5t23 -143.5h-294q8 -78 53 -125t115 -47q79 0 113 48l19 -14q-19 -49 -69 -76.5t-118 -27.5zM104 538l141 150l141 -151l-14 -15l-127 85l-127 -85zM151 272h183q9 54 -12.5 97 t-69.5 43q-42 0 -70.5 -36t-30.5 -104zM172 -129q0 29 21.5 50t51.5 21q29 0 50.5 -21t21.5 -50q0 -31 -21.5 -52t-50.5 -21q-30 0 -51.5 21t-21.5 52z" glyph-name="uni1EC7" horiz-adv-x="491" unicode="ệ"/><glyph d="M20 26q51 10 64 20q19 16 19 59v420q0 23 -3.5 37t-17.5 22.5t-20.5 10.5t-33.5 7q-5 1 -8 2v26h298v-26q-51 -10 -64 -20q-19 -16 -19 -59v-420q0 -23 3.5 -37t17.5 -22.5t20.5 -10.5t33.5 -7q5 -1 8 -2v-26h-298v26zM106 710q60 0 87 5.5t27 22.5q0 19 -30.5 34 t-83.5 15v60h31q65 0 102 -22.5t37 -58.5q0 -38 -41 -64t-94 -26z" glyph-name="uni1EC8" horiz-adv-x="338" unicode="Ỉ"/><glyph d="M20 26q20 4 29 6t19.5 8t14 16t3.5 26v229q0 30 -12.5 44t-53.5 19v24q104 18 165 58l21 -19v-355q0 -16 3.5 -26t14 -16t19.5 -8t29 -6v-26h-252v26zM78 520q60 0 87 5.5t27 22.5q0 19 -30.5 34t-83.5 15v60h31q65 0 102 -22.5t37 -58.5q0 -38 -41 -64t-94 -26z" glyph-name="uni1EC9" horiz-adv-x="292" unicode="ỉ"/><glyph d="M20 26q51 10 64 20q19 16 19 59v420q0 23 -3.5 37t-17.5 22.5t-20.5 10.5t-33.5 7q-5 1 -8 2v26h298v-26q-51 -10 -64 -20q-19 -16 -19 -59v-420q0 -23 3.5 -37t17.5 -22.5t20.5 -10.5t33.5 -7q5 -1 8 -2v-26h-298v26zM96 -129q0 29 21.5 50t51.5 21q29 0 50.5 -21 t21.5 -50q0 -31 -21.5 -52t-50.5 -21q-30 0 -51.5 21t-21.5 52z" glyph-name="uni1ECA" horiz-adv-x="338" unicode="Ị"/><glyph d="M20 26q20 4 29 6t19.5 8t14 16t3.5 26v229q0 30 -12.5 44t-53.5 19v24q104 18 165 58l21 -19v-355q0 -16 3.5 -26t14 -16t19.5 -8t29 -6v-26h-252v26zM68 599q0 29 21.5 49.5t51.5 20.5t51.5 -20.5t21.5 -49.5t-22 -50t-51 -21t-51 21t-22 50zM73 -129q0 29 21.5 50 t51.5 21q29 0 50.5 -21t21.5 -50q0 -31 -21 -52t-51 -21t-51.5 21t-21.5 52z" glyph-name="uni1ECB" horiz-adv-x="292" unicode="ị"/><glyph d="M361 -12q-139 0 -230 92t-91 233q0 144 92 238.5t233 94.5q139 0 230 -92.5t91 -235.5q0 -142 -92 -236t-233 -94zM180 343q0 -141 54 -228t144 -87q79 0 123.5 68.5t44.5 191.5q0 143 -54 230.5t-144 87.5q-79 0 -123.5 -69t-44.5 -194zM290 -129q0 29 21.5 50t51.5 21 q29 0 50.5 -21t21.5 -50q0 -31 -21.5 -52t-50.5 -21q-30 0 -51.5 21t-21.5 52z" glyph-name="uni1ECC" horiz-adv-x="726" unicode="Ọ"/><glyph d="M264 -9q-100 0 -167 61.5t-67 164.5q0 106 71.5 169t173.5 63q100 0 167 -61.5t67 -164.5q0 -106 -71.5 -169t-173.5 -63zM157 241q0 -86 31.5 -150t89.5 -64q46 0 75 44.5t29 127.5q0 86 -31.5 150t-89.5 64q-46 0 -75 -44.5t-29 -127.5zM197 -129q0 29 21.5 50t51.5 21 q29 0 50.5 -21t21.5 -50q0 -31 -21 -52t-51 -21t-51.5 21t-21.5 52z" glyph-name="uni1ECD" horiz-adv-x="539" unicode="ọ"/><glyph d="M361 -12q-139 0 -230 92t-91 233q0 144 92 238.5t233 94.5q139 0 230 -92.5t91 -235.5q0 -142 -92 -236t-233 -94zM180 343q0 -141 54 -228t144 -87q79 0 123.5 68.5t44.5 191.5q0 143 -54 230.5t-144 87.5q-79 0 -123.5 -69t-44.5 -194zM300 710q60 0 87 5.5t27 22.5 q0 19 -30.5 34t-83.5 15v60h31q65 0 102 -22.5t37 -58.5q0 -38 -41 -64t-94 -26z" glyph-name="uni1ECE" horiz-adv-x="726" unicode="Ỏ"/><glyph d="M264 -9q-100 0 -167 61.5t-67 164.5q0 106 71.5 169t173.5 63q100 0 167 -61.5t67 -164.5q0 -106 -71.5 -169t-173.5 -63zM157 241q0 -86 31.5 -150t89.5 -64q46 0 75 44.5t29 127.5q0 86 -31.5 150t-89.5 64q-46 0 -75 -44.5t-29 -127.5zM207 520q60 0 87 5.5t27 22.5 q0 19 -30.5 34t-83.5 15v60h31q65 0 102 -22.5t37 -58.5q0 -38 -41 -64t-94 -26z" glyph-name="uni1ECF" horiz-adv-x="539" unicode="ỏ"/><glyph d="M361 -12q-139 0 -230 92t-91 233q0 144 92 238.5t233 94.5q139 0 230 -92.5t91 -235.5q0 -142 -92 -236t-233 -94zM180 343q0 -141 54 -228t144 -87q79 0 123.5 68.5t44.5 191.5q0 143 -54 230.5t-144 87.5q-79 0 -123.5 -69t-44.5 -194zM222 728l141 150l141 -151 l-14 -15l-127 85l-127 -85zM396 882q22 85 69 151q24 0 50.5 -19.5t34.5 -43.5q-63 -42 -124 -107z" glyph-name="uni1ED0" horiz-adv-x="726" unicode="Ố"/><glyph d="M264 -9q-100 0 -167 61.5t-67 164.5q0 106 71.5 169t173.5 63q100 0 167 -61.5t67 -164.5q0 -106 -71.5 -169t-173.5 -63zM129 538l141 150l141 -151l-14 -15l-127 85l-127 -85zM157 241q0 -86 31.5 -150t89.5 -64q46 0 75 44.5t29 127.5q0 86 -31.5 150t-89.5 64 q-46 0 -75 -44.5t-29 -127.5zM303 692q22 85 69 151q24 0 50.5 -19.5t34.5 -43.5q-63 -42 -124 -107z" glyph-name="uni1ED1" horiz-adv-x="539" unicode="ố"/><glyph d="M361 -12q-139 0 -230 92t-91 233q0 144 92 238.5t233 94.5q139 0 230 -92.5t91 -235.5q0 -142 -92 -236t-233 -94zM180 343q0 -141 54 -228t144 -87q79 0 123.5 68.5t44.5 191.5q0 143 -54 230.5t-144 87.5q-79 0 -123.5 -69t-44.5 -194zM222 728l141 150l141 -151 l-14 -15l-127 85l-127 -85zM326 970q8 24 34.5 43.5t50.5 19.5q47 -66 69 -151l-30 -19q-61 65 -124 107z" glyph-name="uni1ED2" horiz-adv-x="726" unicode="Ồ"/><glyph d="M264 -9q-100 0 -167 61.5t-67 164.5q0 106 71.5 169t173.5 63q100 0 167 -61.5t67 -164.5q0 -106 -71.5 -169t-173.5 -63zM129 538l141 150l141 -151l-14 -15l-127 85l-127 -85zM157 241q0 -86 31.5 -150t89.5 -64q46 0 75 44.5t29 127.5q0 86 -31.5 150t-89.5 64 q-46 0 -75 -44.5t-29 -127.5zM233 780q8 24 34.5 43.5t50.5 19.5q47 -66 69 -151l-30 -19q-61 65 -124 107z" glyph-name="uni1ED3" horiz-adv-x="539" unicode="ồ"/><glyph d="M361 -12q-139 0 -230 92t-91 233q0 144 92 238.5t233 94.5q139 0 230 -92.5t91 -235.5q0 -142 -92 -236t-233 -94zM180 343q0 -141 54 -228t144 -87q79 0 123.5 68.5t44.5 191.5q0 143 -54 230.5t-144 87.5q-79 0 -123.5 -69t-44.5 -194zM222 728l141 150l141 -151 l-14 -15l-127 85l-127 -85zM404 896q60 0 87 5.5t27 22.5q0 19 -30.5 34t-83.5 15v60h31q65 0 102 -22.5t37 -58.5q0 -38 -41 -64t-94 -26z" glyph-name="uni1ED4" horiz-adv-x="726" unicode="Ổ"/><glyph d="M264 -9q-100 0 -167 61.5t-67 164.5q0 106 71.5 169t173.5 63q100 0 167 -61.5t67 -164.5q0 -106 -71.5 -169t-173.5 -63zM129 538l141 150l141 -151l-14 -15l-127 85l-127 -85zM157 241q0 -86 31.5 -150t89.5 -64q46 0 75 44.5t29 127.5q0 86 -31.5 150t-89.5 64 q-46 0 -75 -44.5t-29 -127.5zM311 706q60 0 87 5.5t27 22.5q0 19 -30.5 34t-83.5 15v60h31q65 0 102 -22.5t37 -58.5q0 -38 -41 -64t-94 -26z" glyph-name="uni1ED5" horiz-adv-x="539" unicode="ổ"/><glyph d="M361 -12q-139 0 -230 92t-91 233q0 144 92 238.5t233 94.5q139 0 230 -92.5t91 -235.5q0 -142 -92 -236t-233 -94zM180 343q0 -141 54 -228t144 -87q79 0 123.5 68.5t44.5 191.5q0 143 -54 230.5t-144 87.5q-79 0 -123.5 -69t-44.5 -194zM198 946q-8 47 22 77t75 30 q37 0 78 -33t71 -33q22 0 36.5 14.5t14.5 28.5h23q8 -46 -22.5 -76.5t-75.5 -30.5q-37 0 -77.5 33t-70.5 33q-22 0 -36.5 -14.5t-14.5 -28.5h-23zM222 728l141 150l141 -151l-14 -15l-127 85l-127 -85z" glyph-name="uni1ED6" horiz-adv-x="726" unicode="Ỗ"/><glyph d="M264 -9q-100 0 -167 61.5t-67 164.5q0 106 71.5 169t173.5 63q100 0 167 -61.5t67 -164.5q0 -106 -71.5 -169t-173.5 -63zM105 756q-8 47 22.5 77t74.5 30q37 0 78 -33t71 -33q22 0 36.5 14.5t14.5 28.5h23q8 -46 -22.5 -76.5t-75.5 -30.5q-37 0 -77.5 33t-70.5 33 q-22 0 -36.5 -14.5t-14.5 -28.5h-23zM129 538l141 150l141 -151l-14 -15l-127 85l-127 -85zM157 241q0 -86 31.5 -150t89.5 -64q46 0 75 44.5t29 127.5q0 86 -31.5 150t-89.5 64q-46 0 -75 -44.5t-29 -127.5z" glyph-name="uni1ED7" horiz-adv-x="539" unicode="ỗ"/><glyph d="M361 -12q-139 0 -230 92t-91 233q0 144 92 238.5t233 94.5q139 0 230 -92.5t91 -235.5q0 -142 -92 -236t-233 -94zM180 343q0 -141 54 -228t144 -87q79 0 123.5 68.5t44.5 191.5q0 143 -54 230.5t-144 87.5q-79 0 -123.5 -69t-44.5 -194zM222 728l141 150l141 -151 l-14 -15l-127 85l-127 -85zM290 -129q0 29 21.5 50t51.5 21q29 0 50.5 -21t21.5 -50q0 -31 -21.5 -52t-50.5 -21q-30 0 -51.5 21t-21.5 52z" glyph-name="uni1ED8" horiz-adv-x="726" unicode="Ộ"/><glyph d="M264 -9q-100 0 -167 61.5t-67 164.5q0 106 71.5 169t173.5 63q100 0 167 -61.5t67 -164.5q0 -106 -71.5 -169t-173.5 -63zM129 538l141 150l141 -151l-14 -15l-127 85l-127 -85zM157 241q0 -86 31.5 -150t89.5 -64q46 0 75 44.5t29 127.5q0 86 -31.5 150t-89.5 64 q-46 0 -75 -44.5t-29 -127.5zM197 -129q0 29 21.5 50t51.5 21q29 0 50.5 -21t21.5 -50q0 -31 -21 -52t-51 -21t-51.5 21t-21.5 52z" glyph-name="uni1ED9" horiz-adv-x="539" unicode="ộ"/><glyph d="M361 -12q-139 0 -230 92t-91 233q0 144 92 238.5t233 94.5q92 0 216 -33q0 40 -20 140l104 -10q-10 -50 -10 -175l-98 19q61 -44 95 -113.5t34 -155.5q0 -142 -92 -236t-233 -94zM180 343q0 -141 54 -228t144 -87q79 0 123.5 68.5t44.5 191.5q0 143 -54 230.5t-144 87.5 q-79 0 -123.5 -69t-44.5 -194zM327 714q22 85 69 151q24 0 50.5 -19.5t34.5 -43.5q-63 -42 -124 -107z" glyph-name="uni1EDA" horiz-adv-x="726" unicode="Ớ"/><glyph d="M264 -9q-100 0 -167 61.5t-67 164.5q0 106 71.5 169t173.5 63q92 0 216 -33q0 40 -20 140l104 -10q-10 -50 -10 -175l-133 25q77 -64 77 -173q0 -106 -71.5 -169t-173.5 -63zM157 241q0 -86 31.5 -150t89.5 -64q46 0 75 44.5t29 127.5q0 86 -31.5 150t-89.5 64 q-46 0 -75 -44.5t-29 -127.5zM234 524q22 85 69 151q24 0 50.5 -19.5t34.5 -43.5q-63 -42 -124 -107z" glyph-name="uni1EDB" horiz-adv-x="539" unicode="ớ"/><glyph d="M361 -12q-139 0 -230 92t-91 233q0 144 92 238.5t233 94.5q92 0 216 -33q0 40 -20 140l104 -10q-10 -50 -10 -175l-98 19q61 -44 95 -113.5t34 -155.5q0 -142 -92 -236t-233 -94zM180 343q0 -141 54 -228t144 -87q79 0 123.5 68.5t44.5 191.5q0 143 -54 230.5t-144 87.5 q-79 0 -123.5 -69t-44.5 -194zM250 802q8 24 34.5 43.5t50.5 19.5q47 -66 69 -151l-30 -19q-61 65 -124 107z" glyph-name="uni1EDC" horiz-adv-x="726" unicode="Ờ"/><glyph d="M264 -9q-100 0 -167 61.5t-67 164.5q0 106 71.5 169t173.5 63q92 0 216 -33q0 40 -20 140l104 -10q-10 -50 -10 -175l-133 25q77 -64 77 -173q0 -106 -71.5 -169t-173.5 -63zM157 241q0 -86 31.5 -150t89.5 -64q46 0 75 44.5t29 127.5q0 86 -31.5 150t-89.5 64 q-46 0 -75 -44.5t-29 -127.5zM157 612q8 24 34.5 43.5t50.5 19.5q47 -66 69 -151l-30 -19q-61 65 -124 107z" glyph-name="uni1EDD" horiz-adv-x="539" unicode="ờ"/><glyph d="M361 -12q-139 0 -230 92t-91 233q0 144 92 238.5t233 94.5q92 0 216 -33q0 40 -20 140l104 -10q-10 -50 -10 -175l-98 19q61 -44 95 -113.5t34 -155.5q0 -142 -92 -236t-233 -94zM180 343q0 -141 54 -228t144 -87q79 0 123.5 68.5t44.5 191.5q0 143 -54 230.5t-144 87.5 q-79 0 -123.5 -69t-44.5 -194zM300 710q60 0 87 5.5t27 22.5q0 19 -30.5 34t-83.5 15v60h31q65 0 102 -22.5t37 -58.5q0 -38 -41 -64t-94 -26z" glyph-name="uni1EDE" horiz-adv-x="726" unicode="Ở"/><glyph d="M264 -9q-100 0 -167 61.5t-67 164.5q0 106 71.5 169t173.5 63q92 0 216 -33q0 40 -20 140l104 -10q-10 -50 -10 -175l-133 25q77 -64 77 -173q0 -106 -71.5 -169t-173.5 -63zM157 241q0 -86 31.5 -150t89.5 -64q46 0 75 44.5t29 127.5q0 86 -31.5 150t-89.5 64 q-46 0 -75 -44.5t-29 -127.5zM207 520q60 0 87 5.5t27 22.5q0 19 -30.5 34t-83.5 15v60h31q65 0 102 -22.5t37 -58.5q0 -38 -41 -64t-94 -26z" glyph-name="uni1EDF" horiz-adv-x="539" unicode="ở"/><glyph d="M361 -12q-139 0 -230 92t-91 233q0 144 92 238.5t233 94.5q92 0 216 -33q0 40 -20 140l104 -10q-10 -50 -10 -175l-98 19q61 -44 95 -113.5t34 -155.5q0 -142 -92 -236t-233 -94zM180 343q0 -141 54 -228t144 -87q79 0 123.5 68.5t44.5 191.5q0 143 -54 230.5t-144 87.5 q-79 0 -123.5 -69t-44.5 -194zM198 718q-8 47 22 77t75 30q37 0 78 -33t71 -33q22 0 36.5 14.5t14.5 28.5h23q8 -46 -22.5 -76.5t-75.5 -30.5q-37 0 -77.5 33t-70.5 33q-22 0 -36.5 -14.5t-14.5 -28.5h-23z" glyph-name="uni1EE0" horiz-adv-x="726" unicode="Ỡ"/><glyph d="M264 -9q-100 0 -167 61.5t-67 164.5q0 106 71.5 169t173.5 63q92 0 216 -33q0 40 -20 140l104 -10q-10 -50 -10 -175l-133 25q77 -64 77 -173q0 -106 -71.5 -169t-173.5 -63zM105 528q-8 47 22.5 77t74.5 30q37 0 78 -33t71 -33q22 0 36.5 14.5t14.5 28.5h23 q8 -46 -22.5 -76.5t-75.5 -30.5q-37 0 -77.5 33t-70.5 33q-22 0 -36.5 -14.5t-14.5 -28.5h-23zM157 241q0 -86 31.5 -150t89.5 -64q46 0 75 44.5t29 127.5q0 86 -31.5 150t-89.5 64q-46 0 -75 -44.5t-29 -127.5z" glyph-name="uni1EE1" horiz-adv-x="539" unicode="ỡ"/><glyph d="M361 -12q-139 0 -230 92t-91 233q0 144 92 238.5t233 94.5q92 0 216 -33q0 40 -20 140l104 -10q-10 -50 -10 -175l-98 19q61 -44 95 -113.5t34 -155.5q0 -142 -92 -236t-233 -94zM180 343q0 -141 54 -228t144 -87q79 0 123.5 68.5t44.5 191.5q0 143 -54 230.5t-144 87.5 q-79 0 -123.5 -69t-44.5 -194zM290 -129q0 29 21.5 50t51.5 21q29 0 50.5 -21t21.5 -50q0 -31 -21.5 -52t-50.5 -21q-30 0 -51.5 21t-21.5 52z" glyph-name="uni1EE2" horiz-adv-x="726" unicode="Ợ"/><glyph d="M264 -9q-100 0 -167 61.5t-67 164.5q0 106 71.5 169t173.5 63q92 0 216 -33q0 40 -20 140l104 -10q-10 -50 -10 -175l-133 25q77 -64 77 -173q0 -106 -71.5 -169t-173.5 -63zM157 241q0 -86 31.5 -150t89.5 -64q46 0 75 44.5t29 127.5q0 86 -31.5 150t-89.5 64 q-46 0 -75 -44.5t-29 -127.5zM197 -129q0 29 21.5 50t51.5 21q29 0 50.5 -21t21.5 -50q0 -31 -21 -52t-51 -21t-51.5 21t-21.5 52z" glyph-name="uni1EE3" horiz-adv-x="539" unicode="ợ"/><glyph d="M360 -12q-49 0 -90 10.5t-81 37.5t-63 82t-23 134v273q0 23 -3.5 37t-17.5 22.5t-20.5 10.5t-33.5 7q-5 1 -8 2v26h299v-26q-51 -10 -64 -20q-19 -16 -19 -59v-288q0 -204 159 -204q29 0 55 7t53.5 26t44 59.5t16.5 98.5v301q0 23 -4 37t-17.5 22.5t-21.5 10.5t-33 7 q-6 1 -9 2v26h220v-26q-56 -10 -69 -20q-21 -16 -21 -59v-281q0 -256 -249 -256zM286 -129q0 29 21.5 50t51.5 21q29 0 50.5 -21t21.5 -50q0 -31 -21.5 -52t-50.5 -21q-30 0 -51.5 21t-21.5 52z" glyph-name="uni1EE4" horiz-adv-x="719" unicode="Ụ"/><glyph d="M208 -7q-132 0 -132 152v224q0 18 -8.5 27.5t-19 12.5t-33.5 7v24q115 -6 181 6v-296q0 -87 73 -87q51 0 100 50v256q0 18 -8.5 27.5t-19 12.5t-33.5 7v24q115 -6 181 6v-354q0 -30 12.5 -44.5t53.5 -21.5v-26h-171l6 79h-15q-38 -41 -76.5 -63.5t-90.5 -22.5zM212 -129 q0 29 21.5 50t51.5 21q29 0 50.5 -21t21.5 -50q0 -31 -21.5 -52t-50.5 -21q-30 0 -51.5 21t-21.5 52z" glyph-name="uni1EE5" horiz-adv-x="570" unicode="ụ"/><glyph d="M360 -12q-49 0 -90 10.5t-81 37.5t-63 82t-23 134v273q0 23 -3.5 37t-17.5 22.5t-20.5 10.5t-33.5 7q-5 1 -8 2v26h299v-26q-51 -10 -64 -20q-19 -16 -19 -59v-288q0 -204 159 -204q29 0 55 7t53.5 26t44 59.5t16.5 98.5v301q0 23 -4 37t-17.5 22.5t-21.5 10.5t-33 7 q-6 1 -9 2v26h220v-26q-56 -10 -69 -20q-21 -16 -21 -59v-281q0 -256 -249 -256zM296 710q60 0 87 5.5t27 22.5q0 19 -30.5 34t-83.5 15v60h31q65 0 102 -22.5t37 -58.5q0 -38 -41 -64t-94 -26z" glyph-name="uni1EE6" horiz-adv-x="719" unicode="Ủ"/><glyph d="M208 -7q-132 0 -132 152v224q0 18 -8.5 27.5t-19 12.5t-33.5 7v24q115 -6 181 6v-296q0 -87 73 -87q51 0 100 50v256q0 18 -8.5 27.5t-19 12.5t-33.5 7v24q115 -6 181 6v-354q0 -30 12.5 -44.5t53.5 -21.5v-26h-171l6 79h-15q-38 -41 -76.5 -63.5t-90.5 -22.5zM222 520 q60 0 87 5.5t27 22.5q0 19 -30.5 34t-83.5 15v60h31q65 0 102 -22.5t37 -58.5q0 -38 -41 -64t-94 -26z" glyph-name="uni1EE7" horiz-adv-x="570" unicode="ủ"/><glyph d="M360 -12q-49 0 -90 10.5t-81 37.5t-63 82t-23 134v273q0 23 -3.5 37t-17.5 22.5t-20.5 10.5t-33.5 7q-5 1 -8 2v26h299v-26q-51 -10 -64 -20q-19 -16 -19 -59v-288q0 -204 159 -204q29 0 55 7t53.5 26t44 59.5t16.5 98.5v301q0 23 -4 37t-17.5 22.5t-21.5 10.5t-33 7 q-6 1 -9 2v26h216q0 31 -20 117l104 -10q-10 -44 -10 -133h-70q-56 -10 -69 -20q-21 -16 -21 -59v-281q0 -256 -249 -256zM324 714q22 85 69 151q24 0 50.5 -19.5t34.5 -43.5q-63 -42 -124 -107z" glyph-name="uni1EE8" horiz-adv-x="719" unicode="Ứ"/><glyph d="M308 416v24l203 8q0 23 -20 109l104 -10q-10 -44 -10 -131h-96v-324q0 -30 12.5 -44.5t53.5 -21.5v-26h-171l6 79h-15q-38 -41 -76.5 -63.5t-90.5 -22.5q-132 0 -132 152v224q0 18 -8.5 27.5t-19 12.5t-33.5 7v24q115 -6 181 6v-296q0 -87 73 -87q51 0 100 50v256 q0 18 -8.5 27.5t-19 12.5t-33.5 7zM249 524q22 85 69 151q24 0 50.5 -19.5t34.5 -43.5q-63 -42 -124 -107z" glyph-name="uni1EE9" horiz-adv-x="570" unicode="ứ"/><glyph d="M360 -12q-49 0 -90 10.5t-81 37.5t-63 82t-23 134v273q0 23 -3.5 37t-17.5 22.5t-20.5 10.5t-33.5 7q-5 1 -8 2v26h299v-26q-51 -10 -64 -20q-19 -16 -19 -59v-288q0 -204 159 -204q29 0 55 7t53.5 26t44 59.5t16.5 98.5v301q0 23 -4 37t-17.5 22.5t-21.5 10.5t-33 7 q-6 1 -9 2v26h216q0 31 -20 117l104 -10q-10 -44 -10 -133h-70q-56 -10 -69 -20q-21 -16 -21 -59v-281q0 -256 -249 -256zM247 802q8 24 34.5 43.5t50.5 19.5q47 -66 69 -151l-30 -19q-61 65 -124 107z" glyph-name="uni1EEA" horiz-adv-x="719" unicode="Ừ"/><glyph d="M308 416v24l203 8q0 23 -20 109l104 -10q-10 -44 -10 -131h-96v-324q0 -30 12.5 -44.5t53.5 -21.5v-26h-171l6 79h-15q-38 -41 -76.5 -63.5t-90.5 -22.5q-132 0 -132 152v224q0 18 -8.5 27.5t-19 12.5t-33.5 7v24q115 -6 181 6v-296q0 -87 73 -87q51 0 100 50v256 q0 18 -8.5 27.5t-19 12.5t-33.5 7zM172 612q8 24 34.5 43.5t50.5 19.5q47 -66 69 -151l-30 -19q-61 65 -124 107z" glyph-name="uni1EEB" horiz-adv-x="570" unicode="ừ"/><glyph d="M360 -12q-49 0 -90 10.5t-81 37.5t-63 82t-23 134v273q0 23 -3.5 37t-17.5 22.5t-20.5 10.5t-33.5 7q-5 1 -8 2v26h299v-26q-51 -10 -64 -20q-19 -16 -19 -59v-288q0 -204 159 -204q29 0 55 7t53.5 26t44 59.5t16.5 98.5v301q0 23 -4 37t-17.5 22.5t-21.5 10.5t-33 7 q-6 1 -9 2v26h216q0 31 -20 117l104 -10q-10 -44 -10 -133h-70q-56 -10 -69 -20q-21 -16 -21 -59v-281q0 -256 -249 -256zM297 710q60 0 87 5.5t27 22.5q0 19 -30.5 34t-83.5 15v60h31q65 0 102 -22.5t37 -58.5q0 -38 -41 -64t-94 -26z" glyph-name="uni1EEC" horiz-adv-x="719" unicode="Ử"/><glyph d="M308 416v24l203 8q0 23 -20 109l104 -10q-10 -44 -10 -131h-96v-324q0 -30 12.5 -44.5t53.5 -21.5v-26h-171l6 79h-15q-38 -41 -76.5 -63.5t-90.5 -22.5q-132 0 -132 152v224q0 18 -8.5 27.5t-19 12.5t-33.5 7v24q115 -6 181 6v-296q0 -87 73 -87q51 0 100 50v256 q0 18 -8.5 27.5t-19 12.5t-33.5 7zM222 520q60 0 87 5.5t27 22.5q0 19 -30.5 34t-83.5 15v60h31q65 0 102 -22.5t37 -58.5q0 -38 -41 -64t-94 -26z" glyph-name="uni1EED" horiz-adv-x="570" unicode="ử"/><glyph d="M360 -12q-49 0 -90 10.5t-81 37.5t-63 82t-23 134v273q0 23 -3.5 37t-17.5 22.5t-20.5 10.5t-33.5 7q-5 1 -8 2v26h299v-26q-51 -10 -64 -20q-19 -16 -19 -59v-288q0 -204 159 -204q29 0 55 7t53.5 26t44 59.5t16.5 98.5v301q0 23 -4 37t-17.5 22.5t-21.5 10.5t-33 7 q-6 1 -9 2v26h216q0 31 -20 117l104 -10q-10 -44 -10 -133h-70q-56 -10 -69 -20q-21 -16 -21 -59v-281q0 -256 -249 -256zM195 718q-8 47 22.5 77t74.5 30q37 0 78 -33t71 -33q22 0 36.5 14.5t14.5 28.5h23q8 -46 -22.5 -76.5t-75.5 -30.5q-37 0 -77.5 33t-70.5 33 q-22 0 -36.5 -14.5t-14.5 -28.5h-23z" glyph-name="uni1EEE" horiz-adv-x="719" unicode="Ữ"/></font>
</defs>
</svg>
