<?xml version="1.0" encoding="UTF-8"?><svg id="Layer_2" xmlns="http://www.w3.org/2000/svg" viewBox="0 0 164.94 343.62"><defs><style>.cls-1{fill:#fff;}</style></defs><g id="Layer_1-2"><g id="Group_13"><g id="Group_11"><path id="Path_45" class="cls-1" d="m26.81,241.17c-.25.17-.57.22-.86.14-.19-.03-.77-.1-.97-.14C10.89,238.85-.36,229.42.12,214.3c0-.27.2-.49.47-.49,0,0,.01,0,.02,0,3.54.02,7.06.63,10.39,1.82,6.9,2.26,12.3,7.67,14.55,14.57,1.2,3.53,1.63,7.27,1.26,10.97m-.92-1.02c-.38-1.54-.27-3.05-.51-4.59-.21-1.68-.58-3.34-1.09-4.95-2.94-10.12-13.61-15.72-23.66-15.8,0,0,.49-.5.49-.49-.34,14.81,10.91,23.67,24.69,25.6l.31.04s.2.03.23.02c-.17-.01-.34.05-.45.18"/><path id="Path_46" class="cls-1" d="m34.15,212.74l10.82-8.02c.48-.34,1.15-.22,1.48.26.32.46.23,1.1-.21,1.45-.06.05-11.45,7.09-11.53,7.14-.23.16-.54.1-.69-.13s-.1-.54.13-.69h0"/><path id="Path_47" class="cls-1" d="m34.24,213.5l-9.05-9.98c-.38-.45-.32-1.12.12-1.5.43-.36,1.06-.33,1.45.07.06.06,8.19,10.7,8.25,10.77.17.22.13.53-.08.7-.21.17-.51.14-.69-.06"/><path id="Path_48" class="cls-1" d="m39.08,192.52l10.82-8.02c.48-.34,1.15-.22,1.48.26.32.46.23,1.1-.21,1.45-.06.05-11.45,7.09-11.53,7.14-.23.15-.54.08-.69-.15-.14-.22-.09-.52.13-.68"/><path id="Path_49" class="cls-1" d="m39.17,193.28l-9.05-9.98c-.38-.45-.32-1.12.12-1.5.43-.36,1.06-.33,1.45.07.06.06,8.19,10.7,8.25,10.77.17.22.13.53-.08.7-.21.17-.51.14-.69-.06"/><path id="Path_50" class="cls-1" d="m43.86,172.09l10.82-8.02c.48-.34,1.15-.22,1.48.26.32.46.23,1.1-.21,1.45-.06.05-11.45,7.09-11.53,7.14-.23.15-.54.08-.69-.15-.14-.22-.09-.52.13-.68"/><path id="Path_51" class="cls-1" d="m43.94,172.85l-9.05-9.98c-.38-.45-.32-1.12.12-1.5.43-.36,1.06-.33,1.45.07.06.06,8.19,10.7,8.25,10.77.17.22.13.53-.08.7-.21.16-.51.14-.69-.06"/><path id="Path_52" class="cls-1" d="m52,124.96l10.82-8.02c.48-.34,1.15-.22,1.48.26.32.46.23,1.1-.21,1.45-.06.05-11.45,7.09-11.53,7.14-.23.15-.54.08-.69-.15-.14-.22-.09-.52.13-.68"/><path id="Path_53" class="cls-1" d="m52.09,125.72l-9.05-9.98c-.38-.45-.32-1.12.12-1.5.43-.36,1.06-.33,1.45.07.06.06,8.19,10.7,8.25,10.77.17.22.13.53-.08.7-.21.17-.51.14-.69-.06"/><path id="Path_54" class="cls-1" d="m55.23,102.8l10.61-8.3c.48-.35,1.14-.24,1.49.23.33.45.25,1.08-.18,1.44-.06.05-11.26,7.39-11.34,7.44-.23.15-.54.09-.69-.14-.15-.22-.1-.51.11-.67"/><path id="Path_55" class="cls-1" d="m55.33,103.56l-9.31-9.73c-.41-.42-.39-1.1.03-1.51s1.1-.39,1.51.03h0c.06.06,8.47,10.48,8.53,10.54.18.21.16.52-.05.71s-.52.16-.71-.05"/><path id="Path_56" class="cls-1" d="m56.51,81.13l9.92-9.12c.43-.4,1.11-.37,1.51.06.4.43.37,1.11-.06,1.51h0c-.06.06-10.64,8.26-10.71,8.32-.21.18-.53.15-.7-.07-.17-.21-.15-.52.06-.7"/><path id="Path_57" class="cls-1" d="m56.68,81.88l-10.05-8.97c-.44-.39-.48-1.06-.09-1.5s1.06-.48,1.5-.09h0c.06.05,9.27,9.78,9.33,9.84.2.19.2.51.01.71-.19.2-.51.2-.71.01"/><path id="Path_58" class="cls-1" d="m27.7,239.98c12.9,1.55,25.69-3.26,29.98-16.33.02-.12.35-.73.24-.86-.07-.15-.22-.24-.38-.24-13.49-3.14-25.52,2.7-29.59,16.28l-.34,1.05c0,.05.03.1.09.1m-.2,1.46c-.86-.13-1.46-.93-1.33-1.8.02-.12.05-.24.1-.36l.1-.31c4.3-14.44,16.68-20.69,31.08-17.49.6.02,1.14.37,1.41.9.15.53.09,1.1-.19,1.57-4.32,14.24-17.28,19.22-31.16,17.47"/><path id="Path_59" class="cls-1" d="m49.38,150.64c12.9,1.55,25.69-3.25,29.98-16.33.02-.12.35-.73.24-.86-.07-.15-.22-.24-.38-.24-13.49-3.14-25.52,2.7-29.59,16.28l-.34,1.05c0,.05.03.1.09.1m-.2,1.46c-.86-.13-1.46-.93-1.33-1.8.02-.12.05-.24.1-.36l.1-.31c4.3-14.44,16.68-20.69,31.09-17.49.6.02,1.14.37,1.41.9.15.53.09,1.1-.19,1.57-4.32,14.24-17.28,19.22-31.16,17.47"/><path id="Path_60" class="cls-1" d="m48.47,151.42c-.25.17-.57.22-.86.14-.19-.03-.77-.1-.97-.14-14.1-2.32-25.34-11.75-24.87-26.86,0-.27.2-.49.47-.49,0,0,.01,0,.02,0,3.54.02,7.06.63,10.39,1.82,6.9,2.26,12.3,7.67,14.55,14.57,1.2,3.53,1.63,7.27,1.26,10.97m-.92-1.02c-.38-1.54-.27-3.05-.51-4.59-.21-1.68-.58-3.34-1.09-4.95-2.94-10.12-13.61-15.72-23.66-15.8,0,0,.49-.5.49-.49-.34,14.81,10.91,23.67,24.69,25.6l.31.04s.2.03.23.02c-.17-.01-.34.05-.45.18"/><path id="Path_61" class="cls-1" d="m58.16,61.71c-.23.19-.54.28-.84.23-.2-.01-.78-.02-.98-.04-14.27-.74-26.49-8.86-27.7-23.94-.04-.26.14-.5.41-.54,0,0,.02,0,.02,0,3.52-.37,7.08-.15,10.53.65,7.11,1.48,13.08,6.25,16.08,12.86,1.58,3.37,2.42,7.04,2.47,10.76m-1.03-.91c-.55-1.49-.61-3-1.02-4.51-.4-1.65-.94-3.25-1.63-4.8-4.05-9.73-15.27-14.11-25.27-13.08l.43-.55c1.31,14.75,13.48,22.32,27.38,22.7h.3s.2,0,.23,0c-.17,0-.33.09-.43.23"/><path id="Path_62" class="cls-1" d="m58.68,60.3c12.99.09,25.17-6.11,27.96-19.59,0-.12.26-.77.14-.88-.09-.14-.25-.21-.41-.2-13.76-1.61-25.06,5.54-27.58,19.49l-.22,1.08c0,.05.05.09.1.09m-.03,1.48c-.87-.03-1.56-.76-1.53-1.64,0-.12.02-.24.06-.36l.07-.32c2.65-14.83,14.26-22.43,28.93-20.86.6-.04,1.17.24,1.5.74.22.51.21,1.09-.01,1.59-2.7,14.63-15.02,21.03-29.01,20.85"/><path id="Path_63" class="cls-1" d="m48.05,150.61c10.13-6.44,20.61-12.33,31.37-17.64l.49.87c-5.03,3.28-10.24,6.25-15.45,9.24-5.25,2.9-10.51,5.8-15.92,8.4l-.49-.87"/><path id="Path_64" class="cls-1" d="m23.42,124.15c8.66,8.31,16.87,17.08,24.59,26.28l-.73.68c-4.38-4.11-8.5-8.47-12.64-12.81-4.06-4.42-8.13-8.83-11.94-13.47l.73-.68"/><path id="Path_65" class="cls-1" d="m26.53,239.86c10.13-6.44,20.61-12.33,31.37-17.64l.49.88c-5.03,3.28-10.24,6.25-15.45,9.24-5.25,2.9-10.51,5.8-15.92,8.4l-.49-.88"/><path id="Path_66" class="cls-1" d="m.71,214.35c8.87,8.09,17.3,16.66,25.24,25.66l-.71.7c-4.49-4-8.72-8.25-12.96-12.49-4.17-4.31-8.35-8.62-12.28-13.16l.71-.7"/><path id="Path_67" class="cls-1" d="m58.22,60.47c9.19-7.73,18.78-14.96,28.74-21.66l.6.8c-4.55,3.92-9.32,7.56-14.08,11.21-4.82,3.57-9.64,7.15-14.66,10.45l-.6-.8"/><path id="Path_68" class="cls-1" d="m29.61,38.24c9.85,6.87,19.31,14.27,28.36,22.16l-.62.79c-4.97-3.38-9.71-7.04-14.48-10.7-4.7-3.74-9.4-7.46-13.89-11.46l.62-.79"/><path id="Path_69" class="cls-1" d="m57.45,38c-.29-.07-.55-.26-.69-.53-.11-.16-.46-.63-.56-.8-8.01-11.78-8.89-26.53,2.41-36.53.19-.19.49-.19.68,0,0,0,0,0,.01.01,2.42,2.59,4.39,5.56,5.83,8.8,3.1,6.56,2.89,14.21-.58,20.58-1.74,3.29-4.16,6.18-7.1,8.46m.1-1.37c.86-1.34,2.03-2.29,2.98-3.53,1.08-1.31,2.03-2.71,2.85-4.2,5.33-9.1,2.06-20.69-4.8-28.04,0,0,.7.01.69.01-10.97,9.89-9.68,24.25-1.6,35.53l.18.25s.12.17.14.18c-.11-.13-.27-.21-.44-.2"/><path id="Path_70" class="cls-1" d="m60.03,1.05c-.08,12.01-.8,24-2.17,35.93l-1-.06c-.03-6.01.29-12,.61-17.99.41-5.99.82-11.97,1.56-17.93l1,.06"/><path id="Path_71" class="cls-1" d="m57.9,35.36c5.91,101.32-35.35,219.86-35.77,221.04l-1.18-.42c.42-1.18,41.6-119.49,35.69-220.56l1.25-.07Z"/></g></g><g id="Group_14"><g id="Group_11-2"><path id="Path_45-2" class="cls-1" d="m126.61,327.88c-.23.2-.53.29-.83.26-.19,0-.78,0-.98,0-14.28-.33-26.73-8.11-28.36-23.14-.04-.26.13-.51.39-.55,0,0,.01,0,.02,0,3.51-.47,7.08-.35,10.55.35,7.14,1.27,13.25,5.88,16.43,12.41,1.68,3.32,2.62,6.97,2.78,10.69m-1.05-.88c-.59-1.47-.69-2.98-1.14-4.48-.44-1.64-1.03-3.23-1.77-4.75-4.32-9.61-15.67-13.68-25.63-12.36,0,0,.41-.56.41-.56,1.72,14.71,14.1,21.93,28.01,21.91h.31s.21,0,.23-.01c-.17.01-.33.1-.42.24"/><path id="Path_46-2" class="cls-1" d="m129.92,298.7l9.6-9.45c.43-.4,1.1-.38,1.51.05.38.41.38,1.06-.01,1.46-.06.06-10.36,8.62-10.42,8.68-.2.19-.52.17-.71-.03s-.17-.52.03-.71h0"/><path id="Path_47-2" class="cls-1" d="m130.11,299.44l-10.35-8.62c-.44-.39-.48-1.06-.09-1.5.37-.42,1.01-.48,1.45-.13.07.05,9.6,9.45,9.66,9.51.2.19.21.51.02.71-.18.19-.49.21-.69.03"/><path id="Path_48-2" class="cls-1" d="m131.99,277.99l9.6-9.45c.43-.4,1.1-.38,1.51.05.38.41.38,1.06-.01,1.46-.06.06-10.36,8.62-10.42,8.68-.21.18-.53.16-.71-.05-.17-.2-.16-.5.03-.69"/><path id="Path_49-2" class="cls-1" d="m132.18,278.73l-10.35-8.62c-.44-.39-.48-1.06-.09-1.5.37-.42,1.01-.48,1.45-.13.07.05,9.6,9.45,9.66,9.51.2.19.21.51.02.71-.18.19-.49.21-.69.03"/><path id="Path_50-2" class="cls-1" d="m133.87,257.1l9.6-9.45c.43-.4,1.1-.38,1.51.05.38.41.38,1.06-.01,1.46-.06.06-10.35,8.62-10.42,8.68-.21.18-.53.16-.71-.05-.17-.2-.16-.5.03-.69"/><path id="Path_51-2" class="cls-1" d="m134.06,257.84l-10.36-8.62c-.44-.39-.48-1.06-.09-1.5.37-.42,1.01-.48,1.45-.13.07.05,9.6,9.45,9.66,9.51.2.19.21.51.02.71-.18.19-.49.21-.69.03"/><path id="Path_52-2" class="cls-1" d="m135.38,209.29l9.6-9.45c.43-.4,1.1-.38,1.51.05.38.41.38,1.06-.01,1.46-.06.06-10.35,8.62-10.42,8.68-.21.18-.53.16-.71-.05-.17-.2-.16-.5.03-.69"/><path id="Path_53-2" class="cls-1" d="m135.57,210.03l-10.36-8.62c-.44-.39-.48-1.06-.09-1.5.37-.42,1.01-.48,1.45-.13.07.05,9.6,9.45,9.66,9.51.2.19.21.51.02.71-.18.19-.49.21-.69.03"/><path id="Path_54-2" class="cls-1" d="m135.49,186.9l9.35-9.7c.42-.41,1.1-.4,1.51.02.39.4.4,1.04.03,1.45-.05.06-10.12,8.89-10.19,8.95-.21.18-.52.17-.71-.04-.17-.2-.17-.49.02-.68"/><path id="Path_55-2" class="cls-1" d="m135.7,187.63l-10.58-8.34c-.46-.36-.54-1.03-.18-1.5s1.03-.54,1.5-.18h0c.07.05,9.84,9.2,9.91,9.25.21.18.23.5.05.71s-.5.23-.71.05"/><path id="Path_56-2" class="cls-1" d="m133.75,165.26l8.55-10.41c.37-.46,1.04-.52,1.5-.15.46.37.52,1.04.15,1.5h0c-.05.07-9.39,9.66-9.45,9.73-.19.2-.5.22-.71.03-.2-.18-.22-.5-.04-.7"/><path id="Path_57-2" class="cls-1" d="m134.01,165.98l-11.2-7.48c-.49-.33-.62-.99-.29-1.48s.99-.62,1.48-.29h0c.07.04,10.54,8.39,10.61,8.44.22.16.27.48.11.7-.16.22-.48.27-.7.11"/><path id="Path_58-2" class="cls-1" d="m127.32,326.57c12.99-.26,24.99-6.8,27.41-20.35,0-.12.24-.78.12-.89-.09-.13-.25-.2-.41-.19-13.8-1.23-24.9,6.22-27.03,20.24l-.19,1.09c0,.05.05.09.1.09m0,1.48c-.87,0-1.58-.72-1.57-1.59,0-.12.02-.25.05-.37l.06-.32c2.25-14.9,13.64-22.81,28.35-21.64.6-.06,1.18.21,1.52.7.23.5.24,1.08.03,1.59-2.3,14.7-14.44,21.43-28.43,21.64"/><path id="Path_59-2" class="cls-1" d="m136.35,235.09c12.99-.26,24.99-6.79,27.41-20.35,0-.12.24-.78.12-.89-.09-.13-.25-.2-.41-.18-13.8-1.23-24.9,6.22-27.03,20.24l-.19,1.09c0,.05.05.09.1.09m.01,1.48c-.87,0-1.58-.72-1.57-1.59,0-.12.02-.25.05-.37l.06-.32c2.25-14.9,13.64-22.81,28.35-21.64.6-.06,1.18.21,1.52.7.23.5.24,1.08.03,1.59-2.3,14.7-14.44,21.43-28.43,21.64"/><path id="Path_60-2" class="cls-1" d="m135.57,235.98c-.23.2-.53.29-.83.25-.19,0-.77,0-.98,0-14.28-.33-26.73-8.11-28.36-23.14-.04-.26.13-.51.39-.55,0,0,.01,0,.02,0,3.51-.47,7.08-.35,10.55.35,7.14,1.27,13.25,5.88,16.44,12.4,1.68,3.32,2.62,6.97,2.78,10.69m-1.05-.88c-.59-1.47-.69-2.98-1.14-4.48-.44-1.64-1.03-3.23-1.77-4.75-4.32-9.61-15.67-13.68-25.63-12.36,0,0,.41-.56.41-.56,1.73,14.71,14.1,21.93,28.01,21.91h.31s.21,0,.23-.01c-.17.01-.33.1-.42.24"/><path id="Path_61-2" class="cls-1" d="m132.68,145.79c-.2.22-.5.35-.8.35-.19.01-.77.09-.98.1-14.23,1.26-27.47-5.09-30.76-19.85-.07-.25.07-.52.33-.59,0,0,.02,0,.02,0,3.44-.86,6.99-1.14,10.52-.82,7.24.47,13.82,4.37,17.71,10.5,2.03,3.12,3.38,6.63,3.95,10.32m-1.14-.76c-.75-1.4-1.02-2.88-1.63-4.32-.62-1.58-1.39-3.09-2.28-4.53-5.36-9.07-17.09-11.85-26.84-9.43l.35-.6c3.35,14.43,16.45,20.22,30.28,18.66l.3-.04s.2-.02.22-.03c-.17.03-.31.14-.39.29"/><path id="Path_62-2" class="cls-1" d="m132.99,144.33c12.88-1.72,24.07-9.55,24.96-23.29-.01-.12.15-.8.02-.89-.11-.12-.27-.18-.43-.14-13.85.32-24.05,8.97-24.6,23.14l-.06,1.1c.01.05.06.09.11.08m.17,1.47c-.87.09-1.65-.54-1.74-1.41-.01-.12-.01-.25,0-.37l.02-.32c.56-15.05,11-24.2,25.75-24.68.58-.13,1.19.07,1.59.52.28.48.36,1.05.21,1.58-.64,14.86-11.95,22.92-25.83,24.69"/><path id="Path_63-2" class="cls-1" d="m135.03,235.24c9.14-7.79,18.69-15.08,28.61-21.84l.61.79c-4.53,3.95-9.27,7.62-14.02,11.3-4.8,3.6-9.6,7.21-14.6,10.54l-.61-.79"/><path id="Path_64-2" class="cls-1" d="m106.97,212.46c9.74,7.02,19.09,14.57,28.01,22.6l-.63.78c-4.91-3.46-9.6-7.2-14.3-10.93-4.64-3.81-9.28-7.61-13.7-11.67l.63-.78"/><path id="Path_65-2" class="cls-1" d="m126.14,326.62c9.14-7.79,18.69-15.07,28.61-21.83l.61.8c-4.53,3.95-9.27,7.62-14.02,11.3-4.8,3.6-9.6,7.21-14.6,10.54l-.61-.8"/><path id="Path_66-2" class="cls-1" d="m97.03,304.94c9.91,6.78,19.45,14.09,28.57,21.89l-.61.79c-5-3.34-9.78-6.95-14.58-10.57-4.73-3.69-9.47-7.37-13.99-11.33l.61-.79"/><path id="Path_67-2" class="cls-1" d="m132.57,144.57c8.02-8.93,16.52-17.43,25.45-25.45l.71.71c-3.96,4.52-8.18,8.79-12.39,13.06-4.28,4.21-8.55,8.42-13.06,12.39l-.71-.71"/><path id="Path_68-2" class="cls-1" d="m101.13,126.53c10.71,5.44,21.11,11.44,31.17,18l-.5.87c-5.39-2.66-10.6-5.62-15.83-8.58-5.17-3.05-10.35-6.08-15.34-9.41l.5-.87"/><path id="Path_69-2" class="cls-1" d="m128.68,122.42c-.3-.03-.58-.18-.76-.43-.13-.15-.54-.56-.67-.71-9.57-10.55-12.49-25.03-2.7-36.51.16-.21.46-.26.67-.1,0,0,.01,0,.02.01,2.76,2.22,5.13,4.89,7,7.9,3.99,6.06,4.84,13.67,2.3,20.46-1.26,3.5-3.26,6.7-5.85,9.37m-.09-1.37c.66-1.44,1.69-2.55,2.46-3.91.88-1.45,1.63-2.97,2.23-4.55,4.01-9.75-.84-20.78-8.66-27.1,0,0,.69-.08.69-.08-9.49,11.32-6.21,25.36,3.36,35.41l.22.22s.14.15.16.16c-.13-.12-.3-.17-.47-.14"/><path id="Path_70-2" class="cls-1" d="m126.08,85.47c1.59,11.9,2.55,23.88,2.85,35.88l-1,.08c-.87-5.95-1.38-11.92-1.9-17.9-.42-5.99-.86-11.97-.95-17.98l1-.08"/><path id="Path_71-2" class="cls-1" d="m128.75,119.74c19.96,99.51-4.41,222.64-4.65,223.87l-1.23-.25c.25-1.23,24.56-124.12,4.65-223.38l1.23-.25Z"/></g></g></g></svg>