<?xml version="1.0" encoding="UTF-8"?><svg id="Layer_2" xmlns="http://www.w3.org/2000/svg" viewBox="0 0 95.21 95.21"><defs><style>.cls-1{fill:#efebe4;}.cls-2{fill:#c07f2b;}.cls-3{fill:#2c3e37;}</style></defs><g id="Layer_1-2"><circle class="cls-3" cx="47.61" cy="47.61" r="47.61"/><path class="cls-1" d="m52.35,61.99c4.54-.59,7.29-3.38,8.99-7.4.94-2.22,1.91-4.4,3.5-6.26,2.32-2.71,5.65-3.51,8.55-2.02-.04.07-.05.17-.11.2-3.05,1.87-4.44,4.9-5.61,8.06-.68,1.85-1.42,3.65-2.64,5.23-2.41,3.12-5.98,4.34-9.82,3.33-.99-.26-1.97-.58-2.95-.88.03-.09.06-.18.08-.26"/><path class="cls-1" d="m58.08,53.89c-.02,2.4.25,2.13-1.98,1.92-1.3-.12-2.62-.44-3.85-.9-2.3-.85-3.82-2.55-4.34-4.95-.36-1.66-.46-3.38-.68-5.07-.06-.52.14-.74.7-.73,1.93.06,3.79.38,5.55,1.2,3.07,1.42,4.15,4.1,4.53,7.21.05.44.05.88.08,1.32"/><path class="cls-1" d="m61.03,66.35c.94,0,1.68.72,1.68,1.66,0,.94-.72,1.68-1.66,1.69-.93.01-1.67-.72-1.68-1.67-.01-.93.73-1.69,1.66-1.69"/><path class="cls-2" d="m42.86,47.76c-4.54-.59-7.29-3.38-8.99-7.4-.94-2.22-1.91-4.4-3.5-6.26-2.32-2.71-5.65-3.51-8.55-2.02.04.07.05.17.11.2,3.05,1.87,4.44,4.9,5.61,8.06.68,1.85,1.42,3.65,2.64,5.23,2.41,3.12,5.98,4.34,9.82,3.33.99-.26,1.97-.58,2.95-.88-.03-.09-.06-.18-.08-.26"/><path class="cls-2" d="m37.14,39.66c.02,2.4-.25,2.13,1.98,1.92,1.3-.12,2.62-.44,3.85-.9,2.3-.85,3.82-2.55,4.34-4.95.36-1.66.46-3.38.68-5.07.06-.52-.14-.74-.7-.73-1.93.06-3.79.38-5.55,1.2-3.07,1.42-4.15,4.1-4.53,7.21-.05.44-.05.88-.08,1.32"/><path class="cls-2" d="m34.19,52.12c-.94,0-1.68.72-1.68,1.66,0,.94.72,1.68,1.66,1.69.93.01,1.67-.72,1.68-1.67.01-.93-.73-1.69-1.66-1.69"/></g></svg>